<?xml version="1.0" encoding="UTF-8" standalone="no"?>
<!DOCTYPE svg PUBLIC "-//W3C//DTD SVG 1.1//EN"
 "http://www.w3.org/Graphics/SVG/1.1/DTD/svg11.dtd">
<!-- Generated by graphviz version 14.0.2 (20251019.1705)
 -->
<!-- Pages: 1 -->
<svg width="1153pt" height="1558pt"
 viewBox="0.00 0.00 1153.00 1558.00" xmlns="http://www.w3.org/2000/svg" xmlns:xlink="http://www.w3.org/1999/xlink">
<g id="graph0" class="graph" transform="scale(1 1) rotate(0) translate(4 1554.45)">
<polygon fill="white" stroke="none" points="-4,4 -4,-1554.45 1148.84,-1554.45 1148.84,4 -4,4"/>
<text xml:space="preserve" text-anchor="middle" x="572.42" y="-7.2" font-family="Times,serif" font-size="14.00">source/projects/karma_tilde/karma~.c</text>
<!-- ext_main -->
<g id="node1" class="node">
<title>ext_main</title>
<path fill="#eecc80" stroke="none" d="M59.5,-650.37C59.5,-650.37 12,-650.37 12,-650.37 6,-650.37 0,-644.37 0,-638.37 0,-638.37 0,-624.37 0,-624.37 0,-618.37 6,-612.37 12,-612.37 12,-612.37 59.5,-612.37 59.5,-612.37 65.5,-612.37 71.5,-618.37 71.5,-624.37 71.5,-624.37 71.5,-638.37 71.5,-638.37 71.5,-644.37 65.5,-650.37 59.5,-650.37"/>
<text xml:space="preserve" text-anchor="middle" x="35.75" y="-633.07" font-family="Vera Sans Mono" font-size="14.00">ext_main</text>
<text xml:space="preserve" text-anchor="middle" x="35.75" y="-618.07" font-family="Vera Sans Mono" font-size="14.00">468</text>
</g>
<!-- karma_new -->
<g id="node2" class="node">
<title>karma_new</title>
<ellipse fill="#eecc80" stroke="none" cx="202.08" cy="-1521.37" rx="61.66" ry="27.37"/>
<text xml:space="preserve" text-anchor="middle" x="202.08" y="-1523.07" font-family="Vera Sans Mono" font-size="14.00">karma_new</text>
<text xml:space="preserve" text-anchor="middle" x="202.08" y="-1508.07" font-family="Vera Sans Mono" font-size="14.00">605</text>
</g>
<!-- ext_main&#45;&gt;karma_new -->
<g id="edge1" class="edge">
<title>ext_main&#45;&gt;karma_new</title>
<path fill="none" stroke="black" d="M37.13,-650.27C39.66,-769.65 55.7,-1416.24 107.5,-1485.37 114.54,-1494.76 124.37,-1501.71 135.02,-1506.84"/>
<polygon fill="black" stroke="black" points="133.46,-1509.98 144.03,-1510.64 136.18,-1503.53 133.46,-1509.98"/>
</g>
<!-- karma_free -->
<g id="node3" class="node">
<title>karma_free</title>
<ellipse fill="#eecc80" stroke="none" cx="202.08" cy="-1449.37" rx="60.61" ry="27.37"/>
<text xml:space="preserve" text-anchor="middle" x="202.08" y="-1451.07" font-family="Vera Sans Mono" font-size="14.00">karma_free</text>
<text xml:space="preserve" text-anchor="middle" x="202.08" y="-1436.07" font-family="Vera Sans Mono" font-size="14.00">711</text>
</g>
<!-- ext_main&#45;&gt;karma_free -->
<g id="edge2" class="edge">
<title>ext_main&#45;&gt;karma_free</title>
<path fill="none" stroke="black" d="M37.33,-650.34C40.96,-763.32 61.77,-1344.9 107.5,-1408.37 115.12,-1418.94 126.07,-1426.83 137.82,-1432.69"/>
<polygon fill="black" stroke="black" points="136.34,-1435.86 146.9,-1436.73 139.18,-1429.47 136.34,-1435.86"/>
</g>
<!-- karma_select_start -->
<g id="node4" class="node">
<title>karma_select_start</title>
<ellipse fill="#eecc80" stroke="none" cx="1052.39" cy="-1286.37" rx="92.96" ry="27.37"/>
<text xml:space="preserve" text-anchor="middle" x="1052.39" y="-1288.07" font-family="Vera Sans Mono" font-size="14.00">karma_select_start</text>
<text xml:space="preserve" text-anchor="middle" x="1052.39" y="-1273.07" font-family="Vera Sans Mono" font-size="14.00">1492</text>
</g>
<!-- ext_main&#45;&gt;karma_select_start -->
<g id="edge3" class="edge">
<title>ext_main&#45;&gt;karma_select_start</title>
<path fill="none" stroke="black" d="M37.68,-650.34C41.77,-728.06 60.16,-1021.65 107.5,-1099.37 171.77,-1204.88 222.28,-1206.88 332.65,-1262.37 570.78,-1382.08 666.98,-1433.16 923.93,-1362.37 955.39,-1353.7 986.93,-1335 1010.76,-1318.32"/>
<polygon fill="black" stroke="black" points="1012.51,-1321.37 1018.6,-1312.7 1008.43,-1315.68 1012.51,-1321.37"/>
</g>
<!-- karma_select_size -->
<g id="node5" class="node">
<title>karma_select_size</title>
<ellipse fill="#eecc80" stroke="none" cx="1052.39" cy="-647.37" rx="91.36" ry="27.37"/>
<text xml:space="preserve" text-anchor="middle" x="1052.39" y="-649.07" font-family="Vera Sans Mono" font-size="14.00">karma_select_size</text>
<text xml:space="preserve" text-anchor="middle" x="1052.39" y="-634.07" font-family="Vera Sans Mono" font-size="14.00">1533</text>
</g>
<!-- ext_main&#45;&gt;karma_select_size -->
<g id="edge4" class="edge">
<title>ext_main&#45;&gt;karma_select_size</title>
<path fill="none" stroke="black" d="M38.39,-612.46C43.94,-553.58 64.09,-375.46 107.5,-341.37 173.62,-289.45 213.71,-327.66 296.65,-341.37 577.23,-387.76 882.82,-550.15 1000.91,-617.62"/>
<polygon fill="black" stroke="black" points="999.03,-620.58 1009.44,-622.52 1002.51,-614.51 999.03,-620.58"/>
</g>
<!-- karma_jump -->
<g id="node6" class="node">
<title>karma_jump</title>
<ellipse fill="#eecc80" stroke="none" cx="202.08" cy="-991.37" rx="65.38" ry="27.37"/>
<text xml:space="preserve" text-anchor="middle" x="202.08" y="-993.07" font-family="Vera Sans Mono" font-size="14.00">karma_jump</text>
<text xml:space="preserve" text-anchor="middle" x="202.08" y="-978.07" font-family="Vera Sans Mono" font-size="14.00">1743</text>
</g>
<!-- ext_main&#45;&gt;karma_jump -->
<g id="edge5" class="edge">
<title>ext_main&#45;&gt;karma_jump</title>
<path fill="none" stroke="black" d="M38.51,-650.03C44.69,-711.8 67.19,-908.4 107.5,-955.37 114.48,-963.51 123.52,-969.81 133.23,-974.7"/>
<polygon fill="black" stroke="black" points="131.58,-977.79 142.14,-978.67 134.43,-971.4 131.58,-977.79"/>
</g>
<!-- karma_stop -->
<g id="node7" class="node">
<title>karma_stop</title>
<ellipse fill="#eecc80" stroke="none" cx="202.08" cy="-919.37" rx="62.2" ry="27.37"/>
<text xml:space="preserve" text-anchor="middle" x="202.08" y="-921.07" font-family="Vera Sans Mono" font-size="14.00">karma_stop</text>
<text xml:space="preserve" text-anchor="middle" x="202.08" y="-906.07" font-family="Vera Sans Mono" font-size="14.00">1572</text>
</g>
<!-- ext_main&#45;&gt;karma_stop -->
<g id="edge6" class="edge">
<title>ext_main&#45;&gt;karma_stop</title>
<path fill="none" stroke="black" d="M36.6,-650.19C37.26,-696.09 45.24,-815 107.5,-883.37 115.15,-891.77 124.98,-898.22 135.38,-903.18"/>
<polygon fill="black" stroke="black" points="133.94,-906.38 144.51,-907.06 136.68,-899.93 133.94,-906.38"/>
</g>
<!-- karma_play -->
<g id="node8" class="node">
<title>karma_play</title>
<ellipse fill="#eecc80" stroke="none" cx="202.08" cy="-847.37" rx="61.66" ry="27.37"/>
<text xml:space="preserve" text-anchor="middle" x="202.08" y="-849.07" font-family="Vera Sans Mono" font-size="14.00">karma_play</text>
<text xml:space="preserve" text-anchor="middle" x="202.08" y="-834.07" font-family="Vera Sans Mono" font-size="14.00">1584</text>
</g>
<!-- ext_main&#45;&gt;karma_play -->
<g id="edge7" class="edge">
<title>ext_main&#45;&gt;karma_play</title>
<path fill="none" stroke="black" d="M39.1,-650.13C44.57,-686.18 61.39,-765.59 107.5,-811.37 115.74,-819.55 126.03,-825.91 136.76,-830.84"/>
<polygon fill="black" stroke="black" points="135.14,-833.96 145.72,-834.57 137.83,-827.5 135.14,-833.96"/>
</g>
<!-- karma_record -->
<g id="node9" class="node">
<title>karma_record</title>
<ellipse fill="#eecc80" stroke="none" cx="202.08" cy="-775.37" rx="71.21" ry="27.37"/>
<text xml:space="preserve" text-anchor="middle" x="202.08" y="-777.07" font-family="Vera Sans Mono" font-size="14.00">karma_record</text>
<text xml:space="preserve" text-anchor="middle" x="202.08" y="-762.07" font-family="Vera Sans Mono" font-size="14.00">1600</text>
</g>
<!-- ext_main&#45;&gt;karma_record -->
<g id="edge8" class="edge">
<title>ext_main&#45;&gt;karma_record</title>
<path fill="none" stroke="black" d="M44.53,-649.97C55.37,-673.78 77.15,-714.87 107.5,-739.37 115.28,-745.65 124.27,-750.92 133.54,-755.32"/>
<polygon fill="black" stroke="black" points="132.13,-758.52 142.69,-759.32 134.93,-752.11 132.13,-758.52"/>
</g>
<!-- karma_append -->
<g id="node10" class="node">
<title>karma_append</title>
<ellipse fill="#eecc80" stroke="none" cx="202.08" cy="-703.37" rx="75.98" ry="27.37"/>
<text xml:space="preserve" text-anchor="middle" x="202.08" y="-705.07" font-family="Vera Sans Mono" font-size="14.00">karma_append</text>
<text xml:space="preserve" text-anchor="middle" x="202.08" y="-690.07" font-family="Vera Sans Mono" font-size="14.00">1707</text>
</g>
<!-- ext_main&#45;&gt;karma_append -->
<g id="edge9" class="edge">
<title>ext_main&#45;&gt;karma_append</title>
<path fill="none" stroke="black" d="M71.31,-649.86C82.71,-655.71 95.54,-662.04 107.5,-667.37 117.18,-671.68 127.54,-675.97 137.72,-680.02"/>
<polygon fill="black" stroke="black" points="136.23,-683.19 146.81,-683.58 138.78,-676.67 136.23,-683.19"/>
</g>
<!-- karma_resetloop -->
<g id="node11" class="node">
<title>karma_resetloop</title>
<ellipse fill="#eecc80" stroke="none" cx="473.48" cy="-485.37" rx="83.41" ry="27.37"/>
<text xml:space="preserve" text-anchor="middle" x="473.48" y="-487.07" font-family="Vera Sans Mono" font-size="14.00">karma_resetloop</text>
<text xml:space="preserve" text-anchor="middle" x="473.48" y="-472.07" font-family="Vera Sans Mono" font-size="14.00">1309</text>
</g>
<!-- ext_main&#45;&gt;karma_resetloop -->
<g id="edge10" class="edge">
<title>ext_main&#45;&gt;karma_resetloop</title>
<path fill="none" stroke="black" d="M43.13,-612.76C52.77,-587.74 73.62,-544.02 107.5,-523.37 151.56,-496.52 286.01,-488.43 378.8,-486.12"/>
<polygon fill="black" stroke="black" points="378.76,-489.62 388.67,-485.89 378.6,-482.62 378.76,-489.62"/>
</g>
<!-- karma_setloop -->
<g id="node12" class="node">
<title>karma_setloop</title>
<ellipse fill="#eecc80" stroke="none" cx="202.08" cy="-631.37" rx="74.92" ry="27.37"/>
<text xml:space="preserve" text-anchor="middle" x="202.08" y="-633.07" font-family="Vera Sans Mono" font-size="14.00">karma_setloop</text>
<text xml:space="preserve" text-anchor="middle" x="202.08" y="-618.07" font-family="Vera Sans Mono" font-size="14.00">1276</text>
</g>
<!-- ext_main&#45;&gt;karma_setloop -->
<g id="edge11" class="edge">
<title>ext_main&#45;&gt;karma_setloop</title>
<path fill="none" stroke="black" d="M71.2,-631.37C84.5,-631.37 100.36,-631.37 116.35,-631.37"/>
<polygon fill="black" stroke="black" points="115.9,-634.87 125.9,-631.37 115.9,-627.87 115.9,-634.87"/>
</g>
<!-- karma_buf_change -->
<g id="node13" class="node">
<title>karma_buf_change</title>
<ellipse fill="#eecc80" stroke="none" cx="202.08" cy="-559.37" rx="94.01" ry="27.37"/>
<text xml:space="preserve" text-anchor="middle" x="202.08" y="-561.07" font-family="Vera Sans Mono" font-size="14.00">karma_buf_change</text>
<text xml:space="preserve" text-anchor="middle" x="202.08" y="-546.07" font-family="Vera Sans Mono" font-size="14.00">1118</text>
</g>
<!-- ext_main&#45;&gt;karma_buf_change -->
<g id="edge12" class="edge">
<title>ext_main&#45;&gt;karma_buf_change</title>
<path fill="none" stroke="black" d="M71.31,-612.88C82.71,-607.03 95.54,-600.7 107.5,-595.37 115.64,-591.75 124.27,-588.13 132.86,-584.67"/>
<polygon fill="black" stroke="black" points="133.88,-588.03 141.88,-581.09 131.29,-581.52 133.88,-588.03"/>
</g>
<!-- karma_overdub -->
<g id="node14" class="node">
<title>karma_overdub</title>
<ellipse fill="#eecc80" stroke="none" cx="202.08" cy="-449.37" rx="78.64" ry="27.37"/>
<text xml:space="preserve" text-anchor="middle" x="202.08" y="-451.07" font-family="Vera Sans Mono" font-size="14.00">karma_overdub</text>
<text xml:space="preserve" text-anchor="middle" x="202.08" y="-436.07" font-family="Vera Sans Mono" font-size="14.00">1724</text>
</g>
<!-- ext_main&#45;&gt;karma_overdub -->
<g id="edge13" class="edge">
<title>ext_main&#45;&gt;karma_overdub</title>
<path fill="none" stroke="black" d="M41.72,-612.42C50.39,-582.73 70.95,-525.06 107.5,-490.37 114.96,-483.29 123.85,-477.31 133.13,-472.3"/>
<polygon fill="black" stroke="black" points="134.56,-475.49 141.95,-467.91 131.44,-469.23 134.56,-475.49"/>
</g>
<!-- karma_float -->
<g id="node15" class="node">
<title>karma_float</title>
<ellipse fill="#eecc80" stroke="none" cx="202.08" cy="-377.37" rx="62.2" ry="27.37"/>
<text xml:space="preserve" text-anchor="middle" x="202.08" y="-379.07" font-family="Vera Sans Mono" font-size="14.00">karma_float</text>
<text xml:space="preserve" text-anchor="middle" x="202.08" y="-364.07" font-family="Vera Sans Mono" font-size="14.00">1427</text>
</g>
<!-- ext_main&#45;&gt;karma_float -->
<g id="edge14" class="edge">
<title>ext_main&#45;&gt;karma_float</title>
<path fill="none" stroke="black" d="M37.59,-612.62C40.43,-571.19 52.89,-470.98 107.5,-413.37 115.31,-405.13 125.22,-398.75 135.65,-393.82"/>
<polygon fill="black" stroke="black" points="136.96,-397.06 144.8,-389.94 134.23,-390.62 136.96,-397.06"/>
</g>
<!-- karma_dsp64 -->
<g id="node16" class="node">
<title>karma_dsp64</title>
<ellipse fill="#eecc80" stroke="none" cx="202.08" cy="-1063.37" rx="70.15" ry="27.37"/>
<text xml:space="preserve" text-anchor="middle" x="202.08" y="-1065.07" font-family="Vera Sans Mono" font-size="14.00">karma_dsp64</text>
<text xml:space="preserve" text-anchor="middle" x="202.08" y="-1050.07" font-family="Vera Sans Mono" font-size="14.00">1794</text>
</g>
<!-- ext_main&#45;&gt;karma_dsp64 -->
<g id="edge15" class="edge">
<title>ext_main&#45;&gt;karma_dsp64</title>
<path fill="none" stroke="black" d="M37.71,-650.1C41.65,-720.52 58.81,-968.4 107.5,-1027.37 113.78,-1034.98 121.87,-1040.98 130.65,-1045.72"/>
<polygon fill="black" stroke="black" points="128.9,-1048.76 139.44,-1049.89 131.91,-1042.44 128.9,-1048.76"/>
</g>
<!-- karma_assist -->
<g id="node17" class="node">
<title>karma_assist</title>
<ellipse fill="#eecc80" stroke="none" cx="202.08" cy="-267.37" rx="68.56" ry="27.37"/>
<text xml:space="preserve" text-anchor="middle" x="202.08" y="-269.07" font-family="Vera Sans Mono" font-size="14.00">karma_assist</text>
<text xml:space="preserve" text-anchor="middle" x="202.08" y="-254.07" font-family="Vera Sans Mono" font-size="14.00">1371</text>
</g>
<!-- ext_main&#45;&gt;karma_assist -->
<g id="edge16" class="edge">
<title>ext_main&#45;&gt;karma_assist</title>
<path fill="none" stroke="black" d="M38.65,-612.41C45.17,-550.57 68.47,-355.98 107.5,-308.37 114.83,-299.43 124.49,-292.39 134.82,-286.85"/>
<polygon fill="black" stroke="black" points="136.04,-290.15 143.52,-282.65 132.99,-283.85 136.04,-290.15"/>
</g>
<!-- karma_buf_dblclick -->
<g id="node18" class="node">
<title>karma_buf_dblclick</title>
<ellipse fill="#eecc80" stroke="none" cx="202.08" cy="-195.37" rx="94.01" ry="27.37"/>
<text xml:space="preserve" text-anchor="middle" x="202.08" y="-197.07" font-family="Vera Sans Mono" font-size="14.00">karma_buf_dblclick</text>
<text xml:space="preserve" text-anchor="middle" x="202.08" y="-182.07" font-family="Vera Sans Mono" font-size="14.00">724</text>
</g>
<!-- ext_main&#45;&gt;karma_buf_dblclick -->
<g id="edge17" class="edge">
<title>ext_main&#45;&gt;karma_buf_dblclick</title>
<path fill="none" stroke="black" d="M37.68,-612.45C41.53,-541.33 58.39,-290.96 107.5,-231.37 111.44,-226.58 116.1,-222.43 121.2,-218.83"/>
<polygon fill="black" stroke="black" points="122.82,-221.95 129.5,-213.72 119.15,-215.99 122.82,-221.95"/>
</g>
<!-- karma_buf_notify -->
<g id="node19" class="node">
<title>karma_buf_notify</title>
<ellipse fill="#eecc80" stroke="none" cx="202.08" cy="-123.37" rx="85.53" ry="27.37"/>
<text xml:space="preserve" text-anchor="middle" x="202.08" y="-125.07" font-family="Vera Sans Mono" font-size="14.00">karma_buf_notify</text>
<text xml:space="preserve" text-anchor="middle" x="202.08" y="-110.07" font-family="Vera Sans Mono" font-size="14.00">1780</text>
</g>
<!-- ext_main&#45;&gt;karma_buf_notify -->
<g id="edge18" class="edge">
<title>ext_main&#45;&gt;karma_buf_notify</title>
<path fill="none" stroke="black" d="M37.12,-612.4C39.01,-533.38 49.94,-231.11 107.5,-159.37 112,-153.76 117.49,-149.02 123.53,-145.02"/>
<polygon fill="black" stroke="black" points="125.19,-148.1 132.1,-140.07 121.69,-142.04 125.19,-148.1"/>
</g>
<!-- karma_syncout_set -->
<g id="node20" class="node">
<title>karma_syncout_set</title>
<ellipse fill="#eecc80" stroke="none" cx="202.08" cy="-51.37" rx="95.08" ry="27.37"/>
<text xml:space="preserve" text-anchor="middle" x="202.08" y="-53.07" font-family="Vera Sans Mono" font-size="14.00">karma_syncout_set</text>
<text xml:space="preserve" text-anchor="middle" x="202.08" y="-38.07" font-family="Vera Sans Mono" font-size="14.00">1757</text>
</g>
<!-- ext_main&#45;&gt;karma_syncout_set -->
<g id="edge19" class="edge">
<title>ext_main&#45;&gt;karma_syncout_set</title>
<path fill="none" stroke="black" d="M36.7,-612.5C36.83,-526.41 41.41,-171.4 107.5,-87.37 111.17,-82.7 115.53,-78.64 120.32,-75.1"/>
<polygon fill="black" stroke="black" points="122.18,-78.07 128.73,-69.74 118.42,-72.16 122.18,-78.07"/>
</g>
<!-- karma_clock_list -->
<g id="node21" class="node">
<title>karma_clock_list</title>
<path fill="#ccee80" stroke="none" d="M562.64,-1517.35C562.64,-1517.35 562.64,-1525.39 562.64,-1525.39 562.64,-1529.4 558.83,-1534.66 555.01,-1535.91 555.01,-1535.91 518.05,-1547.96 518.05,-1547.96 514.23,-1549.21 506.4,-1550.45 502.38,-1550.45 502.38,-1550.45 444.58,-1550.45 444.58,-1550.45 440.56,-1550.45 432.73,-1549.21 428.91,-1547.96 428.91,-1547.96 391.95,-1535.91 391.95,-1535.91 388.13,-1534.66 384.32,-1529.4 384.32,-1525.39 384.32,-1525.39 384.32,-1517.35 384.32,-1517.35 384.32,-1513.34 388.13,-1508.08 391.95,-1506.83 391.95,-1506.83 428.91,-1494.78 428.91,-1494.78 432.73,-1493.53 440.56,-1492.29 444.58,-1492.29 444.58,-1492.29 502.38,-1492.29 502.38,-1492.29 506.4,-1492.29 514.23,-1493.53 518.05,-1494.78 518.05,-1494.78 555.01,-1506.83 555.01,-1506.83 558.83,-1508.08 562.64,-1513.34 562.64,-1517.35"/>
<text xml:space="preserve" text-anchor="middle" x="473.48" y="-1523.07" font-family="Vera Sans Mono" font-size="14.00">karma_clock_list</text>
<text xml:space="preserve" text-anchor="middle" x="473.48" y="-1508.07" font-family="Vera Sans Mono" font-size="14.00">1322</text>
</g>
<!-- karma_new&#45;&gt;karma_clock_list -->
<g id="edge20" class="edge">
<title>karma_new&#45;&gt;karma_clock_list</title>
<path fill="none" stroke="black" d="M263.54,-1521.37C295.8,-1521.37 336.33,-1521.37 373.09,-1521.37"/>
<polygon fill="black" stroke="black" points="372.85,-1524.87 382.85,-1521.37 372.85,-1517.87 372.85,-1524.87"/>
</g>
<!-- karma_buf_values_internal -->
<g id="node22" class="node">
<title>karma_buf_values_internal</title>
<path fill="#ccee80" stroke="none" d="M923.93,-613.35C923.93,-613.35 923.93,-621.39 923.93,-621.39 923.93,-625.4 920,-630.25 916.07,-631.09 916.07,-631.09 851.64,-644.78 851.64,-644.78 847.72,-645.62 839.77,-646.45 835.76,-646.45 835.76,-646.45 738.48,-646.45 738.48,-646.45 734.47,-646.45 726.52,-645.62 722.59,-644.78 722.59,-644.78 658.16,-631.09 658.16,-631.09 654.24,-630.25 650.31,-625.4 650.31,-621.39 650.31,-621.39 650.31,-613.35 650.31,-613.35 650.31,-609.34 654.24,-604.49 658.16,-603.65 658.16,-603.65 722.59,-589.96 722.59,-589.96 726.52,-589.12 734.47,-588.29 738.48,-588.29 738.48,-588.29 835.76,-588.29 835.76,-588.29 839.77,-588.29 847.72,-589.12 851.64,-589.96 851.64,-589.96 916.07,-603.65 916.07,-603.65 920,-604.49 923.93,-609.34 923.93,-613.35"/>
<text xml:space="preserve" text-anchor="middle" x="787.12" y="-619.07" font-family="Vera Sans Mono" font-size="14.00">karma_buf_values_internal</text>
<text xml:space="preserve" text-anchor="middle" x="787.12" y="-604.07" font-family="Vera Sans Mono" font-size="14.00">799</text>
</g>
<!-- karma_resetloop&#45;&gt;karma_buf_values_internal -->
<g id="edge21" class="edge">
<title>karma_resetloop&#45;&gt;karma_buf_values_internal</title>
<path fill="none" stroke="black" d="M544.24,-499.59C566.98,-505.2 592.08,-512.47 614.31,-521.37 655.59,-537.9 699.31,-562.43 732.31,-582.56"/>
<polygon fill="black" stroke="black" points="730.12,-585.32 740.47,-587.59 733.79,-579.36 730.12,-585.32"/>
</g>
<!-- karma_setloop&#45;&gt;karma_buf_values_internal -->
<g id="edge24" class="edge">
<title>karma_setloop&#45;&gt;karma_buf_values_internal</title>
<path fill="none" stroke="black" d="M276.62,-629.6C367.28,-627.43 523.52,-623.68 639.14,-620.9"/>
<polygon fill="black" stroke="black" points="639.12,-624.4 649.04,-620.66 638.95,-617.4 639.12,-624.4"/>
</g>
<!-- karma_setloop_internal -->
<g id="node23" class="node">
<title>karma_setloop_internal</title>
<path fill="#ccee80" stroke="none" d="M593.64,-669.35C593.64,-669.35 593.64,-677.39 593.64,-677.39 593.64,-681.4 589.74,-686.36 585.83,-687.31 585.83,-687.31 531.06,-700.56 531.06,-700.56 527.16,-701.51 519.24,-702.45 515.22,-702.45 515.22,-702.45 431.74,-702.45 431.74,-702.45 427.72,-702.45 419.8,-701.51 415.9,-700.56 415.9,-700.56 361.13,-687.31 361.13,-687.31 357.22,-686.36 353.32,-681.4 353.32,-677.39 353.32,-677.39 353.32,-669.35 353.32,-669.35 353.32,-665.34 357.22,-660.38 361.13,-659.43 361.13,-659.43 415.9,-646.18 415.9,-646.18 419.8,-645.23 427.72,-644.29 431.74,-644.29 431.74,-644.29 515.22,-644.29 515.22,-644.29 519.24,-644.29 527.16,-645.23 531.06,-646.18 531.06,-646.18 585.83,-659.43 585.83,-659.43 589.74,-660.38 593.64,-665.34 593.64,-669.35"/>
<text xml:space="preserve" text-anchor="middle" x="473.48" y="-675.07" font-family="Vera Sans Mono" font-size="14.00">karma_setloop_internal</text>
<text xml:space="preserve" text-anchor="middle" x="473.48" y="-660.07" font-family="Vera Sans Mono" font-size="14.00">1166</text>
</g>
<!-- karma_setloop&#45;&gt;karma_setloop_internal -->
<g id="edge25" class="edge">
<title>karma_setloop&#45;&gt;karma_setloop_internal</title>
<path fill="none" stroke="black" d="M271.06,-641.97C297.6,-646.11 328.76,-650.96 358.53,-655.61"/>
<polygon fill="black" stroke="black" points="357.95,-659.06 368.37,-657.14 359.02,-652.14 357.95,-659.06"/>
</g>
<!-- karma_buf_change_internal -->
<g id="node24" class="node">
<title>karma_buf_change_internal</title>
<path fill="#ccee80" stroke="none" d="M614.31,-555.35C614.31,-555.35 614.31,-563.39 614.31,-563.39 614.31,-567.4 610.38,-572.23 606.44,-573.04 606.44,-573.04 539.68,-586.83 539.68,-586.83 535.75,-587.64 527.8,-588.45 523.78,-588.45 523.78,-588.45 423.18,-588.45 423.18,-588.45 419.16,-588.45 411.21,-587.64 407.28,-586.83 407.28,-586.83 340.52,-573.04 340.52,-573.04 336.58,-572.23 332.65,-567.4 332.65,-563.39 332.65,-563.39 332.65,-555.35 332.65,-555.35 332.65,-551.34 336.58,-546.51 340.52,-545.7 340.52,-545.7 407.28,-531.91 407.28,-531.91 411.21,-531.1 419.16,-530.29 423.18,-530.29 423.18,-530.29 523.78,-530.29 523.78,-530.29 527.8,-530.29 535.75,-531.1 539.68,-531.91 539.68,-531.91 606.44,-545.7 606.44,-545.7 610.38,-546.51 614.31,-551.34 614.31,-555.35"/>
<text xml:space="preserve" text-anchor="middle" x="473.48" y="-561.07" font-family="Vera Sans Mono" font-size="14.00">karma_buf_change_internal</text>
<text xml:space="preserve" text-anchor="middle" x="473.48" y="-546.07" font-family="Vera Sans Mono" font-size="14.00">929</text>
</g>
<!-- karma_buf_change&#45;&gt;karma_buf_change_internal -->
<g id="edge27" class="edge">
<title>karma_buf_change&#45;&gt;karma_buf_change_internal</title>
<path fill="none" stroke="black" d="M295.79,-559.37C304.15,-559.37 312.75,-559.37 321.44,-559.37"/>
<polygon fill="black" stroke="black" points="321.4,-562.87 331.4,-559.37 321.4,-555.87 321.4,-562.87"/>
</g>
<!-- karma_dsp64&#45;&gt;karma_select_start -->
<g id="edge29" class="edge">
<title>karma_dsp64&#45;&gt;karma_select_start</title>
<path fill="none" stroke="black" d="M230.75,-1088.14C297.17,-1145.71 473.27,-1287.45 650.31,-1337.37 767.35,-1370.37 804.52,-1360.37 923.93,-1337.37 947.96,-1332.74 973.23,-1323.62 994.86,-1314.35"/>
<polygon fill="black" stroke="black" points="996.05,-1317.66 1003.79,-1310.42 993.22,-1311.25 996.05,-1317.66"/>
</g>
<!-- karma_dsp64&#45;&gt;karma_select_size -->
<g id="edge30" class="edge">
<title>karma_dsp64&#45;&gt;karma_select_size</title>
<path fill="none" stroke="black" d="M263.51,-1050.68C276.1,-1045.4 288.12,-1037.93 296.65,-1027.37 361.66,-946.88 264.83,-875.51 332.65,-797.37 418.45,-698.53 491.69,-757.15 614.31,-711.37 630.71,-705.25 633.43,-700.02 650.31,-695.37 705.48,-680.18 853.33,-664.85 953.25,-655.73"/>
<polygon fill="black" stroke="black" points="953.43,-659.23 963.08,-654.84 952.8,-652.26 953.43,-659.23"/>
</g>
<!-- karma_buf_setup -->
<g id="node25" class="node">
<title>karma_buf_setup</title>
<path fill="#ccee80" stroke="none" d="M566.09,-831.35C566.09,-831.35 566.09,-839.39 566.09,-839.39 566.09,-843.4 562.26,-848.62 558.43,-849.82 558.43,-849.82 519.5,-862.05 519.5,-862.05 515.67,-863.25 507.82,-864.45 503.81,-864.45 503.81,-864.45 443.15,-864.45 443.15,-864.45 439.14,-864.45 431.29,-863.25 427.46,-862.05 427.46,-862.05 388.53,-849.82 388.53,-849.82 384.7,-848.62 380.87,-843.4 380.87,-839.39 380.87,-839.39 380.87,-831.35 380.87,-831.35 380.87,-827.34 384.7,-822.12 388.53,-820.92 388.53,-820.92 427.46,-808.69 427.46,-808.69 431.29,-807.49 439.14,-806.29 443.15,-806.29 443.15,-806.29 503.81,-806.29 503.81,-806.29 507.82,-806.29 515.67,-807.49 519.5,-808.69 519.5,-808.69 558.43,-820.92 558.43,-820.92 562.26,-822.12 566.09,-827.34 566.09,-831.35"/>
<text xml:space="preserve" text-anchor="middle" x="473.48" y="-837.07" font-family="Vera Sans Mono" font-size="14.00">karma_buf_setup</text>
<text xml:space="preserve" text-anchor="middle" x="473.48" y="-822.07" font-family="Vera Sans Mono" font-size="14.00">730</text>
</g>
<!-- karma_dsp64&#45;&gt;karma_buf_setup -->
<g id="edge31" class="edge">
<title>karma_dsp64&#45;&gt;karma_buf_setup</title>
<path fill="none" stroke="black" d="M262.95,-1050.21C275.56,-1044.95 287.73,-1037.61 296.65,-1027.37 342.82,-974.37 283.84,-923.95 332.65,-873.37 343.12,-862.52 356.36,-854.66 370.49,-849"/>
<polygon fill="black" stroke="black" points="371.26,-852.44 379.49,-845.76 368.89,-845.86 371.26,-852.44"/>
</g>
<!-- karma_quad_perform -->
<g id="node26" class="node">
<title>karma_quad_perform</title>
<path fill="#ccee80" stroke="none" d="M585.61,-907.35C585.61,-907.35 585.61,-915.39 585.61,-915.39 585.61,-919.4 581.72,-924.43 577.83,-925.43 577.83,-925.43 527.7,-938.44 527.7,-938.44 523.81,-939.45 515.91,-940.45 511.89,-940.45 511.89,-940.45 435.07,-940.45 435.07,-940.45 431.05,-940.45 423.15,-939.45 419.26,-938.44 419.26,-938.44 369.13,-925.43 369.13,-925.43 365.24,-924.43 361.35,-919.4 361.35,-915.39 361.35,-915.39 361.35,-907.35 361.35,-907.35 361.35,-903.34 365.24,-898.31 369.13,-897.31 369.13,-897.31 419.26,-884.3 419.26,-884.3 423.15,-883.29 431.05,-882.29 435.07,-882.29 435.07,-882.29 511.89,-882.29 511.89,-882.29 515.91,-882.29 523.81,-883.29 527.7,-884.3 527.7,-884.3 577.83,-897.31 577.83,-897.31 581.72,-898.31 585.61,-903.34 585.61,-907.35"/>
<text xml:space="preserve" text-anchor="middle" x="473.48" y="-913.07" font-family="Vera Sans Mono" font-size="14.00">karma_quad_perform</text>
<text xml:space="preserve" text-anchor="middle" x="473.48" y="-898.07" font-family="Vera Sans Mono" font-size="14.00">4916</text>
</g>
<!-- karma_dsp64&#45;&gt;karma_quad_perform -->
<g id="edge32" class="edge">
<title>karma_dsp64&#45;&gt;karma_quad_perform</title>
<path fill="none" stroke="black" d="M261.03,-1049.02C273.86,-1043.8 286.62,-1036.77 296.65,-1027.37 324.51,-1001.27 303.5,-974.02 332.65,-949.37 341.6,-941.8 351.93,-935.73 362.84,-930.86"/>
<polygon fill="black" stroke="black" points="364.09,-934.12 372.04,-927.12 361.46,-927.64 364.09,-934.12"/>
</g>
<!-- karma_stereo_perform -->
<g id="node27" class="node">
<title>karma_stereo_perform</title>
<path fill="#ccee80" stroke="none" d="M591.35,-983.35C591.35,-983.35 591.35,-991.39 591.35,-991.39 591.35,-995.4 587.45,-1000.38 583.55,-1001.34 583.55,-1001.34 530.1,-1014.53 530.1,-1014.53 526.2,-1015.49 518.29,-1016.45 514.27,-1016.45 514.27,-1016.45 432.69,-1016.45 432.69,-1016.45 428.67,-1016.45 420.76,-1015.49 416.86,-1014.53 416.86,-1014.53 363.41,-1001.34 363.41,-1001.34 359.51,-1000.38 355.61,-995.4 355.61,-991.39 355.61,-991.39 355.61,-983.35 355.61,-983.35 355.61,-979.34 359.51,-974.36 363.41,-973.4 363.41,-973.4 416.86,-960.21 416.86,-960.21 420.76,-959.25 428.67,-958.29 432.69,-958.29 432.69,-958.29 514.27,-958.29 514.27,-958.29 518.29,-958.29 526.2,-959.25 530.1,-960.21 530.1,-960.21 583.55,-973.4 583.55,-973.4 587.45,-974.36 591.35,-979.34 591.35,-983.35"/>
<text xml:space="preserve" text-anchor="middle" x="473.48" y="-989.07" font-family="Vera Sans Mono" font-size="14.00">karma_stereo_perform</text>
<text xml:space="preserve" text-anchor="middle" x="473.48" y="-974.07" font-family="Vera Sans Mono" font-size="14.00">2914</text>
</g>
<!-- karma_dsp64&#45;&gt;karma_stereo_perform -->
<g id="edge33" class="edge">
<title>karma_dsp64&#45;&gt;karma_stereo_perform</title>
<path fill="none" stroke="black" d="M258.18,-1046.95C281.17,-1040.16 308.17,-1032.28 332.65,-1025.37 348.74,-1020.83 365.89,-1016.08 382.48,-1011.55"/>
<polygon fill="black" stroke="black" points="383.09,-1015.01 391.82,-1009 381.25,-1008.25 383.09,-1015.01"/>
</g>
<!-- karma_mono_perform -->
<g id="node28" class="node">
<title>karma_mono_perform</title>
<path fill="#ccee80" stroke="none" d="M589.05,-1059.35C589.05,-1059.35 589.05,-1067.39 589.05,-1067.39 589.05,-1071.4 585.16,-1076.4 581.26,-1077.38 581.26,-1077.38 529.14,-1090.49 529.14,-1090.49 525.25,-1091.47 517.34,-1092.45 513.32,-1092.45 513.32,-1092.45 433.64,-1092.45 433.64,-1092.45 429.62,-1092.45 421.71,-1091.47 417.82,-1090.49 417.82,-1090.49 365.7,-1077.38 365.7,-1077.38 361.8,-1076.4 357.91,-1071.4 357.91,-1067.39 357.91,-1067.39 357.91,-1059.35 357.91,-1059.35 357.91,-1055.34 361.8,-1050.34 365.7,-1049.36 365.7,-1049.36 417.82,-1036.25 417.82,-1036.25 421.71,-1035.27 429.62,-1034.29 433.64,-1034.29 433.64,-1034.29 513.32,-1034.29 513.32,-1034.29 517.34,-1034.29 525.25,-1035.27 529.14,-1036.25 529.14,-1036.25 581.26,-1049.36 581.26,-1049.36 585.16,-1050.34 589.05,-1055.34 589.05,-1059.35"/>
<text xml:space="preserve" text-anchor="middle" x="473.48" y="-1065.07" font-family="Vera Sans Mono" font-size="14.00">karma_mono_perform</text>
<text xml:space="preserve" text-anchor="middle" x="473.48" y="-1050.07" font-family="Vera Sans Mono" font-size="14.00">1842</text>
</g>
<!-- karma_dsp64&#45;&gt;karma_mono_perform -->
<g id="edge34" class="edge">
<title>karma_dsp64&#45;&gt;karma_mono_perform</title>
<path fill="none" stroke="black" d="M272.1,-1063.37C294.92,-1063.37 321.06,-1063.37 346.77,-1063.37"/>
<polygon fill="black" stroke="black" points="346.62,-1066.87 356.62,-1063.37 346.62,-1059.87 346.62,-1066.87"/>
</g>
<!-- karma_buf_values_internal&#45;&gt;karma_select_start -->
<g id="edge22" class="edge">
<title>karma_buf_values_internal&#45;&gt;karma_select_start</title>
<path fill="none" stroke="black" d="M857.96,-643.42C882.2,-655.71 907.41,-672.76 923.93,-695.37 989.55,-785.2 1033.89,-1131.46 1047.19,-1247.91"/>
<polygon fill="black" stroke="black" points="1043.69,-1248.03 1048.29,-1257.57 1050.64,-1247.24 1043.69,-1248.03"/>
</g>
<!-- karma_buf_values_internal&#45;&gt;karma_select_size -->
<g id="edge23" class="edge">
<title>karma_buf_values_internal&#45;&gt;karma_select_size</title>
<path fill="none" stroke="black" d="M913.2,-631.62C927.65,-633.27 942.2,-634.93 956.16,-636.52"/>
<polygon fill="black" stroke="black" points="955.38,-639.95 965.71,-637.61 956.17,-633 955.38,-639.95"/>
</g>
<!-- karma_setloop_internal&#45;&gt;karma_buf_values_internal -->
<g id="edge26" class="edge">
<title>karma_setloop_internal&#45;&gt;karma_buf_values_internal</title>
<path fill="none" stroke="black" d="M571.38,-655.96C602.92,-650.29 638.24,-643.94 670.99,-638.06"/>
<polygon fill="black" stroke="black" points="671.27,-641.56 680.49,-636.35 670.03,-634.67 671.27,-641.56"/>
</g>
<!-- karma_buf_change_internal&#45;&gt;karma_buf_values_internal -->
<g id="edge28" class="edge">
<title>karma_buf_change_internal&#45;&gt;karma_buf_values_internal</title>
<path fill="none" stroke="black" d="M578.68,-578.76C608.78,-584.37 641.78,-590.51 672.43,-596.21"/>
<polygon fill="black" stroke="black" points="671.64,-599.62 682.11,-598.01 672.92,-592.74 671.64,-599.62"/>
</g>
<!-- karma_buf_modify -->
<g id="node29" class="node">
<title>karma_buf_modify</title>
<path fill="#80ccee" stroke="none" d="M881.71,-1223.48C881.71,-1223.48 849.91,-1242.29 849.91,-1242.29 844.74,-1245.34 833.58,-1248.4 827.58,-1248.4 827.58,-1248.4 746.66,-1248.4 746.66,-1248.4 740.66,-1248.4 729.5,-1245.34 724.33,-1242.29 724.33,-1242.29 692.53,-1223.48 692.53,-1223.48 687.37,-1220.42 687.37,-1214.32 692.53,-1211.26 692.53,-1211.26 724.33,-1192.45 724.33,-1192.45 729.5,-1189.4 740.66,-1186.34 746.66,-1186.34 746.66,-1186.34 827.58,-1186.34 827.58,-1186.34 833.58,-1186.34 844.74,-1189.4 849.91,-1192.45 849.91,-1192.45 881.71,-1211.26 881.71,-1211.26 886.87,-1214.32 886.87,-1220.42 881.71,-1223.48"/>
<text xml:space="preserve" text-anchor="middle" x="787.12" y="-1219.07" font-family="Vera Sans Mono" font-size="14.00">karma_buf_modify</text>
<text xml:space="preserve" text-anchor="middle" x="787.12" y="-1204.07" font-family="Vera Sans Mono" font-size="14.00">766</text>
</g>
<!-- karma_quad_perform&#45;&gt;karma_buf_modify -->
<g id="edge35" class="edge">
<title>karma_quad_perform&#45;&gt;karma_buf_modify</title>
<path fill="none" stroke="black" d="M578.9,-925.06C592.28,-930.75 604.65,-938.6 614.31,-949.37 682.8,-1025.75 582.63,-1100.28 650.31,-1177.37 660.62,-1189.11 674.18,-1197.49 688.75,-1203.45"/>
<polygon fill="black" stroke="black" points="687.48,-1206.71 698.08,-1206.85 689.88,-1200.14 687.48,-1206.71"/>
</g>
<!-- ease_bufoff -->
<g id="node30" class="node">
<title>ease_bufoff</title>
<path fill="#80ccee" stroke="none" d="M848.73,-1145.29C848.73,-1145.29 831.45,-1160.48 831.45,-1160.48 826.94,-1164.44 816.43,-1168.4 810.43,-1168.4 810.43,-1168.4 763.8,-1168.4 763.8,-1168.4 757.8,-1168.4 747.3,-1164.44 742.79,-1160.48 742.79,-1160.48 725.51,-1145.29 725.51,-1145.29 721,-1141.33 721,-1133.41 725.51,-1129.45 725.51,-1129.45 742.79,-1114.26 742.79,-1114.26 747.3,-1110.3 757.8,-1106.34 763.8,-1106.34 763.8,-1106.34 810.43,-1106.34 810.43,-1106.34 816.43,-1106.34 826.94,-1110.3 831.45,-1114.26 831.45,-1114.26 848.73,-1129.45 848.73,-1129.45 853.24,-1133.41 853.24,-1141.33 848.73,-1145.29"/>
<text xml:space="preserve" text-anchor="middle" x="787.12" y="-1139.07" font-family="Vera Sans Mono" font-size="14.00">ease_bufoff</text>
<text xml:space="preserve" text-anchor="middle" x="787.12" y="-1124.07" font-family="Vera Sans Mono" font-size="14.00">274</text>
</g>
<!-- karma_quad_perform&#45;&gt;ease_bufoff -->
<g id="edge36" class="edge">
<title>karma_quad_perform&#45;&gt;ease_bufoff</title>
<path fill="none" stroke="black" d="M577.41,-925.5C591.17,-931.12 604.04,-938.83 614.31,-949.37 661.53,-997.87 603.6,-1048.37 650.31,-1097.37 666.34,-1114.19 689.05,-1124.04 711.32,-1129.78"/>
<polygon fill="black" stroke="black" points="710.53,-1133.19 721.06,-1132.01 712.09,-1126.36 710.53,-1133.19"/>
</g>
<!-- ease_bufon -->
<g id="node31" class="node">
<title>ease_bufon</title>
<path fill="#80ccee" stroke="none" d="M848.73,-1065.29C848.73,-1065.29 831.45,-1080.48 831.45,-1080.48 826.94,-1084.44 816.43,-1088.4 810.43,-1088.4 810.43,-1088.4 763.8,-1088.4 763.8,-1088.4 757.8,-1088.4 747.3,-1084.44 742.79,-1080.48 742.79,-1080.48 725.51,-1065.29 725.51,-1065.29 721,-1061.33 721,-1053.41 725.51,-1049.45 725.51,-1049.45 742.79,-1034.26 742.79,-1034.26 747.3,-1030.3 757.8,-1026.34 763.8,-1026.34 763.8,-1026.34 810.43,-1026.34 810.43,-1026.34 816.43,-1026.34 826.94,-1030.3 831.45,-1034.26 831.45,-1034.26 848.73,-1049.45 848.73,-1049.45 853.24,-1053.41 853.24,-1061.33 848.73,-1065.29"/>
<text xml:space="preserve" text-anchor="middle" x="787.12" y="-1059.07" font-family="Vera Sans Mono" font-size="14.00">ease_bufon</text>
<text xml:space="preserve" text-anchor="middle" x="787.12" y="-1044.07" font-family="Vera Sans Mono" font-size="14.00">307</text>
</g>
<!-- karma_quad_perform&#45;&gt;ease_bufon -->
<g id="edge37" class="edge">
<title>karma_quad_perform&#45;&gt;ease_bufon</title>
<path fill="none" stroke="black" d="M572.33,-926.85C587.41,-932.26 602.03,-939.55 614.31,-949.37 641.01,-970.73 623.83,-995.73 650.31,-1017.37 668.38,-1032.14 691.73,-1041.46 713.96,-1047.33"/>
<polygon fill="black" stroke="black" points="713.08,-1050.72 723.63,-1049.67 714.73,-1043.92 713.08,-1050.72"/>
</g>
<!-- interp_index -->
<g id="node32" class="node">
<title>interp_index</title>
<path fill="#80ccee" stroke="none" d="M851.05,-985.14C851.05,-985.14 832.8,-1000.63 832.8,-1000.63 828.23,-1004.51 817.66,-1008.4 811.66,-1008.4 811.66,-1008.4 762.58,-1008.4 762.58,-1008.4 756.58,-1008.4 746.01,-1004.51 741.43,-1000.63 741.43,-1000.63 723.19,-985.14 723.19,-985.14 718.62,-981.25 718.62,-973.49 723.19,-969.6 723.19,-969.6 741.43,-954.11 741.43,-954.11 746.01,-950.23 756.58,-946.34 762.58,-946.34 762.58,-946.34 811.66,-946.34 811.66,-946.34 817.66,-946.34 828.23,-950.23 832.8,-954.11 832.8,-954.11 851.05,-969.6 851.05,-969.6 855.62,-973.49 855.62,-981.25 851.05,-985.14"/>
<text xml:space="preserve" text-anchor="middle" x="787.12" y="-979.07" font-family="Vera Sans Mono" font-size="14.00">interp_index</text>
<text xml:space="preserve" text-anchor="middle" x="787.12" y="-964.07" font-family="Vera Sans Mono" font-size="14.00">382</text>
</g>
<!-- karma_quad_perform&#45;&gt;interp_index -->
<g id="edge38" class="edge">
<title>karma_quad_perform&#45;&gt;interp_index</title>
<path fill="none" stroke="black" d="M560.87,-929.67C610.3,-940.13 671.44,-953.08 717.54,-962.85"/>
<polygon fill="black" stroke="black" points="716.63,-966.23 727.14,-964.88 718.08,-959.38 716.63,-966.23"/>
</g>
<!-- LINEAR_INTERP -->
<g id="node33" class="node">
<title>LINEAR_INTERP</title>
<path fill="#ffffff" stroke="black" d="M867.33,-914.77C867.33,-914.77 843.97,-923.97 843.97,-923.97 838.39,-926.17 826.81,-928.37 820.81,-928.37 820.81,-928.37 753.43,-928.37 753.43,-928.37 747.43,-928.37 735.85,-926.17 730.27,-923.97 730.27,-923.97 706.91,-914.77 706.91,-914.77 701.33,-912.57 701.33,-908.17 706.91,-905.97 706.91,-905.97 730.27,-896.77 730.27,-896.77 735.85,-894.57 747.43,-892.37 753.43,-892.37 753.43,-892.37 820.81,-892.37 820.81,-892.37 826.81,-892.37 838.39,-894.57 843.97,-896.77 843.97,-896.77 867.33,-905.97 867.33,-905.97 872.91,-908.17 872.91,-912.57 867.33,-914.77"/>
<text xml:space="preserve" text-anchor="middle" x="787.12" y="-904.57" font-family="Vera Sans Mono" font-size="14.00">LINEAR_INTERP</text>
</g>
<!-- karma_quad_perform&#45;&gt;LINEAR_INTERP -->
<g id="edge39" class="edge">
<title>karma_quad_perform&#45;&gt;LINEAR_INTERP</title>
<path fill="none" stroke="black" d="M585.23,-911.01C617.33,-910.91 652.22,-910.8 683.78,-910.7"/>
<polygon fill="black" stroke="black" points="683.74,-914.2 693.73,-910.67 683.72,-907.2 683.74,-914.2"/>
</g>
<!-- CUBIC_INTERP -->
<g id="node34" class="node">
<title>CUBIC_INTERP</title>
<path fill="#ffffff" stroke="black" d="M862.35,-860.99C862.35,-860.99 841.35,-869.75 841.35,-869.75 835.81,-872.06 824.27,-874.37 818.27,-874.37 818.27,-874.37 755.97,-874.37 755.97,-874.37 749.97,-874.37 738.43,-872.06 732.89,-869.75 732.89,-869.75 711.89,-860.99 711.89,-860.99 706.35,-858.68 706.35,-854.06 711.89,-851.75 711.89,-851.75 732.89,-842.99 732.89,-842.99 738.43,-840.68 749.97,-838.37 755.97,-838.37 755.97,-838.37 818.27,-838.37 818.27,-838.37 824.27,-838.37 835.81,-840.68 841.35,-842.99 841.35,-842.99 862.35,-851.75 862.35,-851.75 867.89,-854.06 867.89,-858.68 862.35,-860.99"/>
<text xml:space="preserve" text-anchor="middle" x="787.12" y="-850.57" font-family="Vera Sans Mono" font-size="14.00">CUBIC_INTERP</text>
</g>
<!-- karma_quad_perform&#45;&gt;CUBIC_INTERP -->
<g id="edge40" class="edge">
<title>karma_quad_perform&#45;&gt;CUBIC_INTERP</title>
<path fill="none" stroke="black" d="M567.98,-894.87C614.99,-886.57 671.05,-876.68 714.57,-869"/>
<polygon fill="black" stroke="black" points="714.91,-872.49 724.15,-867.31 713.69,-865.6 714.91,-872.49"/>
</g>
<!-- SPLINE_INTERP -->
<g id="node35" class="node">
<title>SPLINE_INTERP</title>
<path fill="#ffffff" stroke="black" d="M866.77,-806.79C866.77,-806.79 843.68,-815.95 843.68,-815.95 838.1,-818.16 826.52,-820.37 820.52,-820.37 820.52,-820.37 753.71,-820.37 753.71,-820.37 747.71,-820.37 736.14,-818.16 730.56,-815.95 730.56,-815.95 707.46,-806.79 707.46,-806.79 701.89,-804.58 701.89,-800.16 707.46,-797.95 707.46,-797.95 730.56,-788.79 730.56,-788.79 736.14,-786.58 747.71,-784.37 753.71,-784.37 753.71,-784.37 820.52,-784.37 820.52,-784.37 826.52,-784.37 838.1,-786.58 843.68,-788.79 843.68,-788.79 866.77,-797.95 866.77,-797.95 872.35,-800.16 872.35,-804.58 866.77,-806.79"/>
<text xml:space="preserve" text-anchor="middle" x="787.12" y="-796.57" font-family="Vera Sans Mono" font-size="14.00">SPLINE_INTERP</text>
</g>
<!-- karma_quad_perform&#45;&gt;SPLINE_INTERP -->
<g id="edge41" class="edge">
<title>karma_quad_perform&#45;&gt;SPLINE_INTERP</title>
<path fill="none" stroke="black" d="M567.46,-894.81C583.85,-889.51 600.17,-882.54 614.31,-873.37 635.51,-859.62 628.65,-842.37 650.31,-829.37 664.93,-820.59 681.88,-814.6 698.75,-810.54"/>
<polygon fill="black" stroke="black" points="699.29,-814 708.32,-808.45 697.8,-807.16 699.29,-814"/>
</g>
<!-- ease_switchramp -->
<g id="node36" class="node">
<title>ease_switchramp</title>
<path fill="#80ccee" stroke="none" d="M876.35,-741.72C876.35,-741.72 847,-760.04 847,-760.04 841.91,-763.22 830.82,-766.4 824.82,-766.4 824.82,-766.4 749.42,-766.4 749.42,-766.4 743.42,-766.4 732.33,-763.22 727.24,-760.04 727.24,-760.04 697.89,-741.72 697.89,-741.72 692.8,-738.55 692.8,-732.19 697.89,-729.02 697.89,-729.02 727.24,-710.7 727.24,-710.7 732.33,-707.52 743.42,-704.34 749.42,-704.34 749.42,-704.34 824.82,-704.34 824.82,-704.34 830.82,-704.34 841.91,-707.52 847,-710.7 847,-710.7 876.35,-729.02 876.35,-729.02 881.44,-732.19 881.44,-738.55 876.35,-741.72"/>
<text xml:space="preserve" text-anchor="middle" x="787.12" y="-737.07" font-family="Vera Sans Mono" font-size="14.00">ease_switchramp</text>
<text xml:space="preserve" text-anchor="middle" x="787.12" y="-722.07" font-family="Vera Sans Mono" font-size="14.00">245</text>
</g>
<!-- karma_quad_perform&#45;&gt;ease_switchramp -->
<g id="edge42" class="edge">
<title>karma_quad_perform&#45;&gt;ease_switchramp</title>
<path fill="none" stroke="black" d="M574.94,-896.73C589.36,-891.2 603.09,-883.66 614.31,-873.37 648.51,-842.01 616.44,-807.09 650.31,-775.37 662.74,-763.72 678.4,-755.45 694.63,-749.58"/>
<polygon fill="black" stroke="black" points="695.5,-752.98 703.9,-746.53 693.31,-746.33 695.5,-752.98"/>
</g>
<!-- ease_record -->
<g id="node37" class="node">
<title>ease_record</title>
<path fill="#80ccee" stroke="none" d="M852.21,-1305.06C852.21,-1305.06 833.48,-1320.7 833.48,-1320.7 828.87,-1324.55 818.27,-1328.4 812.27,-1328.4 812.27,-1328.4 761.97,-1328.4 761.97,-1328.4 755.97,-1328.4 745.36,-1324.55 740.76,-1320.7 740.76,-1320.7 722.03,-1305.06 722.03,-1305.06 717.42,-1301.22 717.42,-1293.52 722.03,-1289.68 722.03,-1289.68 740.76,-1274.04 740.76,-1274.04 745.36,-1270.19 755.97,-1266.34 761.97,-1266.34 761.97,-1266.34 812.27,-1266.34 812.27,-1266.34 818.27,-1266.34 828.87,-1270.19 833.48,-1274.04 833.48,-1274.04 852.21,-1289.68 852.21,-1289.68 856.81,-1293.52 856.81,-1301.22 852.21,-1305.06"/>
<text xml:space="preserve" text-anchor="middle" x="787.12" y="-1299.07" font-family="Vera Sans Mono" font-size="14.00">ease_record</text>
<text xml:space="preserve" text-anchor="middle" x="787.12" y="-1284.07" font-family="Vera Sans Mono" font-size="14.00">237</text>
</g>
<!-- karma_quad_perform&#45;&gt;ease_record -->
<g id="edge43" class="edge">
<title>karma_quad_perform&#45;&gt;ease_record</title>
<path fill="none" stroke="black" d="M579.64,-924.86C592.83,-930.59 604.95,-938.5 614.31,-949.37 704.24,-1053.81 561.48,-1151.99 650.31,-1257.37 664.68,-1274.41 685.91,-1284.4 707.34,-1290.19"/>
<polygon fill="black" stroke="black" points="706.52,-1293.6 717.05,-1292.51 708.14,-1286.79 706.52,-1293.6"/>
</g>
<!-- karma_stereo_perform&#45;&gt;karma_buf_modify -->
<g id="edge46" class="edge">
<title>karma_stereo_perform&#45;&gt;karma_buf_modify</title>
<path fill="none" stroke="black" d="M579.22,-1002.17C592.31,-1007.73 604.51,-1015.25 614.31,-1025.37 662.59,-1075.26 602.56,-1126.98 650.31,-1177.37 661.23,-1188.9 675.28,-1197.15 690.2,-1203.05"/>
<polygon fill="black" stroke="black" points="688.61,-1206.2 699.21,-1206.27 690.96,-1199.61 688.61,-1206.2"/>
</g>
<!-- karma_stereo_perform&#45;&gt;ease_bufoff -->
<g id="edge47" class="edge">
<title>karma_stereo_perform&#45;&gt;ease_bufoff</title>
<path fill="none" stroke="black" d="M574.69,-1003.4C588.98,-1008.76 602.73,-1015.89 614.31,-1025.37 641.99,-1048.04 622.87,-1074.41 650.31,-1097.37 668.21,-1112.35 691.51,-1121.72 713.75,-1127.58"/>
<polygon fill="black" stroke="black" points="712.89,-1130.97 723.43,-1129.91 714.53,-1124.17 712.89,-1130.97"/>
</g>
<!-- karma_stereo_perform&#45;&gt;ease_bufon -->
<g id="edge48" class="edge">
<title>karma_stereo_perform&#45;&gt;ease_bufon</title>
<path fill="none" stroke="black" d="M560.87,-1006.78C611.13,-1018.06 673.5,-1032.07 719.86,-1042.49"/>
<polygon fill="black" stroke="black" points="718.98,-1045.88 729.5,-1044.65 720.51,-1039.05 718.98,-1045.88"/>
</g>
<!-- karma_stereo_perform&#45;&gt;interp_index -->
<g id="edge49" class="edge">
<title>karma_stereo_perform&#45;&gt;interp_index</title>
<path fill="none" stroke="black" d="M590.97,-983.63C629.19,-982.41 670.78,-981.07 705.72,-979.95"/>
<polygon fill="black" stroke="black" points="705.42,-983.46 715.3,-979.64 705.19,-976.47 705.42,-983.46"/>
</g>
<!-- karma_stereo_perform&#45;&gt;LINEAR_INTERP -->
<g id="edge50" class="edge">
<title>karma_stereo_perform&#45;&gt;LINEAR_INTERP</title>
<path fill="none" stroke="black" d="M554.93,-966.34C574.43,-961.01 595.16,-955.16 614.31,-949.37 630.45,-944.49 634.01,-941.69 650.31,-937.37 669.92,-932.17 691.37,-927.47 711.3,-923.5"/>
<polygon fill="black" stroke="black" points="711.89,-926.95 721.03,-921.59 710.55,-920.08 711.89,-926.95"/>
</g>
<!-- karma_stereo_perform&#45;&gt;CUBIC_INTERP -->
<g id="edge51" class="edge">
<title>karma_stereo_perform&#45;&gt;CUBIC_INTERP</title>
<path fill="none" stroke="black" d="M574.03,-971.1C588.49,-965.78 602.46,-958.72 614.31,-949.37 640.53,-928.66 623.39,-903.16 650.31,-883.37 664.05,-873.27 680.61,-866.69 697.37,-862.46"/>
<polygon fill="black" stroke="black" points="697.91,-865.93 706.91,-860.34 696.38,-859.1 697.91,-865.93"/>
</g>
<!-- karma_stereo_perform&#45;&gt;SPLINE_INTERP -->
<g id="edge52" class="edge">
<title>karma_stereo_perform&#45;&gt;SPLINE_INTERP</title>
<path fill="none" stroke="black" d="M578.33,-972.18C591.63,-966.68 604.13,-959.29 614.31,-949.37 654.19,-910.51 609.11,-866.82 650.31,-829.37 661.69,-819.03 675.86,-812.16 690.72,-807.69"/>
<polygon fill="black" stroke="black" points="691.38,-811.14 700.17,-805.23 689.61,-804.37 691.38,-811.14"/>
</g>
<!-- karma_stereo_perform&#45;&gt;ease_switchramp -->
<g id="edge53" class="edge">
<title>karma_stereo_perform&#45;&gt;ease_switchramp</title>
<path fill="none" stroke="black" d="M579.84,-972.67C592.75,-967.09 604.74,-959.54 614.31,-949.37 668.41,-891.84 596.81,-833.46 650.31,-775.37 661.71,-762.98 676.74,-754.36 692.63,-748.38"/>
<polygon fill="black" stroke="black" points="693.38,-751.82 701.73,-745.3 691.14,-745.19 693.38,-751.82"/>
</g>
<!-- karma_stereo_perform&#45;&gt;ease_record -->
<g id="edge54" class="edge">
<title>karma_stereo_perform&#45;&gt;ease_record</title>
<path fill="none" stroke="black" d="M581.01,-1001.94C593.58,-1007.56 605.17,-1015.15 614.31,-1025.37 683.87,-1103.15 581.57,-1178.86 650.31,-1257.37 664.99,-1274.14 686.32,-1284.05 707.73,-1289.85"/>
<polygon fill="black" stroke="black" points="706.9,-1293.25 717.44,-1292.18 708.53,-1286.44 706.9,-1293.25"/>
</g>
<!-- karma_mono_perform&#45;&gt;karma_buf_modify -->
<g id="edge55" class="edge">
<title>karma_mono_perform&#45;&gt;karma_buf_modify</title>
<path fill="none" stroke="black" d="M512.07,-1092.35C546.46,-1117.71 599.57,-1154.05 650.31,-1177.37 666.4,-1184.77 684.19,-1191.17 701.45,-1196.55"/>
<polygon fill="black" stroke="black" points="700.07,-1199.79 710.66,-1199.33 702.1,-1193.09 700.07,-1199.79"/>
</g>
<!-- karma_mono_perform&#45;&gt;ease_bufoff -->
<g id="edge56" class="edge">
<title>karma_mono_perform&#45;&gt;ease_bufoff</title>
<path fill="none" stroke="black" d="M557.99,-1083.2C608.9,-1095.29 673.04,-1110.52 720.34,-1121.75"/>
<polygon fill="black" stroke="black" points="719.36,-1125.11 729.9,-1124.02 720.98,-1118.3 719.36,-1125.11"/>
</g>
<!-- karma_mono_perform&#45;&gt;ease_bufon -->
<g id="edge57" class="edge">
<title>karma_mono_perform&#45;&gt;ease_bufon</title>
<path fill="none" stroke="black" d="M588.75,-1061.17C627.94,-1060.42 670.91,-1059.59 706.72,-1058.9"/>
<polygon fill="black" stroke="black" points="706.64,-1062.4 716.57,-1058.71 706.5,-1055.4 706.64,-1062.4"/>
</g>
<!-- karma_mono_perform&#45;&gt;interp_index -->
<g id="edge58" class="edge">
<title>karma_mono_perform&#45;&gt;interp_index</title>
<path fill="none" stroke="black" d="M552.53,-1042.26C572.67,-1036.79 594.3,-1030.88 614.31,-1025.37 649.56,-1015.65 688.85,-1004.69 720.94,-995.7"/>
<polygon fill="black" stroke="black" points="721.84,-999.08 730.52,-993.01 719.95,-992.34 721.84,-999.08"/>
</g>
<!-- karma_mono_perform&#45;&gt;LINEAR_INTERP -->
<g id="edge59" class="edge">
<title>karma_mono_perform&#45;&gt;LINEAR_INTERP</title>
<path fill="none" stroke="black" d="M575.34,-1048.1C589.54,-1042.64 603.09,-1035.28 614.31,-1025.37 645.97,-997.38 617.7,-964.25 650.31,-937.37 662.32,-927.47 676.96,-920.84 692.11,-916.48"/>
<polygon fill="black" stroke="black" points="692.89,-919.89 701.74,-914.06 691.18,-913.1 692.89,-919.89"/>
</g>
<!-- karma_mono_perform&#45;&gt;CUBIC_INTERP -->
<g id="edge60" class="edge">
<title>karma_mono_perform&#45;&gt;CUBIC_INTERP</title>
<path fill="none" stroke="black" d="M578.38,-1048.72C591.75,-1043.15 604.26,-1035.6 614.31,-1025.37 659.95,-978.94 603.09,-928.19 650.31,-883.37 662,-872.28 676.87,-865.14 692.47,-860.65"/>
<polygon fill="black" stroke="black" points="693.02,-864.12 701.88,-858.31 691.33,-857.33 693.02,-864.12"/>
</g>
<!-- karma_mono_perform&#45;&gt;SPLINE_INTERP -->
<g id="edge61" class="edge">
<title>karma_mono_perform&#45;&gt;SPLINE_INTERP</title>
<path fill="none" stroke="black" d="M579.7,-1049.02C592.72,-1043.39 604.77,-1035.74 614.31,-1025.37 674.26,-960.18 588.14,-892.45 650.31,-829.37 660.8,-818.73 674.2,-811.66 688.48,-807.06"/>
<polygon fill="black" stroke="black" points="689.37,-810.45 698.08,-804.41 687.51,-803.7 689.37,-810.45"/>
</g>
<!-- karma_mono_perform&#45;&gt;ease_switchramp -->
<g id="edge62" class="edge">
<title>karma_mono_perform&#45;&gt;ease_switchramp</title>
<path fill="none" stroke="black" d="M580.42,-1049.2C593.25,-1043.54 605.06,-1035.83 614.31,-1025.37 688.69,-941.29 576.82,-860.23 650.31,-775.37 661.26,-762.72 676,-753.97 691.73,-747.94"/>
<polygon fill="black" stroke="black" points="692.42,-751.4 700.74,-744.84 690.15,-744.78 692.42,-751.4"/>
</g>
<!-- karma_mono_perform&#45;&gt;ease_record -->
<g id="edge63" class="edge">
<title>karma_mono_perform&#45;&gt;ease_record</title>
<path fill="none" stroke="black" d="M492.97,-1092.31C521.58,-1134.76 580.62,-1213.63 650.31,-1257.37 669.54,-1269.44 692.59,-1278.01 714.18,-1284.03"/>
<polygon fill="black" stroke="black" points="713.29,-1287.42 723.85,-1286.57 715.07,-1280.65 713.29,-1287.42"/>
</g>
<!-- karma_buf_modify&#45;&gt;karma_select_start -->
<g id="edge44" class="edge">
<title>karma_buf_modify&#45;&gt;karma_select_start</title>
<path fill="none" stroke="black" d="M860.06,-1236.22C894.69,-1245.3 936.31,-1256.21 971.88,-1265.53"/>
<polygon fill="black" stroke="black" points="970.68,-1268.84 981.25,-1267.99 972.46,-1262.07 970.68,-1268.84"/>
</g>
<!-- karma_buf_modify&#45;&gt;karma_select_size -->
<g id="edge45" class="edge">
<title>karma_buf_modify&#45;&gt;karma_select_size</title>
<path fill="none" stroke="black" d="M873.57,-1206.74C892.27,-1200.75 910.47,-1191.53 923.93,-1177.37 992.35,-1105.41 1034.24,-795.28 1047.12,-685.81"/>
<polygon fill="black" stroke="black" points="1050.57,-686.51 1048.24,-676.17 1043.61,-685.7 1050.57,-686.51"/>
</g>
</g>
</svg>
