<?xml version="1.0" encoding="UTF-8" standalone="no"?>
<!DOCTYPE svg PUBLIC "-//W3C//DTD SVG 1.1//EN"
 "http://www.w3.org/Graphics/SVG/1.1/DTD/svg11.dtd">
<!-- Generated by graphviz version 13.1.2 (20250808.2320)
 -->
<!-- Pages: 1 -->
<svg width="2601pt" height="2087pt"
 viewBox="0.00 0.00 2601.00 2087.00" xmlns="http://www.w3.org/2000/svg" xmlns:xlink="http://www.w3.org/1999/xlink">
<g id="graph0" class="graph" transform="scale(1 1) rotate(0) translate(4 2082.8)">
<polygon fill="white" stroke="none" points="-4,4 -4,-2082.8 2596.54,-2082.8 2596.54,4 -4,4"/>
<text xml:space="preserve" text-anchor="middle" x="1296.27" y="-7.2" font-family="Times,serif" font-size="14.00">source/projects/karma_re_tilde/karma_re~.c</text>
<!-- ext_main -->
<g id="node1" class="node">
<title>ext_main</title>
<path fill="#eecc80" stroke="none" d="M127,-1447.72C127,-1447.72 79.5,-1447.72 79.5,-1447.72 73.5,-1447.72 67.5,-1441.72 67.5,-1435.72 67.5,-1435.72 67.5,-1421.72 67.5,-1421.72 67.5,-1415.72 73.5,-1409.72 79.5,-1409.72 79.5,-1409.72 127,-1409.72 127,-1409.72 133,-1409.72 139,-1415.72 139,-1421.72 139,-1421.72 139,-1435.72 139,-1435.72 139,-1441.72 133,-1447.72 127,-1447.72"/>
<text xml:space="preserve" text-anchor="middle" x="103.25" y="-1430.42" font-family="Vera Sans Mono" font-size="14.00">ext_main</text>
<text xml:space="preserve" text-anchor="middle" x="103.25" y="-1415.42" font-family="Vera Sans Mono" font-size="14.00">765</text>
</g>
<!-- karma_new -->
<g id="node2" class="node">
<title>karma_new</title>
<ellipse fill="#eecc80" stroke="none" cx="337.08" cy="-2049.72" rx="61.66" ry="27.37"/>
<text xml:space="preserve" text-anchor="middle" x="337.08" y="-2051.42" font-family="Vera Sans Mono" font-size="14.00">karma_new</text>
<text xml:space="preserve" text-anchor="middle" x="337.08" y="-2036.42" font-family="Vera Sans Mono" font-size="14.00">830</text>
</g>
<!-- ext_main&#45;&gt;karma_new -->
<g id="edge1" class="edge">
<title>ext_main&#45;&gt;karma_new</title>
<path fill="none" stroke="black" d="M138.67,-1428.49C161.58,-1430.34 190.34,-1436.89 206.5,-1456.72 284.88,-1552.85 169.02,-1913.79 242.5,-2013.72 249.46,-2023.18 259.24,-2030.15 269.88,-2035.29"/>
<polygon fill="black" stroke="black" points="268.32,-2038.43 278.89,-2039.09 271.04,-2031.98 268.32,-2038.43"/>
</g>
<!-- karma_free -->
<g id="node3" class="node">
<title>karma_free</title>
<ellipse fill="#eecc80" stroke="none" cx="337.08" cy="-1977.72" rx="60.61" ry="27.37"/>
<text xml:space="preserve" text-anchor="middle" x="337.08" y="-1979.42" font-family="Vera Sans Mono" font-size="14.00">karma_free</text>
<text xml:space="preserve" text-anchor="middle" x="337.08" y="-1964.42" font-family="Vera Sans Mono" font-size="14.00">980</text>
</g>
<!-- ext_main&#45;&gt;karma_free -->
<g id="edge2" class="edge">
<title>ext_main&#45;&gt;karma_free</title>
<path fill="none" stroke="black" d="M138.61,-1428.54C161.49,-1430.41 190.24,-1436.97 206.5,-1456.72 275.2,-1540.15 178.06,-1854.96 242.5,-1941.72 249.58,-1951.25 259.53,-1958.26 270.32,-1963.41"/>
<polygon fill="black" stroke="black" points="268.88,-1966.6 279.45,-1967.22 271.57,-1960.14 268.88,-1966.6"/>
</g>
<!-- karma_select_start -->
<g id="node4" class="node">
<title>karma_select_start</title>
<ellipse fill="#eecc80" stroke="none" cx="1447.48" cy="-1534.72" rx="92.96" ry="27.37"/>
<text xml:space="preserve" text-anchor="middle" x="1447.48" y="-1536.42" font-family="Vera Sans Mono" font-size="14.00">karma_select_start</text>
<text xml:space="preserve" text-anchor="middle" x="1447.48" y="-1521.42" font-family="Vera Sans Mono" font-size="14.00">1652</text>
</g>
<!-- ext_main&#45;&gt;karma_select_start -->
<g id="edge3" class="edge">
<title>ext_main&#45;&gt;karma_select_start</title>
<path fill="none" stroke="black" d="M138.64,-1429.49C160.93,-1431.84 188.99,-1438.58 206.5,-1456.72 254.73,-1506.65 188.05,-1565.66 242.5,-1608.72 328.73,-1676.91 1083.55,-1583.45 1352.13,-1547.64"/>
<polygon fill="black" stroke="black" points="1352.45,-1551.13 1361.89,-1546.34 1351.52,-1544.19 1352.45,-1551.13"/>
</g>
<!-- karma_select_size -->
<g id="node5" class="node">
<title>karma_select_size</title>
<ellipse fill="#eecc80" stroke="none" cx="1447.48" cy="-1716.72" rx="91.36" ry="27.37"/>
<text xml:space="preserve" text-anchor="middle" x="1447.48" y="-1718.42" font-family="Vera Sans Mono" font-size="14.00">karma_select_size</text>
<text xml:space="preserve" text-anchor="middle" x="1447.48" y="-1703.42" font-family="Vera Sans Mono" font-size="14.00">1697</text>
</g>
<!-- ext_main&#45;&gt;karma_select_size -->
<g id="edge4" class="edge">
<title>ext_main&#45;&gt;karma_select_size</title>
<path fill="none" stroke="black" d="M138.87,-1428.79C161.56,-1430.8 189.98,-1437.43 206.5,-1456.72 298.75,-1564.41 149.45,-1666.73 242.5,-1773.72 310.32,-1851.69 365.14,-1818.73 467.65,-1831.72 803.67,-1874.3 1205.29,-1782.27 1370.16,-1738.34"/>
<polygon fill="black" stroke="black" points="1370.93,-1741.76 1379.68,-1735.79 1369.11,-1735 1370.93,-1741.76"/>
</g>
<!-- karma_jump -->
<g id="node6" class="node">
<title>karma_jump</title>
<ellipse fill="#eecc80" stroke="none" cx="337.08" cy="-1500.72" rx="65.38" ry="27.37"/>
<text xml:space="preserve" text-anchor="middle" x="337.08" y="-1502.42" font-family="Vera Sans Mono" font-size="14.00">karma_jump</text>
<text xml:space="preserve" text-anchor="middle" x="337.08" y="-1487.42" font-family="Vera Sans Mono" font-size="14.00">1868</text>
</g>
<!-- ext_main&#45;&gt;karma_jump -->
<g id="edge5" class="edge">
<title>ext_main&#45;&gt;karma_jump</title>
<path fill="none" stroke="black" d="M138.95,-1437.67C158.81,-1442.93 184.15,-1449.87 206.5,-1456.72 229.43,-1463.74 254.43,-1472.07 276.29,-1479.58"/>
<polygon fill="black" stroke="black" points="275.06,-1482.86 285.65,-1482.81 277.34,-1476.24 275.06,-1482.86"/>
</g>
<!-- karma_stop -->
<g id="node7" class="node">
<title>karma_stop</title>
<ellipse fill="#eecc80" stroke="none" cx="337.08" cy="-1428.72" rx="62.2" ry="27.37"/>
<text xml:space="preserve" text-anchor="middle" x="337.08" y="-1430.42" font-family="Vera Sans Mono" font-size="14.00">karma_stop</text>
<text xml:space="preserve" text-anchor="middle" x="337.08" y="-1415.42" font-family="Vera Sans Mono" font-size="14.00">1736</text>
</g>
<!-- ext_main&#45;&gt;karma_stop -->
<g id="edge6" class="edge">
<title>ext_main&#45;&gt;karma_stop</title>
<path fill="none" stroke="black" d="M138.96,-1428.72C171.75,-1428.72 221.96,-1428.72 263.5,-1428.72"/>
<polygon fill="black" stroke="black" points="263.45,-1432.22 273.45,-1428.72 263.45,-1425.22 263.45,-1432.22"/>
</g>
<!-- karma_play -->
<g id="node8" class="node">
<title>karma_play</title>
<ellipse fill="#eecc80" stroke="none" cx="337.08" cy="-1356.72" rx="61.66" ry="27.37"/>
<text xml:space="preserve" text-anchor="middle" x="337.08" y="-1358.42" font-family="Vera Sans Mono" font-size="14.00">karma_play</text>
<text xml:space="preserve" text-anchor="middle" x="337.08" y="-1343.42" font-family="Vera Sans Mono" font-size="14.00">1749</text>
</g>
<!-- ext_main&#45;&gt;karma_play -->
<g id="edge7" class="edge">
<title>ext_main&#45;&gt;karma_play</title>
<path fill="none" stroke="black" d="M138.96,-1417.94C175.06,-1406.73 232.27,-1388.96 275.78,-1375.45"/>
<polygon fill="black" stroke="black" points="276.57,-1378.87 285.08,-1372.56 274.49,-1372.18 276.57,-1378.87"/>
</g>
<!-- karma_record -->
<g id="node9" class="node">
<title>karma_record</title>
<ellipse fill="#eecc80" stroke="none" cx="337.08" cy="-1284.72" rx="71.21" ry="27.37"/>
<text xml:space="preserve" text-anchor="middle" x="337.08" y="-1286.42" font-family="Vera Sans Mono" font-size="14.00">karma_record</text>
<text xml:space="preserve" text-anchor="middle" x="337.08" y="-1271.42" font-family="Vera Sans Mono" font-size="14.00">1784</text>
</g>
<!-- ext_main&#45;&gt;karma_record -->
<g id="edge8" class="edge">
<title>ext_main&#45;&gt;karma_record</title>
<path fill="none" stroke="black" d="M124.41,-1409.8C150.18,-1386.41 196.92,-1346.53 242.5,-1320.72 251.83,-1315.44 262.09,-1310.61 272.29,-1306.33"/>
<polygon fill="black" stroke="black" points="273.49,-1309.62 281.45,-1302.63 270.87,-1303.13 273.49,-1309.62"/>
</g>
<!-- karma_append -->
<g id="node10" class="node">
<title>karma_append</title>
<ellipse fill="#eecc80" stroke="none" cx="337.08" cy="-1212.72" rx="75.98" ry="27.37"/>
<text xml:space="preserve" text-anchor="middle" x="337.08" y="-1214.42" font-family="Vera Sans Mono" font-size="14.00">karma_append</text>
<text xml:space="preserve" text-anchor="middle" x="337.08" y="-1199.42" font-family="Vera Sans Mono" font-size="14.00">1839</text>
</g>
<!-- ext_main&#45;&gt;karma_append -->
<g id="edge9" class="edge">
<title>ext_main&#45;&gt;karma_append</title>
<path fill="none" stroke="black" d="M114.03,-1409.93C133.69,-1373.84 181.42,-1294.35 242.5,-1248.72 250.02,-1243.1 258.52,-1238.26 267.26,-1234.1"/>
<polygon fill="black" stroke="black" points="268.46,-1237.4 276.19,-1230.16 265.63,-1231 268.46,-1237.4"/>
</g>
<!-- karma_resetloop -->
<g id="node11" class="node">
<title>karma_resetloop</title>
<ellipse fill="#eecc80" stroke="none" cx="590.11" cy="-1795.72" rx="83.41" ry="27.37"/>
<text xml:space="preserve" text-anchor="middle" x="590.11" y="-1797.42" font-family="Vera Sans Mono" font-size="14.00">karma_resetloop</text>
<text xml:space="preserve" text-anchor="middle" x="590.11" y="-1782.42" font-family="Vera Sans Mono" font-size="14.00">1490</text>
</g>
<!-- ext_main&#45;&gt;karma_resetloop -->
<g id="edge10" class="edge">
<title>ext_main&#45;&gt;karma_resetloop</title>
<path fill="none" stroke="black" d="M138.73,-1428.91C161.35,-1430.98 189.76,-1437.62 206.5,-1456.72 284.28,-1545.43 162.47,-1633.03 242.5,-1719.72 306.63,-1789.18 418.42,-1802.67 497.69,-1802.34"/>
<polygon fill="black" stroke="black" points="497.67,-1805.84 507.62,-1802.22 497.58,-1798.84 497.67,-1805.84"/>
</g>
<!-- karma_setloop -->
<g id="node12" class="node">
<title>karma_setloop</title>
<ellipse fill="#eecc80" stroke="none" cx="337.08" cy="-1683.72" rx="74.92" ry="27.37"/>
<text xml:space="preserve" text-anchor="middle" x="337.08" y="-1685.42" font-family="Vera Sans Mono" font-size="14.00">karma_setloop</text>
<text xml:space="preserve" text-anchor="middle" x="337.08" y="-1670.42" font-family="Vera Sans Mono" font-size="14.00">1453</text>
</g>
<!-- ext_main&#45;&gt;karma_setloop -->
<g id="edge11" class="edge">
<title>ext_main&#45;&gt;karma_setloop</title>
<path fill="none" stroke="black" d="M138.88,-1429.26C161.28,-1431.51 189.35,-1438.23 206.5,-1456.72 263.47,-1518.13 190.45,-1576.09 242.5,-1641.72 249.16,-1650.11 257.84,-1656.87 267.25,-1662.31"/>
<polygon fill="black" stroke="black" points="265.42,-1665.3 275.9,-1666.82 268.65,-1659.1 265.42,-1665.3"/>
</g>
<!-- karma_buf_change -->
<g id="node13" class="node">
<title>karma_buf_change</title>
<ellipse fill="#eecc80" stroke="none" cx="337.08" cy="-1905.72" rx="94.01" ry="27.37"/>
<text xml:space="preserve" text-anchor="middle" x="337.08" y="-1907.42" font-family="Vera Sans Mono" font-size="14.00">karma_buf_change</text>
<text xml:space="preserve" text-anchor="middle" x="337.08" y="-1892.42" font-family="Vera Sans Mono" font-size="14.00">1251</text>
</g>
<!-- ext_main&#45;&gt;karma_buf_change -->
<g id="edge12" class="edge">
<title>ext_main&#45;&gt;karma_buf_change</title>
<path fill="none" stroke="black" d="M138.53,-1428.61C161.37,-1430.51 190.1,-1437.08 206.5,-1456.72 264.84,-1526.58 189.4,-1790.8 242.5,-1864.72 247.02,-1871.01 252.72,-1876.35 259.07,-1880.87"/>
<polygon fill="black" stroke="black" points="257.15,-1883.8 267.49,-1886.14 260.87,-1877.87 257.15,-1883.8"/>
</g>
<!-- karma_overdub -->
<g id="node14" class="node">
<title>karma_overdub</title>
<ellipse fill="#eecc80" stroke="none" cx="337.08" cy="-1140.72" rx="78.64" ry="27.37"/>
<text xml:space="preserve" text-anchor="middle" x="337.08" y="-1142.42" font-family="Vera Sans Mono" font-size="14.00">karma_overdub</text>
<text xml:space="preserve" text-anchor="middle" x="337.08" y="-1127.42" font-family="Vera Sans Mono" font-size="14.00">1862</text>
</g>
<!-- ext_main&#45;&gt;karma_overdub -->
<g id="edge13" class="edge">
<title>ext_main&#45;&gt;karma_overdub</title>
<path fill="none" stroke="black" d="M109.56,-1410.04C123.57,-1363.95 165.85,-1243.7 242.5,-1176.72 249.05,-1171 256.6,-1166.14 264.51,-1162.03"/>
<polygon fill="black" stroke="black" points="265.78,-1165.3 273.32,-1157.86 262.78,-1158.98 265.78,-1165.3"/>
</g>
<!-- karma_float -->
<g id="node15" class="node">
<title>karma_float</title>
<ellipse fill="#eecc80" stroke="none" cx="337.08" cy="-1068.72" rx="62.2" ry="27.37"/>
<text xml:space="preserve" text-anchor="middle" x="337.08" y="-1070.42" font-family="Vera Sans Mono" font-size="14.00">karma_float</text>
<text xml:space="preserve" text-anchor="middle" x="337.08" y="-1055.42" font-family="Vera Sans Mono" font-size="14.00">1642</text>
</g>
<!-- ext_main&#45;&gt;karma_float -->
<g id="edge14" class="edge">
<title>ext_main&#45;&gt;karma_float</title>
<path fill="none" stroke="black" d="M107.09,-1409.73C116.25,-1354.79 150.07,-1193.88 242.5,-1104.72 250.86,-1096.66 261.21,-1090.36 271.95,-1085.44"/>
<polygon fill="black" stroke="black" points="273.02,-1088.79 280.92,-1081.72 270.34,-1082.32 273.02,-1088.79"/>
</g>
<!-- karma_dsp64 -->
<g id="node16" class="node">
<title>karma_dsp64</title>
<ellipse fill="#eecc80" stroke="none" cx="337.08" cy="-1572.72" rx="70.15" ry="27.37"/>
<text xml:space="preserve" text-anchor="middle" x="337.08" y="-1574.42" font-family="Vera Sans Mono" font-size="14.00">karma_dsp64</text>
<text xml:space="preserve" text-anchor="middle" x="337.08" y="-1559.42" font-family="Vera Sans Mono" font-size="14.00">1920</text>
</g>
<!-- ext_main&#45;&gt;karma_dsp64 -->
<g id="edge15" class="edge">
<title>ext_main&#45;&gt;karma_dsp64</title>
<path fill="none" stroke="black" d="M138.53,-1430.75C160.22,-1433.66 187.62,-1440.57 206.5,-1456.72 236.13,-1482.06 214.18,-1509.93 242.5,-1536.72 249.67,-1543.5 258.25,-1549.04 267.26,-1553.56"/>
<polygon fill="black" stroke="black" points="265.65,-1556.67 276.2,-1557.61 268.54,-1550.29 265.65,-1556.67"/>
</g>
<!-- karma_assist -->
<g id="node17" class="node">
<title>karma_assist</title>
<ellipse fill="#eecc80" stroke="none" cx="337.08" cy="-996.72" rx="68.56" ry="27.37"/>
<text xml:space="preserve" text-anchor="middle" x="337.08" y="-998.42" font-family="Vera Sans Mono" font-size="14.00">karma_assist</text>
<text xml:space="preserve" text-anchor="middle" x="337.08" y="-983.42" font-family="Vera Sans Mono" font-size="14.00">1573</text>
</g>
<!-- ext_main&#45;&gt;karma_assist -->
<g id="edge16" class="edge">
<title>ext_main&#45;&gt;karma_assist</title>
<path fill="none" stroke="black" d="M105.37,-1410.15C110.09,-1348.05 133.55,-1145.15 242.5,-1032.72 249.62,-1025.38 258.4,-1019.51 267.7,-1014.82"/>
<polygon fill="black" stroke="black" points="268.9,-1018.12 276.57,-1010.81 266.01,-1011.74 268.9,-1018.12"/>
</g>
<!-- karma_buf_dblclick -->
<g id="node18" class="node">
<title>karma_buf_dblclick</title>
<ellipse fill="#eecc80" stroke="none" cx="337.08" cy="-924.72" rx="94.01" ry="27.37"/>
<text xml:space="preserve" text-anchor="middle" x="337.08" y="-926.42" font-family="Vera Sans Mono" font-size="14.00">karma_buf_dblclick</text>
<text xml:space="preserve" text-anchor="middle" x="337.08" y="-911.42" font-family="Vera Sans Mono" font-size="14.00">992</text>
</g>
<!-- ext_main&#45;&gt;karma_buf_dblclick -->
<g id="edge17" class="edge">
<title>ext_main&#45;&gt;karma_buf_dblclick</title>
<path fill="none" stroke="black" d="M104.21,-1409.82C105.06,-1340.38 117.23,-1096.44 242.5,-960.72 246.89,-955.97 251.97,-951.84 257.46,-948.24"/>
<polygon fill="black" stroke="black" points="258.82,-951.5 265.72,-943.46 255.31,-945.45 258.82,-951.5"/>
</g>
<!-- karma_buf_notify -->
<g id="node19" class="node">
<title>karma_buf_notify</title>
<ellipse fill="#eecc80" stroke="none" cx="337.08" cy="-852.72" rx="85.53" ry="27.37"/>
<text xml:space="preserve" text-anchor="middle" x="337.08" y="-854.42" font-family="Vera Sans Mono" font-size="14.00">karma_buf_notify</text>
<text xml:space="preserve" text-anchor="middle" x="337.08" y="-839.42" font-family="Vera Sans Mono" font-size="14.00">1905</text>
</g>
<!-- ext_main&#45;&gt;karma_buf_notify -->
<g id="edge18" class="edge">
<title>ext_main&#45;&gt;karma_buf_notify</title>
<path fill="none" stroke="black" d="M106.74,-1409.89C118.41,-1323.98 170.3,-969.88 242.5,-888.72 247.29,-883.34 252.97,-878.76 259.13,-874.86"/>
<polygon fill="black" stroke="black" points="260.79,-877.94 267.82,-870.02 257.38,-871.83 260.79,-877.94"/>
</g>
<!-- karma_syncout_set -->
<g id="node20" class="node">
<title>karma_syncout_set</title>
<ellipse fill="#eecc80" stroke="none" cx="337.08" cy="-780.72" rx="95.08" ry="27.37"/>
<text xml:space="preserve" text-anchor="middle" x="337.08" y="-782.42" font-family="Vera Sans Mono" font-size="14.00">karma_syncout_set</text>
<text xml:space="preserve" text-anchor="middle" x="337.08" y="-767.42" font-family="Vera Sans Mono" font-size="14.00">1885</text>
</g>
<!-- ext_main&#45;&gt;karma_syncout_set -->
<g id="edge19" class="edge">
<title>ext_main&#45;&gt;karma_syncout_set</title>
<path fill="none" stroke="black" d="M106.12,-1409.93C115.68,-1317.31 161.83,-910.04 242.5,-816.72 246.56,-812.03 251.3,-807.95 256.45,-804.39"/>
<polygon fill="black" stroke="black" points="258.07,-807.5 264.82,-799.34 254.45,-801.51 258.07,-807.5"/>
</g>
<!-- karma_clock_list -->
<g id="node21" class="node">
<title>karma_clock_list</title>
<path fill="#ccee80" stroke="none" d="M679.28,-2045.7C679.28,-2045.7 679.28,-2053.73 679.28,-2053.73 679.28,-2057.75 675.46,-2063.01 671.64,-2064.26 671.64,-2064.26 634.68,-2076.31 634.68,-2076.31 630.86,-2077.56 623.03,-2078.8 619.01,-2078.8 619.01,-2078.8 561.21,-2078.8 561.21,-2078.8 557.19,-2078.8 549.36,-2077.56 545.54,-2076.31 545.54,-2076.31 508.58,-2064.26 508.58,-2064.26 504.76,-2063.01 500.95,-2057.75 500.95,-2053.73 500.95,-2053.73 500.95,-2045.7 500.95,-2045.7 500.95,-2041.69 504.76,-2036.43 508.58,-2035.18 508.58,-2035.18 545.54,-2023.13 545.54,-2023.13 549.36,-2021.88 557.19,-2020.64 561.21,-2020.64 561.21,-2020.64 619.01,-2020.64 619.01,-2020.64 623.03,-2020.64 630.86,-2021.88 634.68,-2023.13 634.68,-2023.13 671.64,-2035.18 671.64,-2035.18 675.46,-2036.43 679.28,-2041.69 679.28,-2045.7"/>
<text xml:space="preserve" text-anchor="middle" x="590.11" y="-2051.42" font-family="Vera Sans Mono" font-size="14.00">karma_clock_list</text>
<text xml:space="preserve" text-anchor="middle" x="590.11" y="-2036.42" font-family="Vera Sans Mono" font-size="14.00">1505</text>
</g>
<!-- karma_new&#45;&gt;karma_clock_list -->
<g id="edge20" class="edge">
<title>karma_new&#45;&gt;karma_clock_list</title>
<path fill="none" stroke="black" d="M398.53,-2049.72C425.92,-2049.72 459.03,-2049.72 489.91,-2049.72"/>
<polygon fill="black" stroke="black" points="489.66,-2053.22 499.66,-2049.72 489.66,-2046.22 489.66,-2053.22"/>
</g>
<!-- kh_buf_values_internal -->
<g id="node22" class="node">
<title>kh_buf_values_internal</title>
<path fill="#ccee80" stroke="none" d="M1079.09,-1717.7C1079.09,-1717.7 1079.09,-1725.73 1079.09,-1725.73 1079.09,-1729.75 1075.19,-1734.72 1071.29,-1735.68 1071.29,-1735.68 1017.51,-1748.89 1017.51,-1748.89 1013.61,-1749.85 1005.7,-1750.8 1001.68,-1750.8 1001.68,-1750.8 919.62,-1750.8 919.62,-1750.8 915.61,-1750.8 907.69,-1749.85 903.79,-1748.89 903.79,-1748.89 850.01,-1735.68 850.01,-1735.68 846.11,-1734.72 842.21,-1729.75 842.21,-1725.73 842.21,-1725.73 842.21,-1717.7 842.21,-1717.7 842.21,-1713.69 846.11,-1708.71 850.01,-1707.76 850.01,-1707.76 903.79,-1694.55 903.79,-1694.55 907.69,-1693.59 915.61,-1692.64 919.62,-1692.64 919.62,-1692.64 1001.68,-1692.64 1001.68,-1692.64 1005.7,-1692.64 1013.61,-1693.59 1017.51,-1694.55 1017.51,-1694.55 1071.29,-1707.76 1071.29,-1707.76 1075.19,-1708.71 1079.09,-1713.69 1079.09,-1717.7"/>
<text xml:space="preserve" text-anchor="middle" x="960.65" y="-1723.42" font-family="Vera Sans Mono" font-size="14.00">kh_buf_values_internal</text>
<text xml:space="preserve" text-anchor="middle" x="960.65" y="-1708.42" font-family="Vera Sans Mono" font-size="14.00">1067</text>
</g>
<!-- karma_resetloop&#45;&gt;kh_buf_values_internal -->
<g id="edge21" class="edge">
<title>karma_resetloop&#45;&gt;kh_buf_values_internal</title>
<path fill="none" stroke="black" d="M661.3,-1781.63C716.66,-1770.51 794.67,-1754.85 857.04,-1742.32"/>
<polygon fill="black" stroke="black" points="857.5,-1745.8 866.61,-1740.4 856.12,-1738.94 857.5,-1745.8"/>
</g>
<!-- karma_setloop&#45;&gt;kh_buf_values_internal -->
<g id="edge25" class="edge">
<title>karma_setloop&#45;&gt;kh_buf_values_internal</title>
<path fill="none" stroke="black" d="M390.59,-1702.82C413.86,-1710.32 441.78,-1718 467.65,-1721.72 590.18,-1739.31 731.64,-1736.99 831.34,-1731.66"/>
<polygon fill="black" stroke="black" points="831.38,-1735.16 841.17,-1731.11 830.99,-1728.17 831.38,-1735.16"/>
</g>
<!-- kh_setloop_internal -->
<g id="node24" class="node">
<title>kh_setloop_internal</title>
<path fill="#ccee80" stroke="none" d="M691.91,-1679.7C691.91,-1679.7 691.91,-1687.73 691.91,-1687.73 691.91,-1691.75 688.04,-1696.87 684.18,-1697.97 684.18,-1697.97 640,-1710.6 640,-1710.6 636.14,-1711.7 628.26,-1712.8 624.24,-1712.8 624.24,-1712.8 555.98,-1712.8 555.98,-1712.8 551.96,-1712.8 544.09,-1711.7 540.23,-1710.6 540.23,-1710.6 496.04,-1697.97 496.04,-1697.97 492.18,-1696.87 488.32,-1691.75 488.32,-1687.73 488.32,-1687.73 488.32,-1679.7 488.32,-1679.7 488.32,-1675.69 492.18,-1670.57 496.04,-1669.47 496.04,-1669.47 540.23,-1656.84 540.23,-1656.84 544.09,-1655.74 551.96,-1654.64 555.98,-1654.64 555.98,-1654.64 624.24,-1654.64 624.24,-1654.64 628.26,-1654.64 636.14,-1655.74 640,-1656.84 640,-1656.84 684.18,-1669.47 684.18,-1669.47 688.04,-1670.57 691.91,-1675.69 691.91,-1679.7"/>
<text xml:space="preserve" text-anchor="middle" x="590.11" y="-1685.42" font-family="Vera Sans Mono" font-size="14.00">kh_setloop_internal</text>
<text xml:space="preserve" text-anchor="middle" x="590.11" y="-1670.42" font-family="Vera Sans Mono" font-size="14.00">1309</text>
</g>
<!-- karma_setloop&#45;&gt;kh_setloop_internal -->
<g id="edge26" class="edge">
<title>karma_setloop&#45;&gt;kh_setloop_internal</title>
<path fill="none" stroke="black" d="M411.7,-1683.72C432.15,-1683.72 454.83,-1683.72 476.96,-1683.72"/>
<polygon fill="black" stroke="black" points="476.94,-1687.22 486.94,-1683.72 476.94,-1680.22 476.94,-1687.22"/>
</g>
<!-- kh_buf_change_internal -->
<g id="node25" class="node">
<title>kh_buf_change_internal</title>
<path fill="#ccee80" stroke="none" d="M712.57,-1904.7C712.57,-1904.7 712.57,-1912.73 712.57,-1912.73 712.57,-1916.75 708.66,-1921.69 704.76,-1922.62 704.76,-1922.62 648.65,-1935.95 648.65,-1935.95 644.74,-1936.88 636.82,-1937.8 632.8,-1937.8 632.8,-1937.8 547.42,-1937.8 547.42,-1937.8 543.4,-1937.8 535.48,-1936.88 531.57,-1935.95 531.57,-1935.95 475.47,-1922.62 475.47,-1922.62 471.56,-1921.69 467.65,-1916.75 467.65,-1912.73 467.65,-1912.73 467.65,-1904.7 467.65,-1904.7 467.65,-1900.69 471.56,-1895.74 475.47,-1894.82 475.47,-1894.82 531.57,-1881.49 531.57,-1881.49 535.48,-1880.56 543.4,-1879.64 547.42,-1879.64 547.42,-1879.64 632.8,-1879.64 632.8,-1879.64 636.82,-1879.64 644.74,-1880.56 648.65,-1881.49 648.65,-1881.49 704.76,-1894.82 704.76,-1894.82 708.66,-1895.74 712.57,-1900.69 712.57,-1904.7"/>
<text xml:space="preserve" text-anchor="middle" x="590.11" y="-1910.42" font-family="Vera Sans Mono" font-size="14.00">kh_buf_change_internal</text>
<text xml:space="preserve" text-anchor="middle" x="590.11" y="-1895.42" font-family="Vera Sans Mono" font-size="14.00">1217</text>
</g>
<!-- karma_buf_change&#45;&gt;kh_buf_change_internal -->
<g id="edge28" class="edge">
<title>karma_buf_change&#45;&gt;kh_buf_change_internal</title>
<path fill="none" stroke="black" d="M430.84,-1906.83C439.19,-1906.93 447.75,-1907.03 456.36,-1907.13"/>
<polygon fill="black" stroke="black" points="456.13,-1910.63 466.17,-1907.25 456.21,-1903.63 456.13,-1910.63"/>
</g>
<!-- karma_dsp64&#45;&gt;karma_select_start -->
<g id="edge34" class="edge">
<title>karma_dsp64&#45;&gt;karma_select_start</title>
<path fill="none" stroke="black" d="M393.4,-1556.74C406.6,-1551.53 420.18,-1544.92 431.65,-1536.72 451.93,-1522.23 445.15,-1504.43 467.65,-1493.72 497.53,-1479.51 1058.17,-1480.37 1172.74,-1489.72 1236.04,-1494.89 1306.76,-1506.67 1360.47,-1516.88"/>
<polygon fill="black" stroke="black" points="1359.69,-1520.3 1370.17,-1518.75 1361.01,-1513.43 1359.69,-1520.3"/>
</g>
<!-- karma_dsp64&#45;&gt;karma_select_size -->
<g id="edge35" class="edge">
<title>karma_dsp64&#45;&gt;karma_select_size</title>
<path fill="none" stroke="black" d="M403.69,-1581.24C591.78,-1605.68 1133.47,-1676.05 1352.7,-1704.54"/>
<polygon fill="black" stroke="black" points="1351.97,-1707.97 1362.34,-1705.79 1352.88,-1701.03 1351.97,-1707.97"/>
</g>
<!-- karma_buf_setup -->
<g id="node30" class="node">
<title>karma_buf_setup</title>
<path fill="#ccee80" stroke="none" d="M682.72,-1527.7C682.72,-1527.7 682.72,-1535.73 682.72,-1535.73 682.72,-1539.75 678.89,-1544.97 675.06,-1546.17 675.06,-1546.17 636.13,-1558.4 636.13,-1558.4 632.3,-1559.6 624.46,-1560.8 620.44,-1560.8 620.44,-1560.8 559.78,-1560.8 559.78,-1560.8 555.77,-1560.8 547.92,-1559.6 544.09,-1558.4 544.09,-1558.4 505.16,-1546.17 505.16,-1546.17 501.33,-1544.97 497.5,-1539.75 497.5,-1535.73 497.5,-1535.73 497.5,-1527.7 497.5,-1527.7 497.5,-1523.69 501.33,-1518.47 505.16,-1517.27 505.16,-1517.27 544.09,-1505.04 544.09,-1505.04 547.92,-1503.84 555.77,-1502.64 559.78,-1502.64 559.78,-1502.64 620.44,-1502.64 620.44,-1502.64 624.46,-1502.64 632.3,-1503.84 636.13,-1505.04 636.13,-1505.04 675.06,-1517.27 675.06,-1517.27 678.89,-1518.47 682.72,-1523.69 682.72,-1527.7"/>
<text xml:space="preserve" text-anchor="middle" x="590.11" y="-1533.42" font-family="Vera Sans Mono" font-size="14.00">karma_buf_setup</text>
<text xml:space="preserve" text-anchor="middle" x="590.11" y="-1518.42" font-family="Vera Sans Mono" font-size="14.00">996</text>
</g>
<!-- karma_dsp64&#45;&gt;karma_buf_setup -->
<g id="edge36" class="edge">
<title>karma_dsp64&#45;&gt;karma_buf_setup</title>
<path fill="none" stroke="black" d="M401.75,-1562.32C429.31,-1557.82 462.16,-1552.45 492.61,-1547.48"/>
<polygon fill="black" stroke="black" points="492.91,-1550.98 502.21,-1545.91 491.78,-1544.07 492.91,-1550.98"/>
</g>
<!-- karma_mono_perform -->
<g id="node31" class="node">
<title>karma_mono_perform</title>
<path fill="#ccee80" stroke="none" d="M705.68,-876.7C705.68,-876.7 705.68,-884.73 705.68,-884.73 705.68,-888.75 701.79,-893.75 697.89,-894.73 697.89,-894.73 645.77,-907.84 645.77,-907.84 641.88,-908.82 633.97,-909.8 629.95,-909.8 629.95,-909.8 550.27,-909.8 550.27,-909.8 546.26,-909.8 538.35,-908.82 534.45,-907.84 534.45,-907.84 482.33,-894.73 482.33,-894.73 478.44,-893.75 474.54,-888.75 474.54,-884.73 474.54,-884.73 474.54,-876.7 474.54,-876.7 474.54,-872.69 478.44,-867.69 482.33,-866.71 482.33,-866.71 534.45,-853.6 534.45,-853.6 538.35,-852.62 546.26,-851.64 550.27,-851.64 550.27,-851.64 629.95,-851.64 629.95,-851.64 633.97,-851.64 641.88,-852.62 645.77,-853.6 645.77,-853.6 697.89,-866.71 697.89,-866.71 701.79,-867.69 705.68,-872.69 705.68,-876.7"/>
<text xml:space="preserve" text-anchor="middle" x="590.11" y="-882.42" font-family="Vera Sans Mono" font-size="14.00">karma_mono_perform</text>
<text xml:space="preserve" text-anchor="middle" x="590.11" y="-867.42" font-family="Vera Sans Mono" font-size="14.00">2081</text>
</g>
<!-- karma_dsp64&#45;&gt;karma_mono_perform -->
<g id="edge37" class="edge">
<title>karma_dsp64&#45;&gt;karma_mono_perform</title>
<path fill="none" stroke="black" d="M397.91,-1559.52C410.52,-1554.26 422.71,-1546.93 431.65,-1536.72 473.28,-1489.21 556.55,-1055.99 581.73,-920.82"/>
<polygon fill="black" stroke="black" points="585.12,-921.73 583.51,-911.26 578.24,-920.45 585.12,-921.73"/>
</g>
<!-- kh_buf_values_internal&#45;&gt;karma_select_start -->
<g id="edge22" class="edge">
<title>kh_buf_values_internal&#45;&gt;karma_select_start</title>
<path fill="none" stroke="black" d="M1046,-1701.61C1087.12,-1688.9 1135.58,-1669.35 1172.74,-1640.72 1194.43,-1624 1185.97,-1605.93 1208.74,-1590.72 1249.04,-1563.79 1300.76,-1549.74 1345.65,-1542.44"/>
<polygon fill="black" stroke="black" points="1346.06,-1545.92 1355.42,-1540.96 1345,-1539 1346.06,-1545.92"/>
</g>
<!-- kh_buf_values_internal&#45;&gt;karma_select_size -->
<g id="edge23" class="edge">
<title>kh_buf_values_internal&#45;&gt;karma_select_size</title>
<path fill="none" stroke="black" d="M1079.02,-1720.51C1160.35,-1719.67 1267.55,-1718.56 1345.16,-1717.76"/>
<polygon fill="black" stroke="black" points="1344.91,-1721.27 1354.87,-1717.66 1344.84,-1714.27 1344.91,-1721.27"/>
</g>
<!-- kh_init_buffer_properties -->
<g id="node23" class="node">
<title>kh_init_buffer_properties</title>
<path fill="#80ccee" stroke="none" d="M1570.9,-1635.75C1570.9,-1635.75 1525.53,-1656.71 1525.53,-1656.71 1520.09,-1659.23 1508.64,-1661.75 1502.64,-1661.75 1502.64,-1661.75 1392.33,-1661.75 1392.33,-1661.75 1386.33,-1661.75 1374.88,-1659.23 1369.43,-1656.71 1369.43,-1656.71 1324.07,-1635.75 1324.07,-1635.75 1318.62,-1633.24 1318.62,-1628.2 1324.07,-1625.69 1324.07,-1625.69 1369.43,-1604.73 1369.43,-1604.73 1374.88,-1602.21 1386.33,-1599.69 1392.33,-1599.69 1392.33,-1599.69 1502.64,-1599.69 1502.64,-1599.69 1508.64,-1599.69 1520.09,-1602.21 1525.53,-1604.73 1525.53,-1604.73 1570.9,-1625.69 1570.9,-1625.69 1576.35,-1628.2 1576.35,-1633.24 1570.9,-1635.75"/>
<text xml:space="preserve" text-anchor="middle" x="1447.48" y="-1632.42" font-family="Vera Sans Mono" font-size="14.00">kh_init_buffer_properties</text>
<text xml:space="preserve" text-anchor="middle" x="1447.48" y="-1617.42" font-family="Vera Sans Mono" font-size="14.00">450</text>
</g>
<!-- kh_buf_values_internal&#45;&gt;kh_init_buffer_properties -->
<g id="edge24" class="edge">
<title>kh_buf_values_internal&#45;&gt;kh_init_buffer_properties</title>
<path fill="none" stroke="black" d="M1056,-1704.01C1137.72,-1688.67 1255.85,-1666.5 1340.75,-1650.56"/>
<polygon fill="black" stroke="black" points="1341.31,-1654.02 1350.49,-1648.74 1340.02,-1647.14 1341.31,-1654.02"/>
</g>
<!-- kh_setloop_internal&#45;&gt;kh_buf_values_internal -->
<g id="edge27" class="edge">
<title>kh_setloop_internal&#45;&gt;kh_buf_values_internal</title>
<path fill="none" stroke="black" d="M691.82,-1694.1C734.84,-1698.54 785.57,-1703.77 831.24,-1708.48"/>
<polygon fill="black" stroke="black" points="830.62,-1711.93 840.92,-1709.48 831.33,-1704.97 830.62,-1711.93"/>
</g>
<!-- kh_buf_change_internal&#45;&gt;kh_buf_values_internal -->
<g id="edge29" class="edge">
<title>kh_buf_change_internal&#45;&gt;kh_buf_values_internal</title>
<path fill="none" stroke="black" d="M645.89,-1880.93C712.49,-1847.13 824.74,-1790.18 895.37,-1754.34"/>
<polygon fill="black" stroke="black" points="896.79,-1757.54 904.13,-1749.89 893.63,-1751.3 896.79,-1757.54"/>
</g>
<!-- kh_validate_buffer -->
<g id="node26" class="node">
<title>kh_validate_buffer</title>
<path fill="#80ccee" stroke="none" d="M1053.45,-1915.91C1053.45,-1915.91 1022.47,-1934.56 1022.47,-1934.56 1017.33,-1937.65 1006.19,-1940.75 1000.19,-1940.75 1000.19,-1940.75 921.11,-1940.75 921.11,-1940.75 915.11,-1940.75 903.97,-1937.65 898.83,-1934.56 898.83,-1934.56 867.85,-1915.91 867.85,-1915.91 862.71,-1912.81 862.71,-1906.62 867.85,-1903.53 867.85,-1903.53 898.83,-1884.88 898.83,-1884.88 903.97,-1881.79 915.11,-1878.69 921.11,-1878.69 921.11,-1878.69 1000.19,-1878.69 1000.19,-1878.69 1006.19,-1878.69 1017.33,-1881.79 1022.47,-1884.88 1022.47,-1884.88 1053.45,-1903.53 1053.45,-1903.53 1058.59,-1906.62 1058.59,-1912.81 1053.45,-1915.91"/>
<text xml:space="preserve" text-anchor="middle" x="960.65" y="-1911.42" font-family="Vera Sans Mono" font-size="14.00">kh_validate_buffer</text>
<text xml:space="preserve" text-anchor="middle" x="960.65" y="-1896.42" font-family="Vera Sans Mono" font-size="14.00">2531</text>
</g>
<!-- kh_buf_change_internal&#45;&gt;kh_validate_buffer -->
<g id="edge30" class="edge">
<title>kh_buf_change_internal&#45;&gt;kh_validate_buffer</title>
<path fill="none" stroke="black" d="M712.55,-1909.05C755.87,-1909.17 804.45,-1909.3 847,-1909.41"/>
<polygon fill="black" stroke="black" points="846.73,-1912.91 856.74,-1909.44 846.75,-1905.91 846.73,-1912.91"/>
</g>
<!-- kh_process_argc_args -->
<g id="node27" class="node">
<title>kh_process_argc_args</title>
<path fill="#80ccee" stroke="none" d="M1074.43,-1995.07C1074.43,-1995.07 1033.65,-2015.39 1033.65,-2015.39 1028.28,-2018.07 1016.91,-2020.75 1010.91,-2020.75 1010.91,-2020.75 910.39,-2020.75 910.39,-2020.75 904.39,-2020.75 893.02,-2018.07 887.65,-2015.39 887.65,-2015.39 846.88,-1995.07 846.88,-1995.07 841.51,-1992.4 841.51,-1987.04 846.88,-1984.37 846.88,-1984.37 887.65,-1964.04 887.65,-1964.04 893.02,-1961.37 904.39,-1958.69 910.39,-1958.69 910.39,-1958.69 1010.91,-1958.69 1010.91,-1958.69 1016.91,-1958.69 1028.28,-1961.37 1033.65,-1964.04 1033.65,-1964.04 1074.43,-1984.37 1074.43,-1984.37 1079.8,-1987.04 1079.8,-1992.4 1074.43,-1995.07"/>
<text xml:space="preserve" text-anchor="middle" x="960.65" y="-1991.42" font-family="Vera Sans Mono" font-size="14.00">kh_process_argc_args</text>
<text xml:space="preserve" text-anchor="middle" x="960.65" y="-1976.42" font-family="Vera Sans Mono" font-size="14.00">2602</text>
</g>
<!-- kh_buf_change_internal&#45;&gt;kh_process_argc_args -->
<g id="edge31" class="edge">
<title>kh_buf_change_internal&#45;&gt;kh_process_argc_args</title>
<path fill="none" stroke="black" d="M670.96,-1930.63C695.75,-1937.12 723.21,-1944.02 748.57,-1949.72 783.79,-1957.63 822.54,-1965.28 857.13,-1971.73"/>
<polygon fill="black" stroke="black" points="856.25,-1975.12 866.72,-1973.5 857.52,-1968.24 856.25,-1975.12"/>
</g>
<!-- kh_parse_loop_points_sym -->
<g id="node28" class="node">
<title>kh_parse_loop_points_sym</title>
<path fill="#eecc80" stroke="none" d="M1435.74,-2072.26C1435.74,-2072.26 1278.23,-2039.18 1278.23,-2039.18 1272.36,-2037.95 1272.36,-2035.49 1278.23,-2034.25 1278.23,-2034.25 1435.74,-2001.18 1435.74,-2001.18 1441.61,-1999.95 1453.36,-1999.95 1459.23,-2001.18 1459.23,-2001.18 1616.74,-2034.25 1616.74,-2034.25 1622.61,-2035.49 1622.61,-2037.95 1616.74,-2039.18 1616.74,-2039.18 1459.23,-2072.26 1459.23,-2072.26 1453.36,-2073.49 1441.61,-2073.49 1435.74,-2072.26"/>
<text xml:space="preserve" text-anchor="middle" x="1447.48" y="-2038.42" font-family="Vera Sans Mono" font-size="14.00">kh_parse_loop_points_sym</text>
<text xml:space="preserve" text-anchor="middle" x="1447.48" y="-2023.42" font-family="Vera Sans Mono" font-size="14.00">2572</text>
</g>
<!-- kh_process_argc_args&#45;&gt;kh_parse_loop_points_sym -->
<g id="edge32" class="edge">
<title>kh_process_argc_args&#45;&gt;kh_parse_loop_points_sym</title>
<path fill="none" stroke="black" d="M1064.77,-1999.72C1136.85,-2006.7 1233.8,-2016.1 1311.96,-2023.68"/>
<polygon fill="black" stroke="black" points="1311.55,-2027.15 1321.84,-2024.64 1312.23,-2020.19 1311.55,-2027.15"/>
</g>
<!-- kh_parse_numeric_arg -->
<g id="node29" class="node">
<title>kh_parse_numeric_arg</title>
<path fill="#eecc80" stroke="none" d="M1435.83,-1977.86C1435.83,-1977.86 1304.39,-1945.58 1304.39,-1945.58 1298.56,-1944.15 1298.56,-1941.29 1304.39,-1939.86 1304.39,-1939.86 1435.83,-1907.58 1435.83,-1907.58 1441.66,-1906.15 1453.31,-1906.15 1459.14,-1907.58 1459.14,-1907.58 1590.58,-1939.86 1590.58,-1939.86 1596.41,-1941.29 1596.41,-1944.15 1590.58,-1945.58 1590.58,-1945.58 1459.14,-1977.86 1459.14,-1977.86 1453.31,-1979.29 1441.66,-1979.29 1435.83,-1977.86"/>
<text xml:space="preserve" text-anchor="middle" x="1447.48" y="-1944.42" font-family="Vera Sans Mono" font-size="14.00">kh_parse_numeric_arg</text>
<text xml:space="preserve" text-anchor="middle" x="1447.48" y="-1929.42" font-family="Vera Sans Mono" font-size="14.00">2593</text>
</g>
<!-- kh_process_argc_args&#45;&gt;kh_parse_numeric_arg -->
<g id="edge33" class="edge">
<title>kh_process_argc_args&#45;&gt;kh_parse_numeric_arg</title>
<path fill="none" stroke="black" d="M1064.77,-1979.72C1140.98,-1972.33 1245,-1962.25 1325.2,-1954.48"/>
<polygon fill="black" stroke="black" points="1325.23,-1957.99 1334.85,-1953.54 1324.56,-1951.02 1325.23,-1957.99"/>
</g>
<!-- karma_buf_setup&#45;&gt;kh_init_buffer_properties -->
<g id="edge38" class="edge">
<title>karma_buf_setup&#45;&gt;kh_init_buffer_properties</title>
<path fill="none" stroke="black" d="M660.03,-1550.72C687.4,-1557.64 719.29,-1564.93 748.57,-1569.72 943.6,-1601.59 1172.19,-1617.58 1313.19,-1625.01"/>
<polygon fill="black" stroke="black" points="1312.77,-1628.49 1322.94,-1625.51 1313.13,-1621.5 1312.77,-1628.49"/>
</g>
<!-- karma_buf_modify -->
<g id="node32" class="node">
<title>karma_buf_modify</title>
<path fill="#80ccee" stroke="none" d="M1055.24,-1535.83C1055.24,-1535.83 1023.44,-1554.64 1023.44,-1554.64 1018.28,-1557.69 1007.11,-1560.75 1001.11,-1560.75 1001.11,-1560.75 920.19,-1560.75 920.19,-1560.75 914.19,-1560.75 903.03,-1557.69 897.86,-1554.64 897.86,-1554.64 866.06,-1535.83 866.06,-1535.83 860.9,-1532.77 860.9,-1526.66 866.06,-1523.61 866.06,-1523.61 897.86,-1504.8 897.86,-1504.8 903.03,-1501.75 914.19,-1498.69 920.19,-1498.69 920.19,-1498.69 1001.11,-1498.69 1001.11,-1498.69 1007.11,-1498.69 1018.28,-1501.75 1023.44,-1504.8 1023.44,-1504.8 1055.24,-1523.61 1055.24,-1523.61 1060.41,-1526.66 1060.41,-1532.77 1055.24,-1535.83"/>
<text xml:space="preserve" text-anchor="middle" x="960.65" y="-1531.42" font-family="Vera Sans Mono" font-size="14.00">karma_buf_modify</text>
<text xml:space="preserve" text-anchor="middle" x="960.65" y="-1516.42" font-family="Vera Sans Mono" font-size="14.00">1029</text>
</g>
<!-- karma_mono_perform&#45;&gt;karma_buf_modify -->
<g id="edge39" class="edge">
<title>karma_mono_perform&#45;&gt;karma_buf_modify</title>
<path fill="none" stroke="black" d="M590.63,-909.6C590.69,-1000.69 603.09,-1285.37 748.57,-1446.72 779.43,-1480.95 826.2,-1501.23 867.87,-1513.16"/>
<polygon fill="black" stroke="black" points="866.88,-1516.51 877.45,-1515.76 868.72,-1509.76 866.88,-1516.51"/>
</g>
<!-- kh_initialize_perform_vars -->
<g id="node33" class="node">
<title>kh_initialize_perform_vars</title>
<path fill="#80ccee" stroke="none" d="M1091.32,-405.53C1091.32,-405.53 1042.48,-426.93 1042.48,-426.93 1036.98,-429.34 1025.48,-431.75 1019.48,-431.75 1019.48,-431.75 901.82,-431.75 901.82,-431.75 895.82,-431.75 884.33,-429.34 878.83,-426.93 878.83,-426.93 829.98,-405.53 829.98,-405.53 824.49,-403.13 824.49,-398.31 829.98,-395.9 829.98,-395.9 878.83,-374.51 878.83,-374.51 884.33,-372.1 895.82,-369.69 901.82,-369.69 901.82,-369.69 1019.48,-369.69 1019.48,-369.69 1025.48,-369.69 1036.98,-372.1 1042.48,-374.51 1042.48,-374.51 1091.32,-395.9 1091.32,-395.9 1096.82,-398.31 1096.82,-403.13 1091.32,-405.53"/>
<text xml:space="preserve" text-anchor="middle" x="960.65" y="-402.42" font-family="Vera Sans Mono" font-size="14.00">kh_initialize_perform_vars</text>
<text xml:space="preserve" text-anchor="middle" x="960.65" y="-387.42" font-family="Vera Sans Mono" font-size="14.00">2033</text>
</g>
<!-- karma_mono_perform&#45;&gt;kh_initialize_perform_vars -->
<g id="edge40" class="edge">
<title>karma_mono_perform&#45;&gt;kh_initialize_perform_vars</title>
<path fill="none" stroke="black" d="M592.11,-851.68C596.52,-772.3 620.28,-550.36 748.57,-440.72 767.83,-424.25 791.74,-413.71 816.47,-407.11"/>
<polygon fill="black" stroke="black" points="817.13,-410.55 826.02,-404.78 815.48,-403.75 817.13,-410.55"/>
</g>
<!-- kh_process_state_control -->
<g id="node34" class="node">
<title>kh_process_state_control</title>
<path fill="#80ccee" stroke="none" d="M1088.3,-325.62C1088.3,-325.62 1040.91,-346.84 1040.91,-346.84 1035.43,-349.29 1023.95,-351.75 1017.95,-351.75 1017.95,-351.75 903.35,-351.75 903.35,-351.75 897.35,-351.75 885.88,-349.29 880.4,-346.84 880.4,-346.84 833.01,-325.62 833.01,-325.62 827.53,-323.17 827.53,-318.27 833.01,-315.82 833.01,-315.82 880.4,-294.6 880.4,-294.6 885.88,-292.14 897.35,-289.69 903.35,-289.69 903.35,-289.69 1017.95,-289.69 1017.95,-289.69 1023.95,-289.69 1035.43,-292.14 1040.91,-294.6 1040.91,-294.6 1088.3,-315.82 1088.3,-315.82 1093.78,-318.27 1093.78,-323.17 1088.3,-325.62"/>
<text xml:space="preserve" text-anchor="middle" x="960.65" y="-322.42" font-family="Vera Sans Mono" font-size="14.00">kh_process_state_control</text>
<text xml:space="preserve" text-anchor="middle" x="960.65" y="-307.42" font-family="Vera Sans Mono" font-size="14.00">1948</text>
</g>
<!-- karma_mono_perform&#45;&gt;kh_process_state_control -->
<g id="edge41" class="edge">
<title>karma_mono_perform&#45;&gt;kh_process_state_control</title>
<path fill="none" stroke="black" d="M590.29,-851.76C589.46,-763.27 599.83,-494.37 748.57,-360.72 767.72,-343.51 791.89,-332.67 816.99,-326.02"/>
<polygon fill="black" stroke="black" points="817.8,-329.43 826.7,-323.69 816.16,-322.62 817.8,-329.43"/>
</g>
<!-- kh_process_direction_change -->
<g id="node35" class="node">
<title>kh_process_direction_change</title>
<path fill="#80ccee" stroke="none" d="M2109.5,-1378.07C2109.5,-1378.07 2052.16,-1400.39 2052.16,-1400.39 2046.56,-1402.57 2034.97,-1404.75 2028.97,-1404.75 2028.97,-1404.75 1893.55,-1404.75 1893.55,-1404.75 1887.55,-1404.75 1875.96,-1402.57 1870.37,-1400.39 1870.37,-1400.39 1813.02,-1378.07 1813.02,-1378.07 1807.43,-1375.9 1807.43,-1371.54 1813.02,-1369.37 1813.02,-1369.37 1870.37,-1347.04 1870.37,-1347.04 1875.96,-1344.87 1887.55,-1342.69 1893.55,-1342.69 1893.55,-1342.69 2028.97,-1342.69 2028.97,-1342.69 2034.97,-1342.69 2046.56,-1344.87 2052.16,-1347.04 2052.16,-1347.04 2109.5,-1369.37 2109.5,-1369.37 2115.09,-1371.54 2115.09,-1375.9 2109.5,-1378.07"/>
<text xml:space="preserve" text-anchor="middle" x="1961.26" y="-1375.42" font-family="Vera Sans Mono" font-size="14.00">kh_process_direction_change</text>
<text xml:space="preserve" text-anchor="middle" x="1961.26" y="-1360.42" font-family="Vera Sans Mono" font-size="14.00">2043</text>
</g>
<!-- karma_mono_perform&#45;&gt;kh_process_direction_change -->
<g id="edge42" class="edge">
<title>karma_mono_perform&#45;&gt;kh_process_direction_change</title>
<path fill="none" stroke="black" d="M591.51,-909.8C594.34,-990.22 614.43,-1216.34 748.57,-1317.72 913.58,-1442.43 1538.8,-1408.72 1820.81,-1386.29"/>
<polygon fill="black" stroke="black" points="1820.73,-1389.81 1830.41,-1385.52 1820.17,-1382.83 1820.73,-1389.81"/>
</g>
<!-- kh_process_record_toggle -->
<g id="node36" class="node">
<title>kh_process_record_toggle</title>
<path fill="#80ccee" stroke="none" d="M2093.14,-1298.5C2093.14,-1298.5 2043.71,-1319.97 2043.71,-1319.97 2038.21,-1322.36 2026.71,-1324.75 2020.71,-1324.75 2020.71,-1324.75 1901.82,-1324.75 1901.82,-1324.75 1895.82,-1324.75 1884.31,-1322.36 1878.81,-1319.97 1878.81,-1319.97 1829.38,-1298.5 1829.38,-1298.5 1823.88,-1296.11 1823.88,-1291.33 1829.38,-1288.94 1829.38,-1288.94 1878.81,-1267.47 1878.81,-1267.47 1884.31,-1265.08 1895.82,-1262.69 1901.82,-1262.69 1901.82,-1262.69 2020.71,-1262.69 2020.71,-1262.69 2026.71,-1262.69 2038.21,-1265.08 2043.71,-1267.47 2043.71,-1267.47 2093.14,-1288.94 2093.14,-1288.94 2098.65,-1291.33 2098.65,-1296.11 2093.14,-1298.5"/>
<text xml:space="preserve" text-anchor="middle" x="1961.26" y="-1295.42" font-family="Vera Sans Mono" font-size="14.00">kh_process_record_toggle</text>
<text xml:space="preserve" text-anchor="middle" x="1961.26" y="-1280.42" font-family="Vera Sans Mono" font-size="14.00">2058</text>
</g>
<!-- karma_mono_perform&#45;&gt;kh_process_record_toggle -->
<g id="edge43" class="edge">
<title>karma_mono_perform&#45;&gt;kh_process_record_toggle</title>
<path fill="none" stroke="black" d="M593.58,-909.63C601.44,-982.09 632.67,-1172.04 748.57,-1261.72 913.75,-1389.53 1477.73,-1337.85 1686.23,-1325.72 1737.69,-1322.72 1794.31,-1316.59 1842.66,-1310.49"/>
<polygon fill="black" stroke="black" points="1842.83,-1314 1852.3,-1309.26 1841.94,-1307.05 1842.83,-1314"/>
</g>
<!-- kh_process_loop_initialization -->
<g id="node37" class="node">
<title>kh_process_loop_initialization</title>
<path fill="#80ccee" stroke="none" d="M2109.5,-1218.07C2109.5,-1218.07 2052.16,-1240.39 2052.16,-1240.39 2046.56,-1242.57 2034.97,-1244.75 2028.97,-1244.75 2028.97,-1244.75 1893.55,-1244.75 1893.55,-1244.75 1887.55,-1244.75 1875.96,-1242.57 1870.37,-1240.39 1870.37,-1240.39 1813.02,-1218.07 1813.02,-1218.07 1807.43,-1215.9 1807.43,-1211.54 1813.02,-1209.37 1813.02,-1209.37 1870.37,-1187.04 1870.37,-1187.04 1875.96,-1184.87 1887.55,-1182.69 1893.55,-1182.69 1893.55,-1182.69 2028.97,-1182.69 2028.97,-1182.69 2034.97,-1182.69 2046.56,-1184.87 2052.16,-1187.04 2052.16,-1187.04 2109.5,-1209.37 2109.5,-1209.37 2115.09,-1211.54 2115.09,-1215.9 2109.5,-1218.07"/>
<text xml:space="preserve" text-anchor="middle" x="1961.26" y="-1215.42" font-family="Vera Sans Mono" font-size="14.00">kh_process_loop_initialization</text>
<text xml:space="preserve" text-anchor="middle" x="1961.26" y="-1200.42" font-family="Vera Sans Mono" font-size="14.00">625</text>
</g>
<!-- karma_mono_perform&#45;&gt;kh_process_loop_initialization -->
<g id="edge44" class="edge">
<title>karma_mono_perform&#45;&gt;kh_process_loop_initialization</title>
<path fill="none" stroke="black" d="M596.69,-909.76C610.41,-972.94 651.99,-1123.21 748.57,-1198.72 913.53,-1327.68 1000.57,-1277.14 1208.74,-1299.72 1314.23,-1311.16 1590.84,-1346.2 1686.23,-1299.72 1709.57,-1288.35 1699.92,-1266.99 1722.23,-1253.72 1747.97,-1238.41 1777.89,-1228.53 1807.66,-1222.24"/>
<polygon fill="black" stroke="black" points="1807.98,-1225.74 1817.12,-1220.38 1806.63,-1218.87 1807.98,-1225.74"/>
</g>
<!-- kh_process_loop_boundary -->
<g id="node38" class="node">
<title>kh_process_loop_boundary</title>
<path fill="#80ccee" stroke="none" d="M1097.98,-1163.35C1097.98,-1163.35 1045.92,-1185.12 1045.92,-1185.12 1040.39,-1187.43 1028.85,-1189.75 1022.85,-1189.75 1022.85,-1189.75 898.45,-1189.75 898.45,-1189.75 892.45,-1189.75 880.92,-1187.43 875.38,-1185.12 875.38,-1185.12 823.32,-1163.35 823.32,-1163.35 817.79,-1161.03 817.79,-1156.4 823.32,-1154.09 823.32,-1154.09 875.38,-1132.32 875.38,-1132.32 880.92,-1130.01 892.45,-1127.69 898.45,-1127.69 898.45,-1127.69 1022.85,-1127.69 1022.85,-1127.69 1028.85,-1127.69 1040.39,-1130.01 1045.92,-1132.32 1045.92,-1132.32 1097.98,-1154.09 1097.98,-1154.09 1103.52,-1156.4 1103.52,-1161.03 1097.98,-1163.35"/>
<text xml:space="preserve" text-anchor="middle" x="960.65" y="-1160.42" font-family="Vera Sans Mono" font-size="14.00">kh_process_loop_boundary</text>
<text xml:space="preserve" text-anchor="middle" x="960.65" y="-1145.42" font-family="Vera Sans Mono" font-size="14.00">536</text>
</g>
<!-- karma_mono_perform&#45;&gt;kh_process_loop_boundary -->
<g id="edge45" class="edge">
<title>karma_mono_perform&#45;&gt;kh_process_loop_boundary</title>
<path fill="none" stroke="black" d="M602.1,-909.64C622.7,-959.72 672.06,-1062.13 748.57,-1113.72 771.3,-1129.05 798.28,-1139.29 825.23,-1146.1"/>
<polygon fill="black" stroke="black" points="824.34,-1149.49 834.88,-1148.38 825.95,-1142.67 824.34,-1149.49"/>
</g>
<!-- kh_interp_index -->
<g id="node39" class="node">
<title>kh_interp_index</title>
<path fill="#80ccee" stroke="none" d="M1041.58,-1047.49C1041.58,-1047.49 1015.98,-1064.98 1015.98,-1064.98 1011.02,-1068.36 1000.07,-1071.75 994.07,-1071.75 994.07,-1071.75 927.24,-1071.75 927.24,-1071.75 921.24,-1071.75 910.28,-1068.36 905.33,-1064.98 905.33,-1064.98 879.73,-1047.49 879.73,-1047.49 874.77,-1044.1 874.77,-1037.33 879.73,-1033.95 879.73,-1033.95 905.33,-1016.46 905.33,-1016.46 910.28,-1013.08 921.24,-1009.69 927.24,-1009.69 927.24,-1009.69 994.07,-1009.69 994.07,-1009.69 1000.07,-1009.69 1011.02,-1013.08 1015.98,-1016.46 1015.98,-1016.46 1041.58,-1033.95 1041.58,-1033.95 1046.53,-1037.33 1046.53,-1044.1 1041.58,-1047.49"/>
<text xml:space="preserve" text-anchor="middle" x="960.65" y="-1042.42" font-family="Vera Sans Mono" font-size="14.00">kh_interp_index</text>
<text xml:space="preserve" text-anchor="middle" x="960.65" y="-1027.42" font-family="Vera Sans Mono" font-size="14.00">754</text>
</g>
<!-- karma_mono_perform&#45;&gt;kh_interp_index -->
<g id="edge46" class="edge">
<title>karma_mono_perform&#45;&gt;kh_interp_index</title>
<path fill="none" stroke="black" d="M620.3,-909.77C650,-937.57 698.65,-978.47 748.57,-1000.72 785.93,-1017.37 830.03,-1027.1 868.22,-1032.77"/>
<polygon fill="black" stroke="black" points="867.46,-1036.2 877.85,-1034.13 868.44,-1029.27 867.46,-1036.2"/>
</g>
<!-- kh_perform_playback_interpolation -->
<g id="node40" class="node">
<title>kh_perform_playback_interpolation</title>
<path fill="#80ccee" stroke="none" d="M1134.42,-244.53C1134.42,-244.53 1064.6,-267.93 1064.6,-267.93 1058.91,-269.84 1047.22,-271.75 1041.22,-271.75 1041.22,-271.75 880.08,-271.75 880.08,-271.75 874.08,-271.75 862.39,-269.84 856.7,-267.93 856.7,-267.93 786.89,-244.53 786.89,-244.53 781.2,-242.63 781.2,-238.81 786.89,-236.91 786.89,-236.91 856.7,-213.51 856.7,-213.51 862.39,-211.6 874.08,-209.69 880.08,-209.69 880.08,-209.69 1041.22,-209.69 1041.22,-209.69 1047.22,-209.69 1058.91,-211.6 1064.6,-213.51 1064.6,-213.51 1134.42,-236.91 1134.42,-236.91 1140.1,-238.81 1140.1,-242.63 1134.42,-244.53"/>
<text xml:space="preserve" text-anchor="middle" x="960.65" y="-242.42" font-family="Vera Sans Mono" font-size="14.00">kh_perform_playback_interpolation</text>
<text xml:space="preserve" text-anchor="middle" x="960.65" y="-227.42" font-family="Vera Sans Mono" font-size="14.00">577</text>
</g>
<!-- karma_mono_perform&#45;&gt;kh_perform_playback_interpolation -->
<g id="edge47" class="edge">
<title>karma_mono_perform&#45;&gt;kh_perform_playback_interpolation</title>
<path fill="none" stroke="black" d="M594.63,-851.78C608.41,-743.07 662.34,-361.16 748.57,-280.72 761.1,-269.03 775.93,-260.25 791.83,-253.71"/>
<polygon fill="black" stroke="black" points="792.87,-257.05 801,-250.26 790.41,-250.5 792.87,-257.05"/>
</g>
<!-- kh_ease_switchramp -->
<g id="node41" class="node">
<title>kh_ease_switchramp</title>
<path fill="#80ccee" stroke="none" d="M1067.21,-966.34C1067.21,-966.34 1029.84,-986.13 1029.84,-986.13 1024.54,-988.94 1013.24,-991.75 1007.24,-991.75 1007.24,-991.75 914.07,-991.75 914.07,-991.75 908.07,-991.75 896.77,-988.94 891.47,-986.13 891.47,-986.13 854.09,-966.34 854.09,-966.34 848.79,-963.53 848.79,-957.91 854.09,-955.1 854.09,-955.1 891.47,-935.31 891.47,-935.31 896.77,-932.5 908.07,-929.69 914.07,-929.69 914.07,-929.69 1007.24,-929.69 1007.24,-929.69 1013.24,-929.69 1024.54,-932.5 1029.84,-935.31 1029.84,-935.31 1067.21,-955.1 1067.21,-955.1 1072.52,-957.91 1072.52,-963.53 1067.21,-966.34"/>
<text xml:space="preserve" text-anchor="middle" x="960.65" y="-962.42" font-family="Vera Sans Mono" font-size="14.00">kh_ease_switchramp</text>
<text xml:space="preserve" text-anchor="middle" x="960.65" y="-947.42" font-family="Vera Sans Mono" font-size="14.00">285</text>
</g>
<!-- karma_mono_perform&#45;&gt;kh_ease_switchramp -->
<g id="edge48" class="edge">
<title>karma_mono_perform&#45;&gt;kh_ease_switchramp</title>
<path fill="none" stroke="black" d="M669.78,-901.71C694.88,-908.14 722.82,-915.01 748.57,-920.72 785.28,-928.85 825.82,-936.78 861.47,-943.41"/>
<polygon fill="black" stroke="black" points="860.41,-946.77 870.88,-945.15 861.68,-939.89 860.41,-946.77"/>
</g>
<!-- kh_ease_record -->
<g id="node42" class="node">
<title>kh_ease_record</title>
<path fill="#80ccee" stroke="none" d="M1042.76,-887.43C1042.76,-887.43 1016.63,-905.04 1016.63,-905.04 1011.66,-908.39 1000.68,-911.75 994.68,-911.75 994.68,-911.75 926.62,-911.75 926.62,-911.75 920.62,-911.75 909.65,-908.39 904.67,-905.04 904.67,-905.04 878.54,-887.43 878.54,-887.43 873.57,-884.07 873.57,-877.37 878.54,-874.01 878.54,-874.01 904.67,-856.4 904.67,-856.4 909.65,-853.05 920.62,-849.69 926.62,-849.69 926.62,-849.69 994.68,-849.69 994.68,-849.69 1000.68,-849.69 1011.66,-853.05 1016.63,-856.4 1016.63,-856.4 1042.76,-874.01 1042.76,-874.01 1047.74,-877.37 1047.74,-884.07 1042.76,-887.43"/>
<text xml:space="preserve" text-anchor="middle" x="960.65" y="-882.42" font-family="Vera Sans Mono" font-size="14.00">kh_ease_record</text>
<text xml:space="preserve" text-anchor="middle" x="960.65" y="-867.42" font-family="Vera Sans Mono" font-size="14.00">277</text>
</g>
<!-- karma_mono_perform&#45;&gt;kh_ease_record -->
<g id="edge49" class="edge">
<title>karma_mono_perform&#45;&gt;kh_ease_record</title>
<path fill="none" stroke="black" d="M705.45,-880.72C753.97,-880.72 810.08,-880.72 857.23,-880.72"/>
<polygon fill="black" stroke="black" points="857.19,-884.22 867.19,-880.72 857.19,-877.22 857.19,-884.22"/>
</g>
<!-- kh_process_playfade_state -->
<g id="node43" class="node">
<title>kh_process_playfade_state</title>
<path fill="#80ccee" stroke="none" d="M1096.77,-805.38C1096.77,-805.38 1045.3,-827.08 1045.3,-827.08 1039.77,-829.41 1028.24,-831.75 1022.24,-831.75 1022.24,-831.75 899.07,-831.75 899.07,-831.75 893.07,-831.75 881.54,-829.41 876.01,-827.08 876.01,-827.08 824.53,-805.38 824.53,-805.38 819.01,-803.05 819.01,-798.39 824.53,-796.06 824.53,-796.06 876.01,-774.35 876.01,-774.35 881.54,-772.02 893.07,-769.69 899.07,-769.69 899.07,-769.69 1022.24,-769.69 1022.24,-769.69 1028.24,-769.69 1039.77,-772.02 1045.3,-774.35 1045.3,-774.35 1096.77,-796.06 1096.77,-796.06 1102.3,-798.39 1102.3,-803.05 1096.77,-805.38"/>
<text xml:space="preserve" text-anchor="middle" x="960.65" y="-802.42" font-family="Vera Sans Mono" font-size="14.00">kh_process_playfade_state</text>
<text xml:space="preserve" text-anchor="middle" x="960.65" y="-787.42" font-family="Vera Sans Mono" font-size="14.00">598</text>
</g>
<!-- karma_mono_perform&#45;&gt;kh_process_playfade_state -->
<g id="edge50" class="edge">
<title>karma_mono_perform&#45;&gt;kh_process_playfade_state</title>
<path fill="none" stroke="black" d="M669.78,-859.72C694.88,-853.3 722.82,-846.42 748.57,-840.72 780,-833.75 814.24,-826.94 845.81,-820.96"/>
<polygon fill="black" stroke="black" points="846.19,-824.45 855.37,-819.17 844.9,-817.57 846.19,-824.45"/>
</g>
<!-- kh_calculate_sync_output -->
<g id="node44" class="node">
<title>kh_calculate_sync_output</title>
<path fill="#80ccee" stroke="none" d="M1089.51,-725.59C1089.51,-725.59 1041.53,-746.88 1041.53,-746.88 1036.05,-749.31 1024.56,-751.75 1018.56,-751.75 1018.56,-751.75 902.74,-751.75 902.74,-751.75 896.74,-751.75 885.26,-749.31 879.77,-746.88 879.77,-746.88 831.8,-725.59 831.8,-725.59 826.31,-723.15 826.31,-718.29 831.8,-715.85 831.8,-715.85 879.77,-694.56 879.77,-694.56 885.26,-692.13 896.74,-689.69 902.74,-689.69 902.74,-689.69 1018.56,-689.69 1018.56,-689.69 1024.56,-689.69 1036.05,-692.13 1041.53,-694.56 1041.53,-694.56 1089.51,-715.85 1089.51,-715.85 1094.99,-718.29 1094.99,-723.15 1089.51,-725.59"/>
<text xml:space="preserve" text-anchor="middle" x="960.65" y="-722.42" font-family="Vera Sans Mono" font-size="14.00">kh_calculate_sync_output</text>
<text xml:space="preserve" text-anchor="middle" x="960.65" y="-707.42" font-family="Vera Sans Mono" font-size="14.00">416</text>
</g>
<!-- karma_mono_perform&#45;&gt;kh_calculate_sync_output -->
<g id="edge51" class="edge">
<title>karma_mono_perform&#45;&gt;kh_calculate_sync_output</title>
<path fill="none" stroke="black" d="M620.3,-851.67C650,-823.87 698.65,-782.96 748.57,-760.72 775.68,-748.64 806.34,-740.2 835.71,-734.31"/>
<polygon fill="black" stroke="black" points="836.24,-737.77 845.41,-732.46 834.93,-730.9 836.24,-737.77"/>
</g>
<!-- kh_process_ipoke_recording -->
<g id="node45" class="node">
<title>kh_process_ipoke_recording</title>
<path fill="#80ccee" stroke="none" d="M1103.43,-645.21C1103.43,-645.21 1048.74,-667.26 1048.74,-667.26 1043.17,-669.5 1031.61,-671.75 1025.61,-671.75 1025.61,-671.75 895.7,-671.75 895.7,-671.75 889.7,-671.75 878.13,-669.5 872.57,-667.26 872.57,-667.26 817.87,-645.21 817.87,-645.21 812.31,-642.96 812.31,-638.48 817.87,-636.23 817.87,-636.23 872.57,-614.18 872.57,-614.18 878.13,-611.94 889.7,-609.69 895.7,-609.69 895.7,-609.69 1025.61,-609.69 1025.61,-609.69 1031.61,-609.69 1043.17,-611.94 1048.74,-614.18 1048.74,-614.18 1103.43,-636.23 1103.43,-636.23 1109,-638.48 1109,-642.96 1103.43,-645.21"/>
<text xml:space="preserve" text-anchor="middle" x="960.65" y="-642.42" font-family="Vera Sans Mono" font-size="14.00">kh_process_ipoke_recording</text>
<text xml:space="preserve" text-anchor="middle" x="960.65" y="-627.42" font-family="Vera Sans Mono" font-size="14.00">2711</text>
</g>
<!-- karma_mono_perform&#45;&gt;kh_process_ipoke_recording -->
<g id="edge52" class="edge">
<title>karma_mono_perform&#45;&gt;kh_process_ipoke_recording</title>
<path fill="none" stroke="black" d="M605.17,-851.81C628.4,-807.31 679.25,-722.8 748.57,-680.72 769.96,-667.74 794.63,-658.81 819.39,-652.71"/>
<polygon fill="black" stroke="black" points="819.94,-656.17 828.91,-650.52 818.38,-649.35 819.94,-656.17"/>
</g>
<!-- kh_process_recording_fade -->
<g id="node46" class="node">
<title>kh_process_recording_fade</title>
<path fill="#80ccee" stroke="none" d="M1098.59,-565.33C1098.59,-565.33 1046.24,-587.13 1046.24,-587.13 1040.7,-589.44 1029.16,-591.75 1023.16,-591.75 1023.16,-591.75 898.15,-591.75 898.15,-591.75 892.15,-591.75 880.61,-589.44 875.07,-587.13 875.07,-587.13 822.72,-565.33 822.72,-565.33 817.18,-563.03 817.18,-558.41 822.72,-556.11 822.72,-556.11 875.07,-534.31 875.07,-534.31 880.61,-532 892.15,-529.69 898.15,-529.69 898.15,-529.69 1023.16,-529.69 1023.16,-529.69 1029.16,-529.69 1040.7,-532 1046.24,-534.31 1046.24,-534.31 1098.59,-556.11 1098.59,-556.11 1104.13,-558.41 1104.13,-563.03 1098.59,-565.33"/>
<text xml:space="preserve" text-anchor="middle" x="960.65" y="-562.42" font-family="Vera Sans Mono" font-size="14.00">kh_process_recording_fade</text>
<text xml:space="preserve" text-anchor="middle" x="960.65" y="-547.42" font-family="Vera Sans Mono" font-size="14.00">2754</text>
</g>
<!-- karma_mono_perform&#45;&gt;kh_process_recording_fade -->
<g id="edge53" class="edge">
<title>karma_mono_perform&#45;&gt;kh_process_recording_fade</title>
<path fill="none" stroke="black" d="M598.5,-851.85C614.89,-794.08 660.02,-664.33 748.57,-600.72 768.82,-586.17 792.89,-576.49 817.41,-570.14"/>
<polygon fill="black" stroke="black" points="817.93,-573.61 826.84,-567.88 816.3,-566.8 817.93,-573.61"/>
</g>
<!-- kh_process_jump_logic -->
<g id="node47" class="node">
<title>kh_process_jump_logic</title>
<path fill="#80ccee" stroke="none" d="M2079.25,-442.93C2079.25,-442.93 2036.47,-463.54 2036.47,-463.54 2031.07,-466.14 2019.66,-468.75 2013.66,-468.75 2013.66,-468.75 1908.86,-468.75 1908.86,-468.75 1902.86,-468.75 1891.46,-466.14 1886.05,-463.54 1886.05,-463.54 1843.27,-442.93 1843.27,-442.93 1837.87,-440.32 1837.87,-435.11 1843.27,-432.51 1843.27,-432.51 1886.05,-411.9 1886.05,-411.9 1891.46,-409.3 1902.86,-406.69 1908.86,-406.69 1908.86,-406.69 2013.66,-406.69 2013.66,-406.69 2019.66,-406.69 2031.07,-409.3 2036.47,-411.9 2036.47,-411.9 2079.25,-432.51 2079.25,-432.51 2084.66,-435.11 2084.66,-440.32 2079.25,-442.93"/>
<text xml:space="preserve" text-anchor="middle" x="1961.26" y="-439.42" font-family="Vera Sans Mono" font-size="14.00">kh_process_jump_logic</text>
<text xml:space="preserve" text-anchor="middle" x="1961.26" y="-424.42" font-family="Vera Sans Mono" font-size="14.00">2787</text>
</g>
<!-- karma_mono_perform&#45;&gt;kh_process_jump_logic -->
<g id="edge54" class="edge">
<title>karma_mono_perform&#45;&gt;kh_process_jump_logic</title>
<path fill="none" stroke="black" d="M592.42,-851.91C598.86,-724.18 631.77,-211.11 748.57,-113.72 908.61,19.73 1497.86,-14.61 1686.23,-103.72 1816.23,-165.21 1905.21,-321.95 1941.7,-396.76"/>
<polygon fill="black" stroke="black" points="1938.36,-397.9 1945.84,-405.4 1944.67,-394.87 1938.36,-397.9"/>
</g>
<!-- kh_process_initial_loop_creation -->
<g id="node48" class="node">
<title>kh_process_initial_loop_creation</title>
<path fill="#80ccee" stroke="none" d="M2122.86,-949.77C2122.86,-949.77 2059,-972.69 2059,-972.69 2053.36,-974.72 2041.71,-976.75 2035.71,-976.75 2035.71,-976.75 1886.82,-976.75 1886.82,-976.75 1880.82,-976.75 1869.17,-974.72 1863.52,-972.69 1863.52,-972.69 1799.66,-949.77 1799.66,-949.77 1794.02,-947.75 1794.02,-943.69 1799.66,-941.67 1799.66,-941.67 1863.52,-918.75 1863.52,-918.75 1869.17,-916.72 1880.82,-914.69 1886.82,-914.69 1886.82,-914.69 2035.71,-914.69 2035.71,-914.69 2041.71,-914.69 2053.36,-916.72 2059,-918.75 2059,-918.75 2122.86,-941.67 2122.86,-941.67 2128.51,-943.69 2128.51,-947.75 2122.86,-949.77"/>
<text xml:space="preserve" text-anchor="middle" x="1961.26" y="-947.42" font-family="Vera Sans Mono" font-size="14.00">kh_process_initial_loop_creation</text>
<text xml:space="preserve" text-anchor="middle" x="1961.26" y="-932.42" font-family="Vera Sans Mono" font-size="14.00">685</text>
</g>
<!-- karma_mono_perform&#45;&gt;kh_process_initial_loop_creation -->
<g id="edge55" class="edge">
<title>karma_mono_perform&#45;&gt;kh_process_initial_loop_creation</title>
<path fill="none" stroke="black" d="M603.58,-909.72C625.28,-955.99 674.82,-1044.92 748.57,-1080.72 790.97,-1101.3 1136.51,-1110.87 1172.74,-1080.72 1240.48,-1024.34 1141,-942.1 1208.74,-885.72 1302.95,-807.31 1661.59,-875.75 1847.29,-918.13"/>
<polygon fill="black" stroke="black" points="1846.45,-921.53 1856.98,-920.36 1848.02,-914.71 1846.45,-921.53"/>
</g>
<!-- kh_process_initial_loop_boundary_constraints -->
<g id="node49" class="node">
<title>kh_process_initial_loop_boundary_constraints</title>
<path fill="#80ccee" stroke="none" d="M2188.68,-1456.73C2188.68,-1456.73 2092.39,-1481.73 2092.39,-1481.73 2086.58,-1483.24 2074.78,-1484.75 2068.78,-1484.75 2068.78,-1484.75 1853.75,-1484.75 1853.75,-1484.75 1847.75,-1484.75 1835.94,-1483.24 1830.13,-1481.73 1830.13,-1481.73 1733.85,-1456.73 1733.85,-1456.73 1728.04,-1455.23 1728.04,-1452.21 1733.85,-1450.7 1733.85,-1450.7 1830.13,-1425.71 1830.13,-1425.71 1835.94,-1424.2 1847.75,-1422.69 1853.75,-1422.69 1853.75,-1422.69 2068.78,-1422.69 2068.78,-1422.69 2074.78,-1422.69 2086.58,-1424.2 2092.39,-1425.71 2092.39,-1425.71 2188.68,-1450.7 2188.68,-1450.7 2194.48,-1452.21 2194.48,-1455.23 2188.68,-1456.73"/>
<text xml:space="preserve" text-anchor="middle" x="1961.26" y="-1455.42" font-family="Vera Sans Mono" font-size="14.00">kh_process_initial_loop_boundary_constraints</text>
<text xml:space="preserve" text-anchor="middle" x="1961.26" y="-1440.42" font-family="Vera Sans Mono" font-size="14.00">2934</text>
</g>
<!-- karma_mono_perform&#45;&gt;kh_process_initial_loop_boundary_constraints -->
<g id="edge56" class="edge">
<title>karma_mono_perform&#45;&gt;kh_process_initial_loop_boundary_constraints</title>
<path fill="none" stroke="black" d="M590.26,-909.52C589.45,-996.15 600,-1255.67 748.57,-1374.72 899.75,-1495.86 1458.4,-1483.78 1761.52,-1467.32"/>
<polygon fill="black" stroke="black" points="1761.33,-1470.84 1771.13,-1466.79 1760.95,-1463.85 1761.33,-1470.84"/>
</g>
<!-- kh_process_initial_loop_ipoke_recording -->
<g id="node50" class="node">
<title>kh_process_initial_loop_ipoke_recording</title>
<path fill="#80ccee" stroke="none" d="M1161.22,-157.09C1161.22,-157.09 1078.21,-181.38 1078.21,-181.38 1072.45,-183.06 1060.69,-184.75 1054.69,-184.75 1054.69,-184.75 866.61,-184.75 866.61,-184.75 860.61,-184.75 848.85,-183.06 843.09,-181.38 843.09,-181.38 760.09,-157.09 760.09,-157.09 754.33,-155.4 754.33,-152.03 760.09,-150.35 760.09,-150.35 843.09,-126.06 843.09,-126.06 848.85,-124.38 860.61,-122.69 866.61,-122.69 866.61,-122.69 1054.69,-122.69 1054.69,-122.69 1060.69,-122.69 1072.45,-124.38 1078.21,-126.06 1078.21,-126.06 1161.22,-150.35 1161.22,-150.35 1166.98,-152.03 1166.98,-155.4 1161.22,-157.09"/>
<text xml:space="preserve" text-anchor="middle" x="960.65" y="-155.42" font-family="Vera Sans Mono" font-size="14.00">kh_process_initial_loop_ipoke_recording</text>
<text xml:space="preserve" text-anchor="middle" x="960.65" y="-140.42" font-family="Vera Sans Mono" font-size="14.00">2813</text>
</g>
<!-- karma_mono_perform&#45;&gt;kh_process_initial_loop_ipoke_recording -->
<g id="edge57" class="edge">
<title>karma_mono_perform&#45;&gt;kh_process_initial_loop_ipoke_recording</title>
<path fill="none" stroke="black" d="M593.77,-851.75C605.12,-734.26 653.38,-295.11 748.57,-200.72 760.27,-189.12 774.15,-180.12 789.14,-173.16"/>
<polygon fill="black" stroke="black" points="790.46,-176.4 798.28,-169.26 787.71,-169.96 790.46,-176.4"/>
</g>
<!-- kh_process_recording_fade_completion -->
<g id="node51" class="node">
<title>kh_process_recording_fade_completion</title>
<path fill="#80ccee" stroke="none" d="M1158.17,-484.13C1158.17,-484.13 1076.67,-508.33 1076.67,-508.33 1070.92,-510.04 1059.16,-511.75 1053.16,-511.75 1053.16,-511.75 868.14,-511.75 868.14,-511.75 862.14,-511.75 850.39,-510.04 844.64,-508.33 844.64,-508.33 763.13,-484.13 763.13,-484.13 757.38,-482.43 757.38,-479.01 763.13,-477.3 763.13,-477.3 844.64,-453.11 844.64,-453.11 850.39,-451.4 862.14,-449.69 868.14,-449.69 868.14,-449.69 1053.16,-449.69 1053.16,-449.69 1059.16,-449.69 1070.92,-451.4 1076.67,-453.11 1076.67,-453.11 1158.17,-477.3 1158.17,-477.3 1163.92,-479.01 1163.92,-482.43 1158.17,-484.13"/>
<text xml:space="preserve" text-anchor="middle" x="960.65" y="-482.42" font-family="Vera Sans Mono" font-size="14.00">kh_process_recording_fade_completion</text>
<text xml:space="preserve" text-anchor="middle" x="960.65" y="-467.42" font-family="Vera Sans Mono" font-size="14.00">376</text>
</g>
<!-- karma_mono_perform&#45;&gt;kh_process_recording_fade_completion -->
<g id="edge58" class="edge">
<title>karma_mono_perform&#45;&gt;kh_process_recording_fade_completion</title>
<path fill="none" stroke="black" d="M594.68,-851.66C604.81,-782.39 640.41,-606.92 748.57,-520.72 760.13,-511.5 773.18,-504.18 786.97,-498.39"/>
<polygon fill="black" stroke="black" points="788.17,-501.68 796.23,-494.8 785.64,-495.15 788.17,-501.68"/>
</g>
<!-- karma_buf_modify&#45;&gt;karma_select_start -->
<g id="edge59" class="edge">
<title>karma_buf_modify&#45;&gt;karma_select_start</title>
<path fill="none" stroke="black" d="M1063.58,-1530.77C1145.82,-1531.62 1260.99,-1532.81 1343.5,-1533.66"/>
<polygon fill="black" stroke="black" points="1343.37,-1537.16 1353.41,-1533.76 1343.44,-1530.16 1343.37,-1537.16"/>
</g>
<!-- karma_buf_modify&#45;&gt;karma_select_size -->
<g id="edge60" class="edge">
<title>karma_buf_modify&#45;&gt;karma_select_size</title>
<path fill="none" stroke="black" d="M1014.26,-1559.88C1086.04,-1601.01 1206.14,-1669.76 1208.74,-1670.72 1253.98,-1687.48 1306.43,-1698.46 1350.55,-1705.47"/>
<polygon fill="black" stroke="black" points="1349.95,-1708.92 1360.37,-1706.98 1351.02,-1702 1349.95,-1708.92"/>
</g>
<!-- kh_ease_bufoff -->
<g id="node52" class="node">
<title>kh_ease_bufoff</title>
<path fill="#eecc80" stroke="none" d="M2333.22,-1327.75C2333.22,-1327.75 2247.61,-1297.69 2247.61,-1297.69 2241.95,-1295.71 2241.95,-1291.73 2247.61,-1289.74 2247.61,-1289.74 2333.22,-1259.69 2333.22,-1259.69 2338.88,-1257.7 2350.2,-1257.7 2355.86,-1259.69 2355.86,-1259.69 2441.47,-1289.74 2441.47,-1289.74 2447.13,-1291.73 2447.13,-1295.71 2441.47,-1297.69 2441.47,-1297.69 2355.86,-1327.75 2355.86,-1327.75 2350.2,-1329.73 2338.88,-1329.73 2333.22,-1327.75"/>
<text xml:space="preserve" text-anchor="middle" x="2344.54" y="-1295.42" font-family="Vera Sans Mono" font-size="14.00">kh_ease_bufoff</text>
<text xml:space="preserve" text-anchor="middle" x="2344.54" y="-1280.42" font-family="Vera Sans Mono" font-size="14.00">321</text>
</g>
<!-- kh_process_direction_change&#45;&gt;kh_ease_bufoff -->
<g id="edge61" class="edge">
<title>kh_process_direction_change&#45;&gt;kh_ease_bufoff</title>
<path fill="none" stroke="black" d="M2077.15,-1356.93C2116.39,-1350.53 2160.41,-1342.61 2200.29,-1333.72 2224.98,-1328.21 2251.76,-1321.06 2275.41,-1314.33"/>
<polygon fill="black" stroke="black" points="2276.29,-1317.72 2284.93,-1311.59 2274.35,-1310.99 2276.29,-1317.72"/>
</g>
<!-- kh_process_record_toggle&#45;&gt;kh_ease_bufoff -->
<g id="edge62" class="edge">
<title>kh_process_record_toggle&#45;&gt;kh_ease_bufoff</title>
<path fill="none" stroke="black" d="M2103.96,-1293.72C2143.87,-1293.72 2186.85,-1293.72 2225.23,-1293.72"/>
<polygon fill="black" stroke="black" points="2224.95,-1297.22 2234.95,-1293.72 2224.95,-1290.22 2224.95,-1297.22"/>
</g>
<!-- kh_process_loop_initialization&#45;&gt;kh_ease_bufoff -->
<g id="edge63" class="edge">
<title>kh_process_loop_initialization&#45;&gt;kh_ease_bufoff</title>
<path fill="none" stroke="black" d="M2077.15,-1230.51C2116.39,-1236.91 2160.41,-1244.83 2200.29,-1253.72 2224.98,-1259.23 2251.76,-1266.38 2275.41,-1273.11"/>
<polygon fill="black" stroke="black" points="2274.35,-1276.45 2284.93,-1275.85 2276.29,-1269.72 2274.35,-1276.45"/>
</g>
<!-- kh_ease_bufon -->
<g id="node53" class="node">
<title>kh_ease_bufon</title>
<path fill="#eecc80" stroke="none" d="M2333.22,-1092.75C2333.22,-1092.75 2247.61,-1062.69 2247.61,-1062.69 2241.95,-1060.71 2241.95,-1056.73 2247.61,-1054.74 2247.61,-1054.74 2333.22,-1024.69 2333.22,-1024.69 2338.88,-1022.7 2350.2,-1022.7 2355.86,-1024.69 2355.86,-1024.69 2441.47,-1054.74 2441.47,-1054.74 2447.13,-1056.73 2447.13,-1060.71 2441.47,-1062.69 2441.47,-1062.69 2355.86,-1092.75 2355.86,-1092.75 2350.2,-1094.73 2338.88,-1094.73 2333.22,-1092.75"/>
<text xml:space="preserve" text-anchor="middle" x="2344.54" y="-1060.42" font-family="Vera Sans Mono" font-size="14.00">kh_ease_bufon</text>
<text xml:space="preserve" text-anchor="middle" x="2344.54" y="-1045.42" font-family="Vera Sans Mono" font-size="14.00">355</text>
</g>
<!-- kh_process_loop_initialization&#45;&gt;kh_ease_bufon -->
<g id="edge64" class="edge">
<title>kh_process_loop_initialization&#45;&gt;kh_ease_bufon</title>
<path fill="none" stroke="black" d="M2042.16,-1183.33C2088.5,-1165.49 2147.88,-1142.29 2200.29,-1120.72 2228.59,-1109.07 2259.8,-1095.63 2285.85,-1084.25"/>
<polygon fill="black" stroke="black" points="2287.16,-1087.5 2294.91,-1080.28 2284.35,-1081.09 2287.16,-1087.5"/>
</g>
<!-- kh_process_forward_jump_boundary -->
<g id="node55" class="node">
<title>kh_process_forward_jump_boundary</title>
<path fill="#eecc80" stroke="none" d="M1435.63,-1062.83C1435.63,-1062.83 1220.59,-1028.61 1220.59,-1028.61 1214.66,-1027.66 1214.66,-1025.78 1220.59,-1024.83 1220.59,-1024.83 1435.63,-990.6 1435.63,-990.6 1441.56,-989.66 1453.41,-989.66 1459.34,-990.6 1459.34,-990.6 1674.38,-1024.83 1674.38,-1024.83 1680.31,-1025.78 1680.31,-1027.66 1674.38,-1028.61 1674.38,-1028.61 1459.34,-1062.83 1459.34,-1062.83 1453.41,-1063.78 1441.56,-1063.78 1435.63,-1062.83"/>
<text xml:space="preserve" text-anchor="middle" x="1447.48" y="-1028.42" font-family="Vera Sans Mono" font-size="14.00">kh_process_forward_jump_boundary</text>
<text xml:space="preserve" text-anchor="middle" x="1447.48" y="-1013.42" font-family="Vera Sans Mono" font-size="14.00">482</text>
</g>
<!-- kh_process_loop_boundary&#45;&gt;kh_process_forward_jump_boundary -->
<g id="edge66" class="edge">
<title>kh_process_loop_boundary&#45;&gt;kh_process_forward_jump_boundary</title>
<path fill="none" stroke="black" d="M1078.3,-1145.92C1110.2,-1139.26 1143.9,-1129.12 1172.74,-1113.72 1192.42,-1103.2 1189.08,-1089.29 1208.74,-1078.72 1236.62,-1063.73 1268.54,-1053.06 1299.75,-1045.47"/>
<polygon fill="black" stroke="black" points="1300.33,-1048.92 1309.28,-1043.25 1298.75,-1042.11 1300.33,-1048.92"/>
</g>
<!-- kh_process_recording_cleanup -->
<g id="node56" class="node">
<title>kh_process_recording_cleanup</title>
<path fill="#80eecc" stroke="none" d="M2051.01,-1111.72C2051.01,-1111.72 1871.51,-1111.72 1871.51,-1111.72 1865.51,-1111.72 1859.51,-1105.72 1859.51,-1099.72 1859.51,-1099.72 1859.51,-1085.72 1859.51,-1085.72 1859.51,-1079.72 1865.51,-1073.72 1871.51,-1073.72 1871.51,-1073.72 2051.01,-1073.72 2051.01,-1073.72 2057.01,-1073.72 2063.01,-1079.72 2063.01,-1085.72 2063.01,-1085.72 2063.01,-1099.72 2063.01,-1099.72 2063.01,-1105.72 2057.01,-1111.72 2051.01,-1111.72"/>
<text xml:space="preserve" text-anchor="middle" x="1961.26" y="-1094.42" font-family="Vera Sans Mono" font-size="14.00">kh_process_recording_cleanup</text>
<text xml:space="preserve" text-anchor="middle" x="1961.26" y="-1079.42" font-family="Vera Sans Mono" font-size="14.00">461</text>
</g>
<!-- kh_process_loop_boundary&#45;&gt;kh_process_recording_cleanup -->
<g id="edge67" class="edge">
<title>kh_process_loop_boundary&#45;&gt;kh_process_recording_cleanup</title>
<path fill="none" stroke="black" d="M1056.74,-1136.88C1102.44,-1127.35 1158.15,-1117.13 1208.74,-1111.72 1434.82,-1087.52 1701.23,-1087.46 1848.38,-1089.89"/>
<polygon fill="black" stroke="black" points="1848.06,-1093.38 1858.12,-1090.06 1848.18,-1086.38 1848.06,-1093.38"/>
</g>
<!-- kh_process_reverse_jump_boundary -->
<g id="node57" class="node">
<title>kh_process_reverse_jump_boundary</title>
<path fill="#eecc80" stroke="none" d="M1435.63,-968.83C1435.63,-968.83 1220.59,-934.61 1220.59,-934.61 1214.66,-933.66 1214.66,-931.78 1220.59,-930.83 1220.59,-930.83 1435.63,-896.6 1435.63,-896.6 1441.56,-895.66 1453.41,-895.66 1459.34,-896.6 1459.34,-896.6 1674.38,-930.83 1674.38,-930.83 1680.31,-931.78 1680.31,-933.66 1674.38,-934.61 1674.38,-934.61 1459.34,-968.83 1459.34,-968.83 1453.41,-969.78 1441.56,-969.78 1435.63,-968.83"/>
<text xml:space="preserve" text-anchor="middle" x="1447.48" y="-934.42" font-family="Vera Sans Mono" font-size="14.00">kh_process_reverse_jump_boundary</text>
<text xml:space="preserve" text-anchor="middle" x="1447.48" y="-919.42" font-family="Vera Sans Mono" font-size="14.00">495</text>
</g>
<!-- kh_process_loop_boundary&#45;&gt;kh_process_reverse_jump_boundary -->
<g id="edge68" class="edge">
<title>kh_process_loop_boundary&#45;&gt;kh_process_reverse_jump_boundary</title>
<path fill="none" stroke="black" d="M1094.87,-1152.95C1123.48,-1145.95 1151.47,-1133.9 1172.74,-1113.72 1217.47,-1071.27 1163.69,-1021.83 1208.74,-979.72 1224.37,-965.1 1243.19,-954.43 1263.3,-946.73"/>
<polygon fill="black" stroke="black" points="1264.24,-950.11 1272.49,-943.47 1261.9,-943.51 1264.24,-950.11"/>
</g>
<!-- kh_process_forward_wrap_boundary -->
<g id="node58" class="node">
<title>kh_process_forward_wrap_boundary</title>
<path fill="#eecc80" stroke="none" d="M1435.63,-1288.83C1435.63,-1288.83 1221.33,-1254.61 1221.33,-1254.61 1215.41,-1253.67 1215.41,-1251.77 1221.33,-1250.83 1221.33,-1250.83 1435.63,-1216.61 1435.63,-1216.61 1441.56,-1215.66 1453.41,-1215.66 1459.33,-1216.61 1459.33,-1216.61 1673.63,-1250.83 1673.63,-1250.83 1679.56,-1251.77 1679.56,-1253.67 1673.63,-1254.61 1673.63,-1254.61 1459.33,-1288.83 1459.33,-1288.83 1453.41,-1289.77 1441.56,-1289.77 1435.63,-1288.83"/>
<text xml:space="preserve" text-anchor="middle" x="1447.48" y="-1254.42" font-family="Vera Sans Mono" font-size="14.00">kh_process_forward_wrap_boundary</text>
<text xml:space="preserve" text-anchor="middle" x="1447.48" y="-1239.42" font-family="Vera Sans Mono" font-size="14.00">509</text>
</g>
<!-- kh_process_loop_boundary&#45;&gt;kh_process_forward_wrap_boundary -->
<g id="edge69" class="edge">
<title>kh_process_loop_boundary&#45;&gt;kh_process_forward_wrap_boundary</title>
<path fill="none" stroke="black" d="M1062.11,-1178.2C1139.67,-1193.23 1247.17,-1214.08 1328.77,-1229.9"/>
<polygon fill="black" stroke="black" points="1327.88,-1233.29 1338.37,-1231.76 1329.22,-1226.42 1327.88,-1233.29"/>
</g>
<!-- kh_process_reverse_wrap_boundary -->
<g id="node59" class="node">
<title>kh_process_reverse_wrap_boundary</title>
<path fill="#eecc80" stroke="none" d="M1435.63,-1194.83C1435.63,-1194.83 1221.33,-1160.61 1221.33,-1160.61 1215.41,-1159.67 1215.41,-1157.77 1221.33,-1156.83 1221.33,-1156.83 1435.63,-1122.61 1435.63,-1122.61 1441.56,-1121.66 1453.41,-1121.66 1459.33,-1122.61 1459.33,-1122.61 1673.63,-1156.83 1673.63,-1156.83 1679.56,-1157.77 1679.56,-1159.67 1673.63,-1160.61 1673.63,-1160.61 1459.33,-1194.83 1459.33,-1194.83 1453.41,-1195.77 1441.56,-1195.77 1435.63,-1194.83"/>
<text xml:space="preserve" text-anchor="middle" x="1447.48" y="-1160.42" font-family="Vera Sans Mono" font-size="14.00">kh_process_reverse_wrap_boundary</text>
<text xml:space="preserve" text-anchor="middle" x="1447.48" y="-1145.42" font-family="Vera Sans Mono" font-size="14.00">523</text>
</g>
<!-- kh_process_loop_boundary&#45;&gt;kh_process_reverse_wrap_boundary -->
<g id="edge70" class="edge">
<title>kh_process_loop_boundary&#45;&gt;kh_process_reverse_wrap_boundary</title>
<path fill="none" stroke="black" d="M1108.76,-1158.72C1137.18,-1158.72 1167.67,-1158.72 1198.29,-1158.72"/>
<polygon fill="black" stroke="black" points="1198.06,-1162.22 1208.06,-1158.72 1198.06,-1155.22 1198.06,-1162.22"/>
</g>
<!-- kh_wrap_index -->
<g id="node60" class="node">
<title>kh_wrap_index</title>
<path fill="#eecc80" stroke="none" d="M1436.18,-834.7C1436.18,-834.7 1352.04,-804.74 1352.04,-804.74 1346.39,-802.73 1346.39,-798.71 1352.04,-796.69 1352.04,-796.69 1436.18,-766.74 1436.18,-766.74 1441.83,-764.73 1453.14,-764.73 1458.79,-766.74 1458.79,-766.74 1542.93,-796.69 1542.93,-796.69 1548.58,-798.71 1548.58,-802.73 1542.93,-804.74 1542.93,-804.74 1458.79,-834.7 1458.79,-834.7 1453.14,-836.71 1441.83,-836.71 1436.18,-834.7"/>
<text xml:space="preserve" text-anchor="middle" x="1447.48" y="-802.42" font-family="Vera Sans Mono" font-size="14.00">kh_wrap_index</text>
<text xml:space="preserve" text-anchor="middle" x="1447.48" y="-787.42" font-family="Vera Sans Mono" font-size="14.00">733</text>
</g>
<!-- kh_interp_index&#45;&gt;kh_wrap_index -->
<g id="edge77" class="edge">
<title>kh_interp_index&#45;&gt;kh_wrap_index</title>
<path fill="none" stroke="black" d="M1044.87,-1045.22C1088.22,-1043.04 1139.07,-1032.7 1172.74,-1000.72 1221.82,-954.1 1160.31,-900.03 1208.74,-852.72 1241.47,-820.74 1289.07,-806.51 1333.09,-800.74"/>
<polygon fill="black" stroke="black" points="1333.46,-804.22 1342.99,-799.59 1332.66,-797.26 1333.46,-804.22"/>
</g>
<!-- kh_linear_interp -->
<g id="node61" class="node">
<title>kh_linear_interp</title>
<path fill="#eecc80" stroke="none" d="M1436.12,-278.86C1436.12,-278.86 1346.85,-248.57 1346.85,-248.57 1341.17,-246.65 1341.17,-242.79 1346.85,-240.86 1346.85,-240.86 1436.12,-210.57 1436.12,-210.57 1441.8,-208.65 1453.17,-208.65 1458.85,-210.57 1458.85,-210.57 1548.12,-240.86 1548.12,-240.86 1553.8,-242.79 1553.8,-246.65 1548.12,-248.57 1548.12,-248.57 1458.85,-278.86 1458.85,-278.86 1453.17,-280.79 1441.8,-280.79 1436.12,-278.86"/>
<text xml:space="preserve" text-anchor="middle" x="1447.48" y="-246.42" font-family="Vera Sans Mono" font-size="14.00">kh_linear_interp</text>
<text xml:space="preserve" text-anchor="middle" x="1447.48" y="-231.42" font-family="Vera Sans Mono" font-size="14.00">258</text>
</g>
<!-- kh_perform_playback_interpolation&#45;&gt;kh_linear_interp -->
<g id="edge78" class="edge">
<title>kh_perform_playback_interpolation&#45;&gt;kh_linear_interp</title>
<path fill="none" stroke="black" d="M1141.15,-242.2C1203.08,-242.71 1270.89,-243.27 1326.84,-243.73"/>
<polygon fill="black" stroke="black" points="1326.69,-247.23 1336.72,-243.81 1326.75,-240.23 1326.69,-247.23"/>
</g>
<!-- kh_cubic_interp -->
<g id="node62" class="node">
<title>kh_cubic_interp</title>
<path fill="#eecc80" stroke="none" d="M1436.14,-466.82C1436.14,-466.82 1348.33,-436.62 1348.33,-436.62 1342.66,-434.67 1342.66,-430.77 1348.33,-428.82 1348.33,-428.82 1436.14,-398.62 1436.14,-398.62 1441.81,-396.67 1453.16,-396.67 1458.83,-398.62 1458.83,-398.62 1546.64,-428.82 1546.64,-428.82 1552.31,-430.77 1552.31,-434.67 1546.64,-436.62 1546.64,-436.62 1458.83,-466.82 1458.83,-466.82 1453.16,-468.77 1441.81,-468.77 1436.14,-466.82"/>
<text xml:space="preserve" text-anchor="middle" x="1447.48" y="-434.42" font-family="Vera Sans Mono" font-size="14.00">kh_cubic_interp</text>
<text xml:space="preserve" text-anchor="middle" x="1447.48" y="-419.42" font-family="Vera Sans Mono" font-size="14.00">264</text>
</g>
<!-- kh_perform_playback_interpolation&#45;&gt;kh_cubic_interp -->
<g id="edge79" class="edge">
<title>kh_perform_playback_interpolation&#45;&gt;kh_cubic_interp</title>
<path fill="none" stroke="black" d="M1116.6,-250.33C1137.12,-257.01 1156.6,-266.74 1172.74,-280.72 1210.02,-313.02 1171.58,-353.27 1208.74,-385.72 1242.12,-414.87 1288.28,-427.99 1331.06,-433.33"/>
<polygon fill="black" stroke="black" points="1330.6,-436.81 1340.93,-434.42 1331.37,-429.85 1330.6,-436.81"/>
</g>
<!-- kh_spline_interp -->
<g id="node63" class="node">
<title>kh_spline_interp</title>
<path fill="#eecc80" stroke="none" d="M1436.1,-372.93C1436.1,-372.93 1344.62,-342.51 1344.62,-342.51 1338.93,-340.61 1338.93,-336.83 1344.62,-334.93 1344.62,-334.93 1436.1,-304.5 1436.1,-304.5 1441.79,-302.61 1453.18,-302.61 1458.87,-304.5 1458.87,-304.5 1550.35,-334.93 1550.35,-334.93 1556.04,-336.83 1556.04,-340.61 1550.35,-342.51 1550.35,-342.51 1458.87,-372.93 1458.87,-372.93 1453.18,-374.83 1441.79,-374.83 1436.1,-372.93"/>
<text xml:space="preserve" text-anchor="middle" x="1447.48" y="-340.42" font-family="Vera Sans Mono" font-size="14.00">kh_spline_interp</text>
<text xml:space="preserve" text-anchor="middle" x="1447.48" y="-325.42" font-family="Vera Sans Mono" font-size="14.00">270</text>
</g>
<!-- kh_perform_playback_interpolation&#45;&gt;kh_spline_interp -->
<g id="edge80" class="edge">
<title>kh_perform_playback_interpolation&#45;&gt;kh_spline_interp</title>
<path fill="none" stroke="black" d="M1083.53,-261.47C1112.88,-267.11 1144.04,-273.64 1172.74,-280.72 1188.98,-284.73 1192.51,-287.65 1208.74,-291.72 1258.68,-304.25 1315.2,-315.54 1360.6,-323.91"/>
<polygon fill="black" stroke="black" points="1359.94,-327.35 1370.41,-325.71 1361.2,-320.47 1359.94,-327.35"/>
</g>
<!-- kh_process_jump_logic&#45;&gt;kh_ease_bufon -->
<g id="edge81" class="edge">
<title>kh_process_jump_logic&#45;&gt;kh_ease_bufon</title>
<path fill="none" stroke="black" d="M1981.17,-468.51C2044.32,-571.37 2247.94,-903.01 2318.88,-1018.56"/>
<polygon fill="black" stroke="black" points="2315.74,-1020.12 2323.95,-1026.82 2321.7,-1016.46 2315.74,-1020.12"/>
</g>
<!-- kh_process_initial_loop_creation&#45;&gt;kh_ease_bufon -->
<g id="edge82" class="edge">
<title>kh_process_initial_loop_creation&#45;&gt;kh_ease_bufon</title>
<path fill="none" stroke="black" d="M2056.02,-973.51C2123.73,-993.57 2213.64,-1020.22 2274.76,-1038.34"/>
<polygon fill="black" stroke="black" points="2273.42,-1041.59 2284,-1041.07 2275.41,-1034.88 2273.42,-1041.59"/>
</g>
<!-- kh_process_initial_loop_boundary_constraints&#45;&gt;kh_ease_bufoff -->
<g id="edge83" class="edge">
<title>kh_process_initial_loop_boundary_constraints&#45;&gt;kh_ease_bufoff</title>
<path fill="none" stroke="black" d="M2133.03,-1436.38C2156.23,-1430.78 2179.27,-1423.41 2200.29,-1413.72 2243.15,-1393.97 2283.55,-1357.92 2310.45,-1330.47"/>
<polygon fill="black" stroke="black" points="2312.89,-1332.98 2317.3,-1323.35 2307.85,-1328.13 2312.89,-1332.98"/>
</g>
<!-- kh_apply_ipoke_interpolation -->
<g id="node64" class="node">
<title>kh_apply_ipoke_interpolation</title>
<path fill="#eecc80" stroke="none" d="M1435.72,-186.38C1435.72,-186.38 1268.5,-153.06 1268.5,-153.06 1262.62,-151.89 1262.62,-149.55 1268.5,-148.37 1268.5,-148.37 1435.72,-115.06 1435.72,-115.06 1441.6,-113.89 1453.37,-113.89 1459.25,-115.06 1459.25,-115.06 1626.47,-148.37 1626.47,-148.37 1632.35,-149.55 1632.35,-151.89 1626.47,-153.06 1626.47,-153.06 1459.25,-186.38 1459.25,-186.38 1453.37,-187.55 1441.6,-187.55 1435.72,-186.38"/>
<text xml:space="preserve" text-anchor="middle" x="1447.48" y="-152.42" font-family="Vera Sans Mono" font-size="14.00">kh_apply_ipoke_interpolation</text>
<text xml:space="preserve" text-anchor="middle" x="1447.48" y="-137.42" font-family="Vera Sans Mono" font-size="14.00">432</text>
</g>
<!-- kh_process_initial_loop_ipoke_recording&#45;&gt;kh_apply_ipoke_interpolation -->
<g id="edge84" class="edge">
<title>kh_process_initial_loop_ipoke_recording&#45;&gt;kh_apply_ipoke_interpolation</title>
<path fill="none" stroke="black" d="M1168.32,-152.44C1195.82,-152.27 1223.95,-152.1 1251.25,-151.93"/>
<polygon fill="black" stroke="black" points="1251,-155.43 1260.97,-151.87 1250.95,-148.43 1251,-155.43"/>
</g>
<!-- kh_apply_fade -->
<g id="node54" class="node">
<title>kh_apply_fade</title>
<path fill="#80eecc" stroke="none" d="M2580.54,-1077.72C2580.54,-1077.72 2500.79,-1077.72 2500.79,-1077.72 2494.79,-1077.72 2488.79,-1071.72 2488.79,-1065.72 2488.79,-1065.72 2488.79,-1051.72 2488.79,-1051.72 2488.79,-1045.72 2494.79,-1039.72 2500.79,-1039.72 2500.79,-1039.72 2580.54,-1039.72 2580.54,-1039.72 2586.54,-1039.72 2592.54,-1045.72 2592.54,-1051.72 2592.54,-1051.72 2592.54,-1065.72 2592.54,-1065.72 2592.54,-1071.72 2586.54,-1077.72 2580.54,-1077.72"/>
<text xml:space="preserve" text-anchor="middle" x="2540.66" y="-1060.42" font-family="Vera Sans Mono" font-size="14.00">kh_apply_fade</text>
<text xml:space="preserve" text-anchor="middle" x="2540.66" y="-1045.42" font-family="Vera Sans Mono" font-size="14.00">344</text>
</g>
<!-- kh_ease_bufon&#45;&gt;kh_apply_fade -->
<g id="edge65" class="edge">
<title>kh_ease_bufon&#45;&gt;kh_apply_fade</title>
<path fill="none" stroke="black" d="M2452.54,-1058.72C2461.04,-1058.72 2469.44,-1058.72 2477.48,-1058.72"/>
<polygon fill="black" stroke="black" points="2477.44,-1062.22 2487.44,-1058.72 2477.44,-1055.22 2477.44,-1062.22"/>
</g>
<!-- kh_process_forward_jump_boundary&#45;&gt;kh_process_recording_cleanup -->
<g id="edge71" class="edge">
<title>kh_process_forward_jump_boundary&#45;&gt;kh_process_recording_cleanup</title>
<path fill="none" stroke="black" d="M1579.62,-1043.63C1662.92,-1054.37 1769.57,-1068.13 1848.78,-1078.34"/>
<polygon fill="black" stroke="black" points="1847.9,-1081.76 1858.27,-1079.57 1848.8,-1074.82 1847.9,-1081.76"/>
</g>
<!-- kh_process_recording_cleanup&#45;&gt;kh_ease_bufoff -->
<g id="edge72" class="edge">
<title>kh_process_recording_cleanup&#45;&gt;kh_ease_bufoff</title>
<path fill="none" stroke="black" d="M2041.18,-1111.66C2089.06,-1125.04 2150.36,-1145.62 2200.29,-1173.72 2240.9,-1196.58 2281.04,-1231.56 2308.45,-1257.87"/>
<polygon fill="black" stroke="black" points="2305.84,-1260.22 2315.45,-1264.68 2310.72,-1255.2 2305.84,-1260.22"/>
</g>
<!-- kh_process_recording_cleanup&#45;&gt;kh_ease_bufon -->
<g id="edge73" class="edge">
<title>kh_process_recording_cleanup&#45;&gt;kh_ease_bufon</title>
<path fill="none" stroke="black" d="M2062.94,-1083.74C2119.8,-1078.67 2190.52,-1072.36 2246.74,-1067.35"/>
<polygon fill="black" stroke="black" points="2246.99,-1070.84 2256.64,-1066.47 2246.37,-1063.87 2246.99,-1070.84"/>
</g>
<!-- kh_process_reverse_jump_boundary&#45;&gt;kh_process_recording_cleanup -->
<g id="edge74" class="edge">
<title>kh_process_reverse_jump_boundary&#45;&gt;kh_process_recording_cleanup</title>
<path fill="none" stroke="black" d="M1567.51,-951.52C1605.81,-958.82 1648.17,-968.23 1686.23,-979.72 1767.06,-1004.12 1856.83,-1043.65 1910.89,-1068.9"/>
<polygon fill="black" stroke="black" points="1909.31,-1072.03 1919.84,-1073.11 1912.28,-1065.69 1909.31,-1072.03"/>
</g>
<!-- kh_process_forward_wrap_boundary&#45;&gt;kh_process_recording_cleanup -->
<g id="edge75" class="edge">
<title>kh_process_forward_wrap_boundary&#45;&gt;kh_process_recording_cleanup</title>
<path fill="none" stroke="black" d="M1589.9,-1237.52C1622.64,-1230.57 1656.56,-1220.46 1686.23,-1205.72 1705.41,-1196.2 1703.73,-1184.49 1722.23,-1173.72 1767.46,-1147.38 1822.53,-1127.95 1868.3,-1114.73"/>
<polygon fill="black" stroke="black" points="1869,-1118.17 1877.67,-1112.08 1867.09,-1111.43 1869,-1118.17"/>
</g>
<!-- kh_process_reverse_wrap_boundary&#45;&gt;kh_process_recording_cleanup -->
<g id="edge76" class="edge">
<title>kh_process_reverse_wrap_boundary&#45;&gt;kh_process_recording_cleanup</title>
<path fill="none" stroke="black" d="M1579.28,-1141.85C1662.58,-1131.11 1769.34,-1117.34 1848.64,-1107.11"/>
<polygon fill="black" stroke="black" points="1848.67,-1110.64 1858.14,-1105.89 1847.77,-1103.7 1848.67,-1110.64"/>
</g>
<!-- kh_process_audio_interpolation -->
<g id="node65" class="node">
<title>kh_process_audio_interpolation</title>
<path fill="#eecc80" stroke="none" d="M194.5,-1503.72C194.5,-1503.72 12,-1503.72 12,-1503.72 6,-1503.72 0,-1497.72 0,-1491.72 0,-1491.72 0,-1477.72 0,-1477.72 0,-1471.72 6,-1465.72 12,-1465.72 12,-1465.72 194.5,-1465.72 194.5,-1465.72 200.5,-1465.72 206.5,-1471.72 206.5,-1477.72 206.5,-1477.72 206.5,-1491.72 206.5,-1491.72 206.5,-1497.72 200.5,-1503.72 194.5,-1503.72"/>
<text xml:space="preserve" text-anchor="middle" x="103.25" y="-1486.42" font-family="Vera Sans Mono" font-size="14.00">kh_process_audio_interpolation</text>
<text xml:space="preserve" text-anchor="middle" x="103.25" y="-1471.42" font-family="Vera Sans Mono" font-size="14.00">3017</text>
</g>
</g>
</svg>
