<?xml version="1.0" encoding="UTF-8" standalone="no"?>
<!DOCTYPE svg PUBLIC "-//W3C//DTD SVG 1.1//EN"
 "http://www.w3.org/Graphics/SVG/1.1/DTD/svg11.dtd">
<!-- Generated by graphviz version 13.1.2 (20250808.2320)
 -->
<!-- Pages: 1 -->
<svg width="1153pt" height="1612pt"
 viewBox="0.00 0.00 1153.00 1612.00" xmlns="http://www.w3.org/2000/svg" xmlns:xlink="http://www.w3.org/1999/xlink">
<g id="graph0" class="graph" transform="scale(1 1) rotate(0) translate(4 1608.45)">
<polygon fill="white" stroke="none" points="-4,4 -4,-1608.45 1148.84,-1608.45 1148.84,4 -4,4"/>
<text xml:space="preserve" text-anchor="middle" x="572.42" y="-7.2" font-family="Times,serif" font-size="14.00">source/projects/karma_tilde/karma~.c</text>
<!-- ext_main -->
<g id="node1" class="node">
<title>ext_main</title>
<path fill="#eecc80" stroke="none" d="M59.5,-650.37C59.5,-650.37 12,-650.37 12,-650.37 6,-650.37 0,-644.37 0,-638.37 0,-638.37 0,-624.37 0,-624.37 0,-618.37 6,-612.37 12,-612.37 12,-612.37 59.5,-612.37 59.5,-612.37 65.5,-612.37 71.5,-618.37 71.5,-624.37 71.5,-624.37 71.5,-638.37 71.5,-638.37 71.5,-644.37 65.5,-650.37 59.5,-650.37"/>
<text xml:space="preserve" text-anchor="middle" x="35.75" y="-633.07" font-family="Vera Sans Mono" font-size="14.00">ext_main</text>
<text xml:space="preserve" text-anchor="middle" x="35.75" y="-618.07" font-family="Vera Sans Mono" font-size="14.00">333</text>
</g>
<!-- karma_new -->
<g id="node2" class="node">
<title>karma_new</title>
<ellipse fill="#eecc80" stroke="none" cx="202.08" cy="-1575.37" rx="61.66" ry="27.37"/>
<text xml:space="preserve" text-anchor="middle" x="202.08" y="-1577.07" font-family="Vera Sans Mono" font-size="14.00">karma_new</text>
<text xml:space="preserve" text-anchor="middle" x="202.08" y="-1562.07" font-family="Vera Sans Mono" font-size="14.00">396</text>
</g>
<!-- ext_main&#45;&gt;karma_new -->
<g id="edge1" class="edge">
<title>ext_main&#45;&gt;karma_new</title>
<path fill="none" stroke="black" d="M37.03,-650.25C39,-773.93 52.45,-1465.53 107.5,-1539.37 114.52,-1548.78 124.33,-1555.73 134.98,-1560.87"/>
<polygon fill="black" stroke="black" points="133.42,-1564.01 143.99,-1564.67 136.14,-1557.56 133.42,-1564.01"/>
</g>
<!-- karma_free -->
<g id="node3" class="node">
<title>karma_free</title>
<ellipse fill="#eecc80" stroke="none" cx="202.08" cy="-1503.37" rx="60.61" ry="27.37"/>
<text xml:space="preserve" text-anchor="middle" x="202.08" y="-1505.07" font-family="Vera Sans Mono" font-size="14.00">karma_free</text>
<text xml:space="preserve" text-anchor="middle" x="202.08" y="-1490.07" font-family="Vera Sans Mono" font-size="14.00">502</text>
</g>
<!-- ext_main&#45;&gt;karma_free -->
<g id="edge2" class="edge">
<title>ext_main&#45;&gt;karma_free</title>
<path fill="none" stroke="black" d="M37.21,-650.11C40.23,-767.08 58.61,-1394.09 107.5,-1462.37 115.09,-1472.97 126.03,-1480.86 137.77,-1486.72"/>
<polygon fill="black" stroke="black" points="136.29,-1489.9 146.85,-1490.76 139.14,-1483.5 136.29,-1489.9"/>
</g>
<!-- karma_select_start -->
<g id="node4" class="node">
<title>karma_select_start</title>
<ellipse fill="#eecc80" stroke="none" cx="1052.39" cy="-1340.37" rx="92.96" ry="27.37"/>
<text xml:space="preserve" text-anchor="middle" x="1052.39" y="-1342.07" font-family="Vera Sans Mono" font-size="14.00">karma_select_start</text>
<text xml:space="preserve" text-anchor="middle" x="1052.39" y="-1327.07" font-family="Vera Sans Mono" font-size="14.00">1283</text>
</g>
<!-- ext_main&#45;&gt;karma_select_start -->
<g id="edge3" class="edge">
<title>ext_main&#45;&gt;karma_select_start</title>
<path fill="none" stroke="black" d="M37.9,-650.21C42.89,-727.42 64.29,-1019.28 107.5,-1099.37 171.34,-1217.68 217.39,-1232.17 332.65,-1301.37 562.25,-1439.21 665.96,-1489.25 923.93,-1417.37 955.59,-1408.55 987.23,-1389.5 1011.07,-1372.56"/>
<polygon fill="black" stroke="black" points="1012.89,-1375.56 1018.91,-1366.84 1008.77,-1369.91 1012.89,-1375.56"/>
</g>
<!-- karma_select_size -->
<g id="node5" class="node">
<title>karma_select_size</title>
<ellipse fill="#eecc80" stroke="none" cx="1052.39" cy="-624.37" rx="91.36" ry="27.37"/>
<text xml:space="preserve" text-anchor="middle" x="1052.39" y="-626.07" font-family="Vera Sans Mono" font-size="14.00">karma_select_size</text>
<text xml:space="preserve" text-anchor="middle" x="1052.39" y="-611.07" font-family="Vera Sans Mono" font-size="14.00">1324</text>
</g>
<!-- ext_main&#45;&gt;karma_select_size -->
<g id="edge4" class="edge">
<title>ext_main&#45;&gt;karma_select_size</title>
<path fill="none" stroke="black" d="M38.39,-612.46C43.94,-553.58 64.09,-375.46 107.5,-341.37 255.09,-225.45 754.08,-477.54 923.93,-557.37 948.65,-568.99 975.49,-582.9 998.13,-595.02"/>
<polygon fill="black" stroke="black" points="996.42,-598.07 1006.88,-599.73 999.74,-591.91 996.42,-598.07"/>
</g>
<!-- karma_jump -->
<g id="node6" class="node">
<title>karma_jump</title>
<ellipse fill="#eecc80" stroke="none" cx="202.08" cy="-991.37" rx="65.38" ry="27.37"/>
<text xml:space="preserve" text-anchor="middle" x="202.08" y="-993.07" font-family="Vera Sans Mono" font-size="14.00">karma_jump</text>
<text xml:space="preserve" text-anchor="middle" x="202.08" y="-978.07" font-family="Vera Sans Mono" font-size="14.00">1534</text>
</g>
<!-- ext_main&#45;&gt;karma_jump -->
<g id="edge5" class="edge">
<title>ext_main&#45;&gt;karma_jump</title>
<path fill="none" stroke="black" d="M38.51,-650.03C44.69,-711.8 67.19,-908.4 107.5,-955.37 114.48,-963.51 123.52,-969.81 133.23,-974.7"/>
<polygon fill="black" stroke="black" points="131.58,-977.79 142.14,-978.67 134.43,-971.4 131.58,-977.79"/>
</g>
<!-- karma_stop -->
<g id="node7" class="node">
<title>karma_stop</title>
<ellipse fill="#eecc80" stroke="none" cx="202.08" cy="-919.37" rx="62.2" ry="27.37"/>
<text xml:space="preserve" text-anchor="middle" x="202.08" y="-921.07" font-family="Vera Sans Mono" font-size="14.00">karma_stop</text>
<text xml:space="preserve" text-anchor="middle" x="202.08" y="-906.07" font-family="Vera Sans Mono" font-size="14.00">1363</text>
</g>
<!-- ext_main&#45;&gt;karma_stop -->
<g id="edge6" class="edge">
<title>ext_main&#45;&gt;karma_stop</title>
<path fill="none" stroke="black" d="M36.6,-650.19C37.26,-696.09 45.24,-815 107.5,-883.37 115.15,-891.77 124.98,-898.22 135.38,-903.18"/>
<polygon fill="black" stroke="black" points="133.94,-906.38 144.51,-907.06 136.68,-899.93 133.94,-906.38"/>
</g>
<!-- karma_play -->
<g id="node8" class="node">
<title>karma_play</title>
<ellipse fill="#eecc80" stroke="none" cx="202.08" cy="-847.37" rx="61.66" ry="27.37"/>
<text xml:space="preserve" text-anchor="middle" x="202.08" y="-849.07" font-family="Vera Sans Mono" font-size="14.00">karma_play</text>
<text xml:space="preserve" text-anchor="middle" x="202.08" y="-834.07" font-family="Vera Sans Mono" font-size="14.00">1375</text>
</g>
<!-- ext_main&#45;&gt;karma_play -->
<g id="edge7" class="edge">
<title>ext_main&#45;&gt;karma_play</title>
<path fill="none" stroke="black" d="M39.1,-650.13C44.57,-686.18 61.39,-765.59 107.5,-811.37 115.74,-819.55 126.03,-825.91 136.76,-830.84"/>
<polygon fill="black" stroke="black" points="135.14,-833.96 145.72,-834.57 137.83,-827.5 135.14,-833.96"/>
</g>
<!-- karma_record -->
<g id="node9" class="node">
<title>karma_record</title>
<ellipse fill="#eecc80" stroke="none" cx="202.08" cy="-775.37" rx="71.21" ry="27.37"/>
<text xml:space="preserve" text-anchor="middle" x="202.08" y="-777.07" font-family="Vera Sans Mono" font-size="14.00">karma_record</text>
<text xml:space="preserve" text-anchor="middle" x="202.08" y="-762.07" font-family="Vera Sans Mono" font-size="14.00">1391</text>
</g>
<!-- ext_main&#45;&gt;karma_record -->
<g id="edge8" class="edge">
<title>ext_main&#45;&gt;karma_record</title>
<path fill="none" stroke="black" d="M44.53,-649.97C55.37,-673.78 77.15,-714.87 107.5,-739.37 115.28,-745.65 124.27,-750.92 133.54,-755.32"/>
<polygon fill="black" stroke="black" points="132.13,-758.52 142.69,-759.32 134.93,-752.11 132.13,-758.52"/>
</g>
<!-- karma_append -->
<g id="node10" class="node">
<title>karma_append</title>
<ellipse fill="#eecc80" stroke="none" cx="202.08" cy="-703.37" rx="75.98" ry="27.37"/>
<text xml:space="preserve" text-anchor="middle" x="202.08" y="-705.07" font-family="Vera Sans Mono" font-size="14.00">karma_append</text>
<text xml:space="preserve" text-anchor="middle" x="202.08" y="-690.07" font-family="Vera Sans Mono" font-size="14.00">1498</text>
</g>
<!-- ext_main&#45;&gt;karma_append -->
<g id="edge9" class="edge">
<title>ext_main&#45;&gt;karma_append</title>
<path fill="none" stroke="black" d="M71.31,-649.86C82.71,-655.71 95.54,-662.04 107.5,-667.37 117.18,-671.68 127.54,-675.97 137.72,-680.02"/>
<polygon fill="black" stroke="black" points="136.23,-683.19 146.81,-683.58 138.78,-676.67 136.23,-683.19"/>
</g>
<!-- karma_resetloop -->
<g id="node11" class="node">
<title>karma_resetloop</title>
<ellipse fill="#eecc80" stroke="none" cx="473.48" cy="-464.37" rx="83.41" ry="27.37"/>
<text xml:space="preserve" text-anchor="middle" x="473.48" y="-466.07" font-family="Vera Sans Mono" font-size="14.00">karma_resetloop</text>
<text xml:space="preserve" text-anchor="middle" x="473.48" y="-451.07" font-family="Vera Sans Mono" font-size="14.00">1100</text>
</g>
<!-- ext_main&#45;&gt;karma_resetloop -->
<g id="edge10" class="edge">
<title>ext_main&#45;&gt;karma_resetloop</title>
<path fill="none" stroke="black" d="M43.46,-612.61C53.38,-587.84 74.41,-544.84 107.5,-523.37 130.35,-508.55 283.3,-487.45 383.82,-474.91"/>
<polygon fill="black" stroke="black" points="384.2,-478.39 393.69,-473.68 383.34,-471.44 384.2,-478.39"/>
</g>
<!-- karma_setloop -->
<g id="node12" class="node">
<title>karma_setloop</title>
<ellipse fill="#eecc80" stroke="none" cx="202.08" cy="-631.37" rx="74.92" ry="27.37"/>
<text xml:space="preserve" text-anchor="middle" x="202.08" y="-633.07" font-family="Vera Sans Mono" font-size="14.00">karma_setloop</text>
<text xml:space="preserve" text-anchor="middle" x="202.08" y="-618.07" font-family="Vera Sans Mono" font-size="14.00">1067</text>
</g>
<!-- ext_main&#45;&gt;karma_setloop -->
<g id="edge11" class="edge">
<title>ext_main&#45;&gt;karma_setloop</title>
<path fill="none" stroke="black" d="M71.2,-631.37C84.5,-631.37 100.36,-631.37 116.35,-631.37"/>
<polygon fill="black" stroke="black" points="115.9,-634.87 125.9,-631.37 115.9,-627.87 115.9,-634.87"/>
</g>
<!-- karma_buf_change -->
<g id="node13" class="node">
<title>karma_buf_change</title>
<ellipse fill="#eecc80" stroke="none" cx="202.08" cy="-559.37" rx="94.01" ry="27.37"/>
<text xml:space="preserve" text-anchor="middle" x="202.08" y="-561.07" font-family="Vera Sans Mono" font-size="14.00">karma_buf_change</text>
<text xml:space="preserve" text-anchor="middle" x="202.08" y="-546.07" font-family="Vera Sans Mono" font-size="14.00">909</text>
</g>
<!-- ext_main&#45;&gt;karma_buf_change -->
<g id="edge12" class="edge">
<title>ext_main&#45;&gt;karma_buf_change</title>
<path fill="none" stroke="black" d="M71.31,-612.88C82.71,-607.03 95.54,-600.7 107.5,-595.37 115.64,-591.75 124.27,-588.13 132.86,-584.67"/>
<polygon fill="black" stroke="black" points="133.88,-588.03 141.88,-581.09 131.29,-581.52 133.88,-588.03"/>
</g>
<!-- karma_overdub -->
<g id="node14" class="node">
<title>karma_overdub</title>
<ellipse fill="#eecc80" stroke="none" cx="202.08" cy="-449.37" rx="78.64" ry="27.37"/>
<text xml:space="preserve" text-anchor="middle" x="202.08" y="-451.07" font-family="Vera Sans Mono" font-size="14.00">karma_overdub</text>
<text xml:space="preserve" text-anchor="middle" x="202.08" y="-436.07" font-family="Vera Sans Mono" font-size="14.00">1515</text>
</g>
<!-- ext_main&#45;&gt;karma_overdub -->
<g id="edge13" class="edge">
<title>ext_main&#45;&gt;karma_overdub</title>
<path fill="none" stroke="black" d="M41.72,-612.42C50.39,-582.73 70.95,-525.06 107.5,-490.37 114.96,-483.29 123.85,-477.31 133.13,-472.3"/>
<polygon fill="black" stroke="black" points="134.56,-475.49 141.95,-467.91 131.44,-469.23 134.56,-475.49"/>
</g>
<!-- karma_float -->
<g id="node15" class="node">
<title>karma_float</title>
<ellipse fill="#eecc80" stroke="none" cx="202.08" cy="-377.37" rx="62.2" ry="27.37"/>
<text xml:space="preserve" text-anchor="middle" x="202.08" y="-379.07" font-family="Vera Sans Mono" font-size="14.00">karma_float</text>
<text xml:space="preserve" text-anchor="middle" x="202.08" y="-364.07" font-family="Vera Sans Mono" font-size="14.00">1218</text>
</g>
<!-- ext_main&#45;&gt;karma_float -->
<g id="edge14" class="edge">
<title>ext_main&#45;&gt;karma_float</title>
<path fill="none" stroke="black" d="M37.59,-612.62C40.43,-571.19 52.89,-470.98 107.5,-413.37 115.31,-405.13 125.22,-398.75 135.65,-393.82"/>
<polygon fill="black" stroke="black" points="136.96,-397.06 144.8,-389.94 134.23,-390.62 136.96,-397.06"/>
</g>
<!-- karma_dsp64 -->
<g id="node16" class="node">
<title>karma_dsp64</title>
<ellipse fill="#eecc80" stroke="none" cx="202.08" cy="-1063.37" rx="70.15" ry="27.37"/>
<text xml:space="preserve" text-anchor="middle" x="202.08" y="-1065.07" font-family="Vera Sans Mono" font-size="14.00">karma_dsp64</text>
<text xml:space="preserve" text-anchor="middle" x="202.08" y="-1050.07" font-family="Vera Sans Mono" font-size="14.00">1585</text>
</g>
<!-- ext_main&#45;&gt;karma_dsp64 -->
<g id="edge15" class="edge">
<title>ext_main&#45;&gt;karma_dsp64</title>
<path fill="none" stroke="black" d="M37.71,-650.1C41.65,-720.52 58.81,-968.4 107.5,-1027.37 113.78,-1034.98 121.87,-1040.98 130.65,-1045.72"/>
<polygon fill="black" stroke="black" points="128.9,-1048.76 139.44,-1049.89 131.91,-1042.44 128.9,-1048.76"/>
</g>
<!-- karma_assist -->
<g id="node17" class="node">
<title>karma_assist</title>
<ellipse fill="#eecc80" stroke="none" cx="202.08" cy="-267.37" rx="68.56" ry="27.37"/>
<text xml:space="preserve" text-anchor="middle" x="202.08" y="-269.07" font-family="Vera Sans Mono" font-size="14.00">karma_assist</text>
<text xml:space="preserve" text-anchor="middle" x="202.08" y="-254.07" font-family="Vera Sans Mono" font-size="14.00">1162</text>
</g>
<!-- ext_main&#45;&gt;karma_assist -->
<g id="edge16" class="edge">
<title>ext_main&#45;&gt;karma_assist</title>
<path fill="none" stroke="black" d="M38.65,-612.41C45.17,-550.57 68.47,-355.98 107.5,-308.37 114.83,-299.43 124.49,-292.39 134.82,-286.85"/>
<polygon fill="black" stroke="black" points="136.04,-290.15 143.52,-282.65 132.99,-283.85 136.04,-290.15"/>
</g>
<!-- karma_buf_dblclick -->
<g id="node18" class="node">
<title>karma_buf_dblclick</title>
<ellipse fill="#eecc80" stroke="none" cx="202.08" cy="-195.37" rx="94.01" ry="27.37"/>
<text xml:space="preserve" text-anchor="middle" x="202.08" y="-197.07" font-family="Vera Sans Mono" font-size="14.00">karma_buf_dblclick</text>
<text xml:space="preserve" text-anchor="middle" x="202.08" y="-182.07" font-family="Vera Sans Mono" font-size="14.00">515</text>
</g>
<!-- ext_main&#45;&gt;karma_buf_dblclick -->
<g id="edge17" class="edge">
<title>ext_main&#45;&gt;karma_buf_dblclick</title>
<path fill="none" stroke="black" d="M37.68,-612.45C41.53,-541.33 58.39,-290.96 107.5,-231.37 111.44,-226.58 116.1,-222.43 121.2,-218.83"/>
<polygon fill="black" stroke="black" points="122.82,-221.95 129.5,-213.72 119.15,-215.99 122.82,-221.95"/>
</g>
<!-- karma_buf_notify -->
<g id="node19" class="node">
<title>karma_buf_notify</title>
<ellipse fill="#eecc80" stroke="none" cx="202.08" cy="-123.37" rx="85.53" ry="27.37"/>
<text xml:space="preserve" text-anchor="middle" x="202.08" y="-125.07" font-family="Vera Sans Mono" font-size="14.00">karma_buf_notify</text>
<text xml:space="preserve" text-anchor="middle" x="202.08" y="-110.07" font-family="Vera Sans Mono" font-size="14.00">1571</text>
</g>
<!-- ext_main&#45;&gt;karma_buf_notify -->
<g id="edge18" class="edge">
<title>ext_main&#45;&gt;karma_buf_notify</title>
<path fill="none" stroke="black" d="M37.12,-612.4C39.01,-533.38 49.94,-231.11 107.5,-159.37 112,-153.76 117.49,-149.02 123.53,-145.02"/>
<polygon fill="black" stroke="black" points="125.19,-148.1 132.1,-140.07 121.69,-142.04 125.19,-148.1"/>
</g>
<!-- karma_syncout_set -->
<g id="node20" class="node">
<title>karma_syncout_set</title>
<ellipse fill="#eecc80" stroke="none" cx="202.08" cy="-51.37" rx="95.08" ry="27.37"/>
<text xml:space="preserve" text-anchor="middle" x="202.08" y="-53.07" font-family="Vera Sans Mono" font-size="14.00">karma_syncout_set</text>
<text xml:space="preserve" text-anchor="middle" x="202.08" y="-38.07" font-family="Vera Sans Mono" font-size="14.00">1548</text>
</g>
<!-- ext_main&#45;&gt;karma_syncout_set -->
<g id="edge19" class="edge">
<title>ext_main&#45;&gt;karma_syncout_set</title>
<path fill="none" stroke="black" d="M36.7,-612.5C36.83,-526.41 41.41,-171.4 107.5,-87.37 111.17,-82.7 115.53,-78.64 120.32,-75.1"/>
<polygon fill="black" stroke="black" points="122.18,-78.07 128.73,-69.74 118.42,-72.16 122.18,-78.07"/>
</g>
<!-- karma_clock_list -->
<g id="node21" class="node">
<title>karma_clock_list</title>
<path fill="#ccee80" stroke="none" d="M562.64,-1571.35C562.64,-1571.35 562.64,-1579.39 562.64,-1579.39 562.64,-1583.4 558.83,-1588.66 555.01,-1589.91 555.01,-1589.91 518.05,-1601.96 518.05,-1601.96 514.23,-1603.21 506.4,-1604.45 502.38,-1604.45 502.38,-1604.45 444.58,-1604.45 444.58,-1604.45 440.56,-1604.45 432.73,-1603.21 428.91,-1601.96 428.91,-1601.96 391.95,-1589.91 391.95,-1589.91 388.13,-1588.66 384.32,-1583.4 384.32,-1579.39 384.32,-1579.39 384.32,-1571.35 384.32,-1571.35 384.32,-1567.34 388.13,-1562.08 391.95,-1560.83 391.95,-1560.83 428.91,-1548.78 428.91,-1548.78 432.73,-1547.53 440.56,-1546.29 444.58,-1546.29 444.58,-1546.29 502.38,-1546.29 502.38,-1546.29 506.4,-1546.29 514.23,-1547.53 518.05,-1548.78 518.05,-1548.78 555.01,-1560.83 555.01,-1560.83 558.83,-1562.08 562.64,-1567.34 562.64,-1571.35"/>
<text xml:space="preserve" text-anchor="middle" x="473.48" y="-1577.07" font-family="Vera Sans Mono" font-size="14.00">karma_clock_list</text>
<text xml:space="preserve" text-anchor="middle" x="473.48" y="-1562.07" font-family="Vera Sans Mono" font-size="14.00">1113</text>
</g>
<!-- karma_new&#45;&gt;karma_clock_list -->
<g id="edge20" class="edge">
<title>karma_new&#45;&gt;karma_clock_list</title>
<path fill="none" stroke="black" d="M263.54,-1575.37C295.8,-1575.37 336.33,-1575.37 373.09,-1575.37"/>
<polygon fill="black" stroke="black" points="372.85,-1578.87 382.85,-1575.37 372.85,-1571.87 372.85,-1578.87"/>
</g>
<!-- karma_buf_values_internal -->
<g id="node22" class="node">
<title>karma_buf_values_internal</title>
<path fill="#ccee80" stroke="none" d="M923.93,-591.35C923.93,-591.35 923.93,-599.39 923.93,-599.39 923.93,-603.4 920,-608.25 916.07,-609.09 916.07,-609.09 851.64,-622.78 851.64,-622.78 847.72,-623.62 839.77,-624.45 835.76,-624.45 835.76,-624.45 738.48,-624.45 738.48,-624.45 734.47,-624.45 726.52,-623.62 722.59,-622.78 722.59,-622.78 658.16,-609.09 658.16,-609.09 654.24,-608.25 650.31,-603.4 650.31,-599.39 650.31,-599.39 650.31,-591.35 650.31,-591.35 650.31,-587.34 654.24,-582.49 658.16,-581.65 658.16,-581.65 722.59,-567.96 722.59,-567.96 726.52,-567.12 734.47,-566.29 738.48,-566.29 738.48,-566.29 835.76,-566.29 835.76,-566.29 839.77,-566.29 847.72,-567.12 851.64,-567.96 851.64,-567.96 916.07,-581.65 916.07,-581.65 920,-582.49 923.93,-587.34 923.93,-591.35"/>
<text xml:space="preserve" text-anchor="middle" x="787.12" y="-597.07" font-family="Vera Sans Mono" font-size="14.00">karma_buf_values_internal</text>
<text xml:space="preserve" text-anchor="middle" x="787.12" y="-582.07" font-family="Vera Sans Mono" font-size="14.00">590</text>
</g>
<!-- karma_resetloop&#45;&gt;karma_buf_values_internal -->
<g id="edge21" class="edge">
<title>karma_resetloop&#45;&gt;karma_buf_values_internal</title>
<path fill="none" stroke="black" d="M544.22,-478.65C566.96,-484.27 592.06,-491.52 614.31,-500.37 655.39,-516.71 698.94,-540.87 731.92,-560.74"/>
<polygon fill="black" stroke="black" points="729.71,-563.5 740.07,-565.71 733.35,-557.52 729.71,-563.5"/>
</g>
<!-- karma_setloop&#45;&gt;karma_buf_values_internal -->
<g id="edge24" class="edge">
<title>karma_setloop&#45;&gt;karma_buf_values_internal</title>
<path fill="none" stroke="black" d="M271.54,-621.24C291.23,-618.63 312.76,-616.09 332.65,-614.37 434.85,-605.54 550.37,-600.78 639.24,-598.23"/>
<polygon fill="black" stroke="black" points="639.08,-601.74 648.98,-597.96 638.89,-594.74 639.08,-601.74"/>
</g>
<!-- karma_setloop_internal -->
<g id="node23" class="node">
<title>karma_setloop_internal</title>
<path fill="#ccee80" stroke="none" d="M593.64,-648.35C593.64,-648.35 593.64,-656.39 593.64,-656.39 593.64,-660.4 589.74,-665.36 585.83,-666.31 585.83,-666.31 531.06,-679.56 531.06,-679.56 527.16,-680.51 519.24,-681.45 515.22,-681.45 515.22,-681.45 431.74,-681.45 431.74,-681.45 427.72,-681.45 419.8,-680.51 415.9,-679.56 415.9,-679.56 361.13,-666.31 361.13,-666.31 357.22,-665.36 353.32,-660.4 353.32,-656.39 353.32,-656.39 353.32,-648.35 353.32,-648.35 353.32,-644.34 357.22,-639.38 361.13,-638.43 361.13,-638.43 415.9,-625.18 415.9,-625.18 419.8,-624.23 427.72,-623.29 431.74,-623.29 431.74,-623.29 515.22,-623.29 515.22,-623.29 519.24,-623.29 527.16,-624.23 531.06,-625.18 531.06,-625.18 585.83,-638.43 585.83,-638.43 589.74,-639.38 593.64,-644.34 593.64,-648.35"/>
<text xml:space="preserve" text-anchor="middle" x="473.48" y="-654.07" font-family="Vera Sans Mono" font-size="14.00">karma_setloop_internal</text>
<text xml:space="preserve" text-anchor="middle" x="473.48" y="-639.07" font-family="Vera Sans Mono" font-size="14.00">957</text>
</g>
<!-- karma_setloop&#45;&gt;karma_setloop_internal -->
<g id="edge25" class="edge">
<title>karma_setloop&#45;&gt;karma_setloop_internal</title>
<path fill="none" stroke="black" d="M275.27,-637C295.97,-638.61 319.19,-640.42 342.24,-642.22"/>
<polygon fill="black" stroke="black" points="341.78,-645.69 352.02,-642.98 342.32,-638.71 341.78,-645.69"/>
</g>
<!-- karma_buf_change_internal -->
<g id="node24" class="node">
<title>karma_buf_change_internal</title>
<path fill="#ccee80" stroke="none" d="M614.31,-534.35C614.31,-534.35 614.31,-542.39 614.31,-542.39 614.31,-546.4 610.38,-551.23 606.44,-552.04 606.44,-552.04 539.68,-565.83 539.68,-565.83 535.75,-566.64 527.8,-567.45 523.78,-567.45 523.78,-567.45 423.18,-567.45 423.18,-567.45 419.16,-567.45 411.21,-566.64 407.28,-565.83 407.28,-565.83 340.52,-552.04 340.52,-552.04 336.58,-551.23 332.65,-546.4 332.65,-542.39 332.65,-542.39 332.65,-534.35 332.65,-534.35 332.65,-530.34 336.58,-525.51 340.52,-524.7 340.52,-524.7 407.28,-510.91 407.28,-510.91 411.21,-510.1 419.16,-509.29 423.18,-509.29 423.18,-509.29 523.78,-509.29 523.78,-509.29 527.8,-509.29 535.75,-510.1 539.68,-510.91 539.68,-510.91 606.44,-524.7 606.44,-524.7 610.38,-525.51 614.31,-530.34 614.31,-534.35"/>
<text xml:space="preserve" text-anchor="middle" x="473.48" y="-540.07" font-family="Vera Sans Mono" font-size="14.00">karma_buf_change_internal</text>
<text xml:space="preserve" text-anchor="middle" x="473.48" y="-525.07" font-family="Vera Sans Mono" font-size="14.00">720</text>
</g>
<!-- karma_buf_change&#45;&gt;karma_buf_change_internal -->
<g id="edge27" class="edge">
<title>karma_buf_change&#45;&gt;karma_buf_change_internal</title>
<path fill="none" stroke="black" d="M292.78,-552.38C302.02,-551.66 311.59,-550.91 321.26,-550.16"/>
<polygon fill="black" stroke="black" points="321.45,-553.65 331.15,-549.39 320.91,-546.67 321.45,-553.65"/>
</g>
<!-- karma_dsp64&#45;&gt;karma_select_start -->
<g id="edge29" class="edge">
<title>karma_dsp64&#45;&gt;karma_select_start</title>
<path fill="none" stroke="black" d="M226.02,-1088.96C287.08,-1154.87 461.8,-1329.65 650.31,-1391.37 765.88,-1429.21 804.52,-1414.37 923.93,-1391.37 947.96,-1386.74 973.23,-1377.62 994.86,-1368.35"/>
<polygon fill="black" stroke="black" points="996.05,-1371.66 1003.79,-1364.42 993.22,-1365.25 996.05,-1371.66"/>
</g>
<!-- karma_dsp64&#45;&gt;karma_select_size -->
<g id="edge30" class="edge">
<title>karma_dsp64&#45;&gt;karma_select_size</title>
<path fill="none" stroke="black" d="M263.21,-1050.43C275.81,-1045.16 287.91,-1037.76 296.65,-1027.37 349.73,-964.27 283.91,-911.88 332.65,-845.37 335.63,-841.31 645.52,-672.9 650.31,-671.37 704.73,-654 852.4,-639.7 952.54,-631.6"/>
<polygon fill="black" stroke="black" points="952.7,-635.1 962.39,-630.81 952.15,-628.12 952.7,-635.1"/>
</g>
<!-- karma_buf_setup -->
<g id="node25" class="node">
<title>karma_buf_setup</title>
<path fill="#ccee80" stroke="none" d="M566.09,-879.35C566.09,-879.35 566.09,-887.39 566.09,-887.39 566.09,-891.4 562.26,-896.62 558.43,-897.82 558.43,-897.82 519.5,-910.05 519.5,-910.05 515.67,-911.25 507.82,-912.45 503.81,-912.45 503.81,-912.45 443.15,-912.45 443.15,-912.45 439.14,-912.45 431.29,-911.25 427.46,-910.05 427.46,-910.05 388.53,-897.82 388.53,-897.82 384.7,-896.62 380.87,-891.4 380.87,-887.39 380.87,-887.39 380.87,-879.35 380.87,-879.35 380.87,-875.34 384.7,-870.12 388.53,-868.92 388.53,-868.92 427.46,-856.69 427.46,-856.69 431.29,-855.49 439.14,-854.29 443.15,-854.29 443.15,-854.29 503.81,-854.29 503.81,-854.29 507.82,-854.29 515.67,-855.49 519.5,-856.69 519.5,-856.69 558.43,-868.92 558.43,-868.92 562.26,-870.12 566.09,-875.34 566.09,-879.35"/>
<text xml:space="preserve" text-anchor="middle" x="473.48" y="-885.07" font-family="Vera Sans Mono" font-size="14.00">karma_buf_setup</text>
<text xml:space="preserve" text-anchor="middle" x="473.48" y="-870.07" font-family="Vera Sans Mono" font-size="14.00">521</text>
</g>
<!-- karma_dsp64&#45;&gt;karma_buf_setup -->
<g id="edge31" class="edge">
<title>karma_dsp64&#45;&gt;karma_buf_setup</title>
<path fill="none" stroke="black" d="M262.24,-1049.56C274.88,-1044.33 287.24,-1037.16 296.65,-1027.37 331.12,-991.49 296.4,-955.44 332.65,-921.37 343.39,-911.28 356.53,-903.82 370.42,-898.31"/>
<polygon fill="black" stroke="black" points="371.49,-901.64 379.73,-894.98 369.13,-895.05 371.49,-901.64"/>
</g>
<!-- karma_quad_perform -->
<g id="node26" class="node">
<title>karma_quad_perform</title>
<path fill="#ccee80" stroke="none" d="M585.61,-955.35C585.61,-955.35 585.61,-963.39 585.61,-963.39 585.61,-967.4 581.72,-972.43 577.83,-973.43 577.83,-973.43 527.7,-986.44 527.7,-986.44 523.81,-987.45 515.91,-988.45 511.89,-988.45 511.89,-988.45 435.07,-988.45 435.07,-988.45 431.05,-988.45 423.15,-987.45 419.26,-986.44 419.26,-986.44 369.13,-973.43 369.13,-973.43 365.24,-972.43 361.35,-967.4 361.35,-963.39 361.35,-963.39 361.35,-955.35 361.35,-955.35 361.35,-951.34 365.24,-946.31 369.13,-945.31 369.13,-945.31 419.26,-932.3 419.26,-932.3 423.15,-931.29 431.05,-930.29 435.07,-930.29 435.07,-930.29 511.89,-930.29 511.89,-930.29 515.91,-930.29 523.81,-931.29 527.7,-932.3 527.7,-932.3 577.83,-945.31 577.83,-945.31 581.72,-946.31 585.61,-951.34 585.61,-955.35"/>
<text xml:space="preserve" text-anchor="middle" x="473.48" y="-961.07" font-family="Vera Sans Mono" font-size="14.00">karma_quad_perform</text>
<text xml:space="preserve" text-anchor="middle" x="473.48" y="-946.07" font-family="Vera Sans Mono" font-size="14.00">4711</text>
</g>
<!-- karma_dsp64&#45;&gt;karma_quad_perform -->
<g id="edge32" class="edge">
<title>karma_dsp64&#45;&gt;karma_quad_perform</title>
<path fill="none" stroke="black" d="M256.45,-1046.29C269.98,-1041.04 284.19,-1034.69 296.65,-1027.37 314.61,-1016.82 314.18,-1006.99 332.65,-997.37 345.36,-990.75 359.35,-985.2 373.4,-980.56"/>
<polygon fill="black" stroke="black" points="374.2,-983.97 382.7,-977.64 372.11,-977.3 374.2,-983.97"/>
</g>
<!-- karma_stereo_perform -->
<g id="node27" class="node">
<title>karma_stereo_perform</title>
<path fill="#ccee80" stroke="none" d="M591.35,-1031.35C591.35,-1031.35 591.35,-1039.39 591.35,-1039.39 591.35,-1043.4 587.45,-1048.38 583.55,-1049.34 583.55,-1049.34 530.1,-1062.53 530.1,-1062.53 526.2,-1063.49 518.29,-1064.45 514.27,-1064.45 514.27,-1064.45 432.69,-1064.45 432.69,-1064.45 428.67,-1064.45 420.76,-1063.49 416.86,-1062.53 416.86,-1062.53 363.41,-1049.34 363.41,-1049.34 359.51,-1048.38 355.61,-1043.4 355.61,-1039.39 355.61,-1039.39 355.61,-1031.35 355.61,-1031.35 355.61,-1027.34 359.51,-1022.36 363.41,-1021.4 363.41,-1021.4 416.86,-1008.21 416.86,-1008.21 420.76,-1007.25 428.67,-1006.29 432.69,-1006.29 432.69,-1006.29 514.27,-1006.29 514.27,-1006.29 518.29,-1006.29 526.2,-1007.25 530.1,-1008.21 530.1,-1008.21 583.55,-1021.4 583.55,-1021.4 587.45,-1022.36 591.35,-1027.34 591.35,-1031.35"/>
<text xml:space="preserve" text-anchor="middle" x="473.48" y="-1037.07" font-family="Vera Sans Mono" font-size="14.00">karma_stereo_perform</text>
<text xml:space="preserve" text-anchor="middle" x="473.48" y="-1022.07" font-family="Vera Sans Mono" font-size="14.00">2706</text>
</g>
<!-- karma_dsp64&#45;&gt;karma_stereo_perform -->
<g id="edge33" class="edge">
<title>karma_dsp64&#45;&gt;karma_stereo_perform</title>
<path fill="none" stroke="black" d="M269.67,-1056.45C292.51,-1054.08 318.89,-1051.33 344.91,-1048.63"/>
<polygon fill="black" stroke="black" points="344.94,-1052.14 354.53,-1047.63 344.22,-1045.18 344.94,-1052.14"/>
</g>
<!-- karma_mono_perform -->
<g id="node28" class="node">
<title>karma_mono_perform</title>
<path fill="#ccee80" stroke="none" d="M589.05,-1107.35C589.05,-1107.35 589.05,-1115.39 589.05,-1115.39 589.05,-1119.4 585.16,-1124.4 581.26,-1125.38 581.26,-1125.38 529.14,-1138.49 529.14,-1138.49 525.25,-1139.47 517.34,-1140.45 513.32,-1140.45 513.32,-1140.45 433.64,-1140.45 433.64,-1140.45 429.62,-1140.45 421.71,-1139.47 417.82,-1138.49 417.82,-1138.49 365.7,-1125.38 365.7,-1125.38 361.8,-1124.4 357.91,-1119.4 357.91,-1115.39 357.91,-1115.39 357.91,-1107.35 357.91,-1107.35 357.91,-1103.34 361.8,-1098.34 365.7,-1097.36 365.7,-1097.36 417.82,-1084.25 417.82,-1084.25 421.71,-1083.27 429.62,-1082.29 433.64,-1082.29 433.64,-1082.29 513.32,-1082.29 513.32,-1082.29 517.34,-1082.29 525.25,-1083.27 529.14,-1084.25 529.14,-1084.25 581.26,-1097.36 581.26,-1097.36 585.16,-1098.34 589.05,-1103.34 589.05,-1107.35"/>
<text xml:space="preserve" text-anchor="middle" x="473.48" y="-1113.07" font-family="Vera Sans Mono" font-size="14.00">karma_mono_perform</text>
<text xml:space="preserve" text-anchor="middle" x="473.48" y="-1098.07" font-family="Vera Sans Mono" font-size="14.00">1633</text>
</g>
<!-- karma_dsp64&#45;&gt;karma_mono_perform -->
<g id="edge34" class="edge">
<title>karma_dsp64&#45;&gt;karma_mono_perform</title>
<path fill="none" stroke="black" d="M265.9,-1074.56C295.85,-1079.9 332.51,-1086.43 366.59,-1092.5"/>
<polygon fill="black" stroke="black" points="365.6,-1095.88 376.06,-1094.19 366.83,-1088.99 365.6,-1095.88"/>
</g>
<!-- karma_buf_values_internal&#45;&gt;karma_select_start -->
<g id="edge22" class="edge">
<title>karma_buf_values_internal&#45;&gt;karma_select_start</title>
<path fill="none" stroke="black" d="M859.65,-620.87C883.47,-632.73 907.98,-649.23 923.93,-671.37 998.18,-774.4 1037.57,-1175.6 1048.32,-1302.01"/>
<polygon fill="black" stroke="black" points="1044.82,-1302.18 1049.14,-1311.85 1051.79,-1301.6 1044.82,-1302.18"/>
</g>
<!-- karma_buf_values_internal&#45;&gt;karma_select_size -->
<g id="edge23" class="edge">
<title>karma_buf_values_internal&#45;&gt;karma_select_size</title>
<path fill="none" stroke="black" d="M914.74,-609.32C928.53,-610.84 942.39,-612.36 955.72,-613.83"/>
<polygon fill="black" stroke="black" points="954.96,-617.27 965.28,-614.88 955.72,-610.31 954.96,-617.27"/>
</g>
<!-- karma_setloop_internal&#45;&gt;karma_buf_values_internal -->
<g id="edge26" class="edge">
<title>karma_setloop_internal&#45;&gt;karma_buf_values_internal</title>
<path fill="none" stroke="black" d="M570.52,-634.8C602.5,-628.95 638.43,-622.38 671.66,-616.3"/>
<polygon fill="black" stroke="black" points="672.12,-619.78 681.33,-614.54 670.86,-612.89 672.12,-619.78"/>
</g>
<!-- karma_buf_change_internal&#45;&gt;karma_buf_values_internal -->
<g id="edge28" class="edge">
<title>karma_buf_change_internal&#45;&gt;karma_buf_values_internal</title>
<path fill="none" stroke="black" d="M579.55,-557.59C609.22,-563.01 641.64,-568.94 671.82,-574.46"/>
<polygon fill="black" stroke="black" points="670.87,-577.85 681.34,-576.2 672.13,-570.96 670.87,-577.85"/>
</g>
<!-- karma_buf_modify -->
<g id="node29" class="node">
<title>karma_buf_modify</title>
<path fill="#80ccee" stroke="none" d="M881.71,-1277.48C881.71,-1277.48 849.91,-1296.29 849.91,-1296.29 844.74,-1299.34 833.58,-1302.4 827.58,-1302.4 827.58,-1302.4 746.66,-1302.4 746.66,-1302.4 740.66,-1302.4 729.5,-1299.34 724.33,-1296.29 724.33,-1296.29 692.53,-1277.48 692.53,-1277.48 687.37,-1274.42 687.37,-1268.32 692.53,-1265.26 692.53,-1265.26 724.33,-1246.45 724.33,-1246.45 729.5,-1243.4 740.66,-1240.34 746.66,-1240.34 746.66,-1240.34 827.58,-1240.34 827.58,-1240.34 833.58,-1240.34 844.74,-1243.4 849.91,-1246.45 849.91,-1246.45 881.71,-1265.26 881.71,-1265.26 886.87,-1268.32 886.87,-1274.42 881.71,-1277.48"/>
<text xml:space="preserve" text-anchor="middle" x="787.12" y="-1273.07" font-family="Vera Sans Mono" font-size="14.00">karma_buf_modify</text>
<text xml:space="preserve" text-anchor="middle" x="787.12" y="-1258.07" font-family="Vera Sans Mono" font-size="14.00">557</text>
</g>
<!-- karma_quad_perform&#45;&gt;karma_buf_modify -->
<g id="edge35" class="edge">
<title>karma_quad_perform&#45;&gt;karma_buf_modify</title>
<path fill="none" stroke="black" d="M578.93,-973.02C592.31,-978.72 604.67,-986.58 614.31,-997.37 684.4,-1075.85 581.04,-1152.16 650.31,-1231.37 660.59,-1243.13 674.15,-1251.52 688.71,-1257.48"/>
<polygon fill="black" stroke="black" points="687.44,-1260.75 698.04,-1260.89 689.84,-1254.17 687.44,-1260.75"/>
</g>
<!-- ease_bufoff -->
<g id="node30" class="node">
<title>ease_bufoff</title>
<path fill="#80ccee" stroke="none" d="M848.73,-1199.29C848.73,-1199.29 831.45,-1214.48 831.45,-1214.48 826.94,-1218.44 816.43,-1222.4 810.43,-1222.4 810.43,-1222.4 763.8,-1222.4 763.8,-1222.4 757.8,-1222.4 747.3,-1218.44 742.79,-1214.48 742.79,-1214.48 725.51,-1199.29 725.51,-1199.29 721,-1195.33 721,-1187.41 725.51,-1183.45 725.51,-1183.45 742.79,-1168.26 742.79,-1168.26 747.3,-1164.3 757.8,-1160.34 763.8,-1160.34 763.8,-1160.34 810.43,-1160.34 810.43,-1160.34 816.43,-1160.34 826.94,-1164.3 831.45,-1168.26 831.45,-1168.26 848.73,-1183.45 848.73,-1183.45 853.24,-1187.41 853.24,-1195.33 848.73,-1199.29"/>
<text xml:space="preserve" text-anchor="middle" x="787.12" y="-1193.07" font-family="Vera Sans Mono" font-size="14.00">ease_bufoff</text>
<text xml:space="preserve" text-anchor="middle" x="787.12" y="-1178.07" font-family="Vera Sans Mono" font-size="14.00">170</text>
</g>
<!-- karma_quad_perform&#45;&gt;ease_bufoff -->
<g id="edge36" class="edge">
<title>karma_quad_perform&#45;&gt;ease_bufoff</title>
<path fill="none" stroke="black" d="M577.49,-973.41C591.24,-979.05 604.09,-986.78 614.31,-997.37 663.12,-1047.95 602.04,-1100.28 650.31,-1151.37 666.26,-1168.26 688.96,-1178.13 711.23,-1183.86"/>
<polygon fill="black" stroke="black" points="710.45,-1187.27 720.98,-1186.09 712.01,-1180.45 710.45,-1187.27"/>
</g>
<!-- ease_bufon -->
<g id="node31" class="node">
<title>ease_bufon</title>
<path fill="#80ccee" stroke="none" d="M848.73,-1119.29C848.73,-1119.29 831.45,-1134.48 831.45,-1134.48 826.94,-1138.44 816.43,-1142.4 810.43,-1142.4 810.43,-1142.4 763.8,-1142.4 763.8,-1142.4 757.8,-1142.4 747.3,-1138.44 742.79,-1134.48 742.79,-1134.48 725.51,-1119.29 725.51,-1119.29 721,-1115.33 721,-1107.41 725.51,-1103.45 725.51,-1103.45 742.79,-1088.26 742.79,-1088.26 747.3,-1084.3 757.8,-1080.34 763.8,-1080.34 763.8,-1080.34 810.43,-1080.34 810.43,-1080.34 816.43,-1080.34 826.94,-1084.3 831.45,-1088.26 831.45,-1088.26 848.73,-1103.45 848.73,-1103.45 853.24,-1107.41 853.24,-1115.33 848.73,-1119.29"/>
<text xml:space="preserve" text-anchor="middle" x="787.12" y="-1113.07" font-family="Vera Sans Mono" font-size="14.00">ease_bufon</text>
<text xml:space="preserve" text-anchor="middle" x="787.12" y="-1098.07" font-family="Vera Sans Mono" font-size="14.00">203</text>
</g>
<!-- karma_quad_perform&#45;&gt;ease_bufon -->
<g id="edge37" class="edge">
<title>karma_quad_perform&#45;&gt;ease_bufon</title>
<path fill="none" stroke="black" d="M572.98,-974.62C587.9,-980.06 602.3,-987.42 614.31,-997.37 642.48,-1020.7 622.39,-1047.75 650.31,-1071.37 668.13,-1086.45 691.41,-1095.84 713.66,-1101.7"/>
<polygon fill="black" stroke="black" points="712.8,-1105.09 723.34,-1104.02 714.43,-1098.28 712.8,-1105.09"/>
</g>
<!-- interp_index -->
<g id="node32" class="node">
<title>interp_index</title>
<path fill="#80ccee" stroke="none" d="M851.05,-1039.14C851.05,-1039.14 832.8,-1054.63 832.8,-1054.63 828.23,-1058.51 817.66,-1062.4 811.66,-1062.4 811.66,-1062.4 762.58,-1062.4 762.58,-1062.4 756.58,-1062.4 746.01,-1058.51 741.43,-1054.63 741.43,-1054.63 723.19,-1039.14 723.19,-1039.14 718.62,-1035.25 718.62,-1027.49 723.19,-1023.6 723.19,-1023.6 741.43,-1008.11 741.43,-1008.11 746.01,-1004.23 756.58,-1000.34 762.58,-1000.34 762.58,-1000.34 811.66,-1000.34 811.66,-1000.34 817.66,-1000.34 828.23,-1004.23 832.8,-1008.11 832.8,-1008.11 851.05,-1023.6 851.05,-1023.6 855.62,-1027.49 855.62,-1035.25 851.05,-1039.14"/>
<text xml:space="preserve" text-anchor="middle" x="787.12" y="-1033.07" font-family="Vera Sans Mono" font-size="14.00">interp_index</text>
<text xml:space="preserve" text-anchor="middle" x="787.12" y="-1018.07" font-family="Vera Sans Mono" font-size="14.00">278</text>
</g>
<!-- karma_quad_perform&#45;&gt;interp_index -->
<g id="edge38" class="edge">
<title>karma_quad_perform&#45;&gt;interp_index</title>
<path fill="none" stroke="black" d="M557.58,-978.57C608,-990.22 671.5,-1004.89 718.76,-1015.81"/>
<polygon fill="black" stroke="black" points="717.79,-1019.18 728.33,-1018.02 719.37,-1012.36 717.79,-1019.18"/>
</g>
<!-- linear_interp -->
<g id="node33" class="node">
<title>linear_interp</title>
<path fill="#80ccee" stroke="none" d="M851.63,-959.1C851.63,-959.1 833.14,-974.67 833.14,-974.67 828.55,-978.53 817.96,-982.4 811.96,-982.4 811.96,-982.4 762.27,-982.4 762.27,-982.4 756.27,-982.4 745.69,-978.53 741.1,-974.67 741.1,-974.67 722.61,-959.1 722.61,-959.1 718.02,-955.23 718.02,-947.51 722.61,-943.64 722.61,-943.64 741.1,-928.07 741.1,-928.07 745.69,-924.21 756.27,-920.34 762.27,-920.34 762.27,-920.34 811.96,-920.34 811.96,-920.34 817.96,-920.34 828.55,-924.21 833.14,-928.07 833.14,-928.07 851.63,-943.64 851.63,-943.64 856.22,-947.51 856.22,-955.23 851.63,-959.1"/>
<text xml:space="preserve" text-anchor="middle" x="787.12" y="-953.07" font-family="Vera Sans Mono" font-size="14.00">linear_interp</text>
<text xml:space="preserve" text-anchor="middle" x="787.12" y="-938.07" font-family="Vera Sans Mono" font-size="14.00">114</text>
</g>
<!-- karma_quad_perform&#45;&gt;linear_interp -->
<g id="edge39" class="edge">
<title>karma_quad_perform&#45;&gt;linear_interp</title>
<path fill="none" stroke="black" d="M585.23,-956.53C624.71,-955.51 668.41,-954.39 704.94,-953.45"/>
<polygon fill="black" stroke="black" points="704.62,-956.96 714.53,-953.21 704.44,-949.97 704.62,-956.96"/>
</g>
<!-- cubic_interp -->
<g id="node34" class="node">
<title>cubic_interp</title>
<path fill="#80ccee" stroke="none" d="M850.47,-879.18C850.47,-879.18 832.47,-894.59 832.47,-894.59 827.91,-898.49 817.35,-902.4 811.35,-902.4 811.35,-902.4 762.89,-902.4 762.89,-902.4 756.89,-902.4 746.33,-898.49 741.77,-894.59 741.77,-894.59 723.77,-879.18 723.77,-879.18 719.21,-875.27 719.21,-867.47 723.77,-863.56 723.77,-863.56 741.77,-848.15 741.77,-848.15 746.33,-844.25 756.89,-840.34 762.89,-840.34 762.89,-840.34 811.35,-840.34 811.35,-840.34 817.35,-840.34 827.91,-844.25 832.47,-848.15 832.47,-848.15 850.47,-863.56 850.47,-863.56 855.03,-867.47 855.03,-875.27 850.47,-879.18"/>
<text xml:space="preserve" text-anchor="middle" x="787.12" y="-873.07" font-family="Vera Sans Mono" font-size="14.00">cubic_interp</text>
<text xml:space="preserve" text-anchor="middle" x="787.12" y="-858.07" font-family="Vera Sans Mono" font-size="14.00">120</text>
</g>
<!-- karma_quad_perform&#45;&gt;cubic_interp -->
<g id="edge40" class="edge">
<title>karma_quad_perform&#45;&gt;cubic_interp</title>
<path fill="none" stroke="black" d="M551.84,-938.61C572.18,-933.08 594.09,-927.06 614.31,-921.37 650.18,-911.28 690.15,-899.67 722.51,-890.18"/>
<polygon fill="black" stroke="black" points="723.11,-893.65 731.72,-887.47 721.14,-886.93 723.11,-893.65"/>
</g>
<!-- spline_interp -->
<g id="node35" class="node">
<title>spline_interp</title>
<path fill="#80ccee" stroke="none" d="M853.37,-798.99C853.37,-798.99 834.15,-814.78 834.15,-814.78 829.52,-818.59 818.88,-822.4 812.88,-822.4 812.88,-822.4 761.36,-822.4 761.36,-822.4 755.36,-822.4 744.72,-818.59 740.09,-814.78 740.09,-814.78 720.87,-798.99 720.87,-798.99 716.23,-795.18 716.23,-787.56 720.87,-783.75 720.87,-783.75 740.09,-767.96 740.09,-767.96 744.72,-764.15 755.36,-760.34 761.36,-760.34 761.36,-760.34 812.88,-760.34 812.88,-760.34 818.88,-760.34 829.52,-764.15 834.15,-767.96 834.15,-767.96 853.37,-783.75 853.37,-783.75 858.01,-787.56 858.01,-795.18 853.37,-798.99"/>
<text xml:space="preserve" text-anchor="middle" x="787.12" y="-793.07" font-family="Vera Sans Mono" font-size="14.00">spline_interp</text>
<text xml:space="preserve" text-anchor="middle" x="787.12" y="-778.07" font-family="Vera Sans Mono" font-size="14.00">126</text>
</g>
<!-- karma_quad_perform&#45;&gt;spline_interp -->
<g id="edge41" class="edge">
<title>karma_quad_perform&#45;&gt;spline_interp</title>
<path fill="none" stroke="black" d="M574.33,-944.58C588.91,-939.08 602.85,-931.58 614.31,-921.37 646.47,-892.71 618.45,-860.37 650.31,-831.37 666.64,-816.51 688.23,-807.15 709.39,-801.26"/>
<polygon fill="black" stroke="black" points="710.07,-804.7 718.91,-798.86 708.36,-797.91 710.07,-804.7"/>
</g>
<!-- ease_switchramp -->
<g id="node36" class="node">
<title>ease_switchramp</title>
<path fill="#80ccee" stroke="none" d="M876.35,-717.72C876.35,-717.72 847,-736.04 847,-736.04 841.91,-739.22 830.82,-742.4 824.82,-742.4 824.82,-742.4 749.42,-742.4 749.42,-742.4 743.42,-742.4 732.33,-739.22 727.24,-736.04 727.24,-736.04 697.89,-717.72 697.89,-717.72 692.8,-714.55 692.8,-708.19 697.89,-705.02 697.89,-705.02 727.24,-686.7 727.24,-686.7 732.33,-683.52 743.42,-680.34 749.42,-680.34 749.42,-680.34 824.82,-680.34 824.82,-680.34 830.82,-680.34 841.91,-683.52 847,-686.7 847,-686.7 876.35,-705.02 876.35,-705.02 881.44,-708.19 881.44,-714.55 876.35,-717.72"/>
<text xml:space="preserve" text-anchor="middle" x="787.12" y="-713.07" font-family="Vera Sans Mono" font-size="14.00">ease_switchramp</text>
<text xml:space="preserve" text-anchor="middle" x="787.12" y="-698.07" font-family="Vera Sans Mono" font-size="14.00">141</text>
</g>
<!-- karma_quad_perform&#45;&gt;ease_switchramp -->
<g id="edge42" class="edge">
<title>karma_quad_perform&#45;&gt;ease_switchramp</title>
<path fill="none" stroke="black" d="M578.04,-945.37C591.63,-939.73 604.29,-931.98 614.31,-921.37 667.35,-865.23 597.86,-808.06 650.31,-751.37 661.74,-739.01 676.78,-730.4 692.67,-724.42"/>
<polygon fill="black" stroke="black" points="693.43,-727.86 701.78,-721.34 691.19,-721.23 693.43,-727.86"/>
</g>
<!-- ease_record -->
<g id="node37" class="node">
<title>ease_record</title>
<path fill="#80ccee" stroke="none" d="M852.21,-1359.06C852.21,-1359.06 833.48,-1374.7 833.48,-1374.7 828.87,-1378.55 818.27,-1382.4 812.27,-1382.4 812.27,-1382.4 761.97,-1382.4 761.97,-1382.4 755.97,-1382.4 745.36,-1378.55 740.76,-1374.7 740.76,-1374.7 722.03,-1359.06 722.03,-1359.06 717.42,-1355.22 717.42,-1347.52 722.03,-1343.68 722.03,-1343.68 740.76,-1328.04 740.76,-1328.04 745.36,-1324.19 755.97,-1320.34 761.97,-1320.34 761.97,-1320.34 812.27,-1320.34 812.27,-1320.34 818.27,-1320.34 828.87,-1324.19 833.48,-1328.04 833.48,-1328.04 852.21,-1343.68 852.21,-1343.68 856.81,-1347.52 856.81,-1355.22 852.21,-1359.06"/>
<text xml:space="preserve" text-anchor="middle" x="787.12" y="-1353.07" font-family="Vera Sans Mono" font-size="14.00">ease_record</text>
<text xml:space="preserve" text-anchor="middle" x="787.12" y="-1338.07" font-family="Vera Sans Mono" font-size="14.00">133</text>
</g>
<!-- karma_quad_perform&#45;&gt;ease_record -->
<g id="edge43" class="edge">
<title>karma_quad_perform&#45;&gt;ease_record</title>
<path fill="none" stroke="black" d="M579.66,-972.84C592.85,-978.58 604.96,-986.49 614.31,-997.37 705.85,-1103.92 559.89,-1203.87 650.31,-1311.37 664.66,-1328.43 685.88,-1338.42 707.31,-1344.21"/>
<polygon fill="black" stroke="black" points="706.49,-1347.62 717.03,-1346.53 708.11,-1340.81 706.49,-1347.62"/>
</g>
<!-- karma_stereo_perform&#45;&gt;karma_buf_modify -->
<g id="edge46" class="edge">
<title>karma_stereo_perform&#45;&gt;karma_buf_modify</title>
<path fill="none" stroke="black" d="M579.65,-1050.25C592.59,-1055.8 604.64,-1063.3 614.31,-1073.37 664.17,-1125.34 600.99,-1178.88 650.31,-1231.37 661.01,-1242.76 674.77,-1250.96 689.41,-1256.85"/>
<polygon fill="black" stroke="black" points="688.18,-1260.12 698.77,-1260.23 690.55,-1253.54 688.18,-1260.12"/>
</g>
<!-- karma_stereo_perform&#45;&gt;ease_bufoff -->
<g id="edge47" class="edge">
<title>karma_stereo_perform&#45;&gt;ease_bufoff</title>
<path fill="none" stroke="black" d="M575.32,-1051.22C589.44,-1056.6 602.97,-1063.79 614.31,-1073.37 643.46,-1098.02 621.41,-1126.41 650.31,-1151.37 667.97,-1166.63 691.22,-1176.07 713.47,-1181.91"/>
<polygon fill="black" stroke="black" points="712.63,-1185.31 723.17,-1184.22 714.25,-1178.5 712.63,-1185.31"/>
</g>
<!-- karma_stereo_perform&#45;&gt;ease_bufon -->
<g id="edge48" class="edge">
<title>karma_stereo_perform&#45;&gt;ease_bufon</title>
<path fill="none" stroke="black" d="M557.58,-1055.64C608.66,-1068.09 673.18,-1083.83 720.63,-1095.4"/>
<polygon fill="black" stroke="black" points="719.68,-1098.77 730.23,-1097.74 721.34,-1091.97 719.68,-1098.77"/>
</g>
<!-- karma_stereo_perform&#45;&gt;interp_index -->
<g id="edge49" class="edge">
<title>karma_stereo_perform&#45;&gt;interp_index</title>
<path fill="none" stroke="black" d="M590.97,-1033.87C628.55,-1033.39 669.41,-1032.87 703.98,-1032.42"/>
<polygon fill="black" stroke="black" points="703.98,-1035.92 713.94,-1032.3 703.89,-1028.93 703.98,-1035.92"/>
</g>
<!-- karma_stereo_perform&#45;&gt;linear_interp -->
<g id="edge50" class="edge">
<title>karma_stereo_perform&#45;&gt;linear_interp</title>
<path fill="none" stroke="black" d="M553.52,-1014.06C605.05,-1000.18 671.51,-982.26 720.18,-969.14"/>
<polygon fill="black" stroke="black" points="721.01,-972.54 729.76,-966.56 719.19,-965.78 721.01,-972.54"/>
</g>
<!-- karma_stereo_perform&#45;&gt;cubic_interp -->
<g id="edge51" class="edge">
<title>karma_stereo_perform&#45;&gt;cubic_interp</title>
<path fill="none" stroke="black" d="M575.98,-1019.74C589.93,-1014.32 603.24,-1007.07 614.31,-997.37 645.46,-970.05 619.44,-939.01 650.31,-911.37 667.38,-896.08 690.04,-886.62 711.94,-880.77"/>
<polygon fill="black" stroke="black" points="712.58,-884.22 721.48,-878.47 710.93,-877.42 712.58,-884.22"/>
</g>
<!-- karma_stereo_perform&#45;&gt;spline_interp -->
<g id="edge52" class="edge">
<title>karma_stereo_perform&#45;&gt;spline_interp</title>
<path fill="none" stroke="black" d="M579.75,-1020.59C592.68,-1015.02 604.69,-1007.49 614.31,-997.37 666.29,-942.62 598.91,-886.66 650.31,-831.37 665.27,-815.27 686.35,-805.54 707.45,-799.69"/>
<polygon fill="black" stroke="black" points="708.11,-803.13 716.98,-797.34 706.43,-796.34 708.11,-803.13"/>
</g>
<!-- karma_stereo_perform&#45;&gt;ease_switchramp -->
<g id="edge53" class="edge">
<title>karma_stereo_perform&#45;&gt;ease_switchramp</title>
<path fill="none" stroke="black" d="M581.09,-1020.87C593.65,-1015.24 605.21,-1007.63 614.31,-997.37 687.61,-914.69 577.88,-834.82 650.31,-751.37 661.28,-738.73 676.02,-729.99 691.75,-723.96"/>
<polygon fill="black" stroke="black" points="692.44,-727.42 700.77,-720.87 690.17,-720.8 692.44,-727.42"/>
</g>
<!-- karma_stereo_perform&#45;&gt;ease_record -->
<g id="edge54" class="edge">
<title>karma_stereo_perform&#45;&gt;ease_record</title>
<path fill="none" stroke="black" d="M581.04,-1049.91C593.61,-1055.53 605.19,-1063.13 614.31,-1073.37 685.47,-1153.25 579.99,-1230.75 650.31,-1311.37 664.96,-1328.17 686.28,-1338.09 707.69,-1343.89"/>
<polygon fill="black" stroke="black" points="706.86,-1347.29 717.4,-1346.21 708.49,-1340.48 706.86,-1347.29"/>
</g>
<!-- karma_mono_perform&#45;&gt;karma_buf_modify -->
<g id="edge55" class="edge">
<title>karma_mono_perform&#45;&gt;karma_buf_modify</title>
<path fill="none" stroke="black" d="M509.83,-1140.43C543.97,-1167.27 598.04,-1206.6 650.31,-1231.37 666.31,-1238.96 684.06,-1245.44 701.31,-1250.84"/>
<polygon fill="black" stroke="black" points="699.93,-1254.08 710.52,-1253.63 701.96,-1247.38 699.93,-1254.08"/>
</g>
<!-- karma_mono_perform&#45;&gt;ease_bufoff -->
<g id="edge56" class="edge">
<title>karma_mono_perform&#45;&gt;ease_bufoff</title>
<path fill="none" stroke="black" d="M554.73,-1131.97C606.6,-1145.29 673.21,-1162.38 721.63,-1174.81"/>
<polygon fill="black" stroke="black" points="720.57,-1178.16 731.13,-1177.25 722.31,-1171.38 720.57,-1178.16"/>
</g>
<!-- karma_mono_perform&#45;&gt;ease_bufon -->
<g id="edge57" class="edge">
<title>karma_mono_perform&#45;&gt;ease_bufon</title>
<path fill="none" stroke="black" d="M588.75,-1111.37C627.47,-1111.37 669.88,-1111.37 705.43,-1111.37"/>
<polygon fill="black" stroke="black" points="705.2,-1114.87 715.2,-1111.37 705.2,-1107.87 705.2,-1114.87"/>
</g>
<!-- karma_mono_perform&#45;&gt;interp_index -->
<g id="edge58" class="edge">
<title>karma_mono_perform&#45;&gt;interp_index</title>
<path fill="none" stroke="black" d="M554.73,-1090.77C606.1,-1077.58 671.92,-1060.69 720.22,-1048.29"/>
<polygon fill="black" stroke="black" points="720.89,-1051.73 729.7,-1045.85 719.15,-1044.95 720.89,-1051.73"/>
</g>
<!-- karma_mono_perform&#45;&gt;linear_interp -->
<g id="edge59" class="edge">
<title>karma_mono_perform&#45;&gt;linear_interp</title>
<path fill="none" stroke="black" d="M575.12,-1095.84C589.35,-1090.42 602.97,-1083.14 614.31,-1073.37 644.46,-1047.39 620.43,-1017.67 650.31,-991.37 667.2,-976.5 689.38,-967.15 710.9,-961.28"/>
<polygon fill="black" stroke="black" points="711.73,-964.68 720.59,-958.87 710.04,-957.88 711.73,-964.68"/>
</g>
<!-- karma_mono_perform&#45;&gt;cubic_interp -->
<g id="edge60" class="edge">
<title>karma_mono_perform&#45;&gt;cubic_interp</title>
<path fill="none" stroke="black" d="M579,-1096.84C592.2,-1091.25 604.5,-1083.65 614.31,-1073.37 665.23,-1020.01 599.95,-965.26 650.31,-911.37 665.88,-894.7 688.02,-884.86 709.91,-879.09"/>
<polygon fill="black" stroke="black" points="710.54,-882.54 719.48,-876.84 708.94,-875.72 710.54,-882.54"/>
</g>
<!-- karma_mono_perform&#45;&gt;spline_interp -->
<g id="edge61" class="edge">
<title>karma_mono_perform&#45;&gt;spline_interp</title>
<path fill="none" stroke="black" d="M580.37,-1097.16C593.21,-1091.5 605.03,-1083.81 614.31,-1073.37 686.54,-992.09 578.93,-913.41 650.31,-831.37 664.73,-814.79 685.65,-804.91 706.76,-799.08"/>
<polygon fill="black" stroke="black" points="707.44,-802.52 716.32,-796.74 705.77,-795.72 707.44,-802.52"/>
</g>
<!-- karma_mono_perform&#45;&gt;ease_switchramp -->
<g id="edge62" class="edge">
<title>karma_mono_perform&#45;&gt;ease_switchramp</title>
<path fill="none" stroke="black" d="M580.73,-1097.46C593.51,-1091.76 605.22,-1083.97 614.31,-1073.37 708,-964.01 557.78,-861.71 650.31,-751.37 661.06,-738.55 675.7,-729.72 691.4,-723.66"/>
<polygon fill="black" stroke="black" points="692.09,-727.12 700.41,-720.56 689.81,-720.5 692.09,-727.12"/>
</g>
<!-- karma_mono_perform&#45;&gt;ease_record -->
<g id="edge63" class="edge">
<title>karma_mono_perform&#45;&gt;ease_record</title>
<path fill="none" stroke="black" d="M492.05,-1140.14C520.11,-1183.66 579.18,-1265.98 650.31,-1311.37 669.45,-1323.59 692.47,-1332.2 714.07,-1338.21"/>
<polygon fill="black" stroke="black" points="713.18,-1341.6 723.74,-1340.74 714.95,-1334.82 713.18,-1341.6"/>
</g>
<!-- karma_buf_modify&#45;&gt;karma_select_start -->
<g id="edge44" class="edge">
<title>karma_buf_modify&#45;&gt;karma_select_start</title>
<path fill="none" stroke="black" d="M860.06,-1290.22C894.69,-1299.3 936.31,-1310.21 971.88,-1319.53"/>
<polygon fill="black" stroke="black" points="970.68,-1322.84 981.25,-1321.99 972.46,-1316.07 970.68,-1322.84"/>
</g>
<!-- karma_buf_modify&#45;&gt;karma_select_size -->
<g id="edge45" class="edge">
<title>karma_buf_modify&#45;&gt;karma_select_size</title>
<path fill="none" stroke="black" d="M874.22,-1260.9C892.78,-1254.91 910.76,-1245.64 923.93,-1231.37 1001.79,-1147.06 1038.35,-782.34 1048.41,-662.61"/>
<polygon fill="black" stroke="black" points="1051.87,-663.24 1049.21,-652.99 1044.9,-662.67 1051.87,-663.24"/>
</g>
</g>
</svg>
